<svg width="50" height="50" viewBox="0 0 50 50" fill="none" xmlns="http://www.w3.org/2000/svg">
<g opacity="0.5" clip-path="url(#clip0)">
<path d="M49.1185 29.871L18.5104 16.5833C17.9583 16.3437 17.3164 16.4658 16.8912 16.8912C16.4659 17.3165 16.3439 17.9586 16.5833 18.5104L29.871 49.1184C30.1049 49.6571 30.6352 49.9999 31.2142 49.9999C31.2578 49.9999 31.3019 49.998 31.3462 49.994C31.9752 49.9373 32.4971 49.4838 32.6411 48.8689L35.7191 35.7189L48.8691 32.6409C49.484 32.497 49.9374 31.9751 49.9942 31.346C50.0509 30.7169 49.6978 30.1226 49.1185 29.871ZM34.1659 33.0736C33.6238 33.2005 33.2004 33.6238 33.0735 34.166L30.7966 43.8937L20.7489 20.7491L43.8936 30.7967L34.1659 33.0736Z" fill="black"/>
<path d="M19.043 11.7188C19.852 11.7188 20.5078 11.0629 20.5078 10.2539V1.46484C20.5078 0.655859 19.852 0 19.043 0C18.234 0 17.5781 0.655859 17.5781 1.46484V10.2539C17.5781 11.0629 18.234 11.7188 19.043 11.7188Z" fill="black"/>
<path d="M11.7925 24.222L5.57761 30.4369C5.00554 31.0089 5.00554 31.9364 5.57761 32.5084C6.14958 33.0805 7.07722 33.0805 7.64919 32.5084L13.864 26.2936C14.4361 25.7215 14.4361 24.7941 13.864 24.222C13.292 23.65 12.3644 23.65 11.7925 24.222Z" fill="black"/>
<path d="M26.2936 13.864L32.5084 7.64919C33.0805 7.07712 33.0805 6.14968 32.5084 5.57761C31.9365 5.00554 31.0089 5.00554 30.4369 5.57761L24.222 11.7925C23.65 12.3645 23.65 13.292 24.222 13.864C24.794 14.4361 25.7216 14.4361 26.2936 13.864Z" fill="black"/>
<path d="M7.64919 5.57761C7.07722 5.00554 6.14968 5.00554 5.57761 5.57761C5.00554 6.14968 5.00554 7.07712 5.57761 7.64919L11.7925 13.864C12.3644 14.4361 13.2921 14.4361 13.864 13.864C14.4361 13.292 14.4361 12.3645 13.864 11.7925L7.64919 5.57761Z" fill="black"/>
<path d="M11.7188 19.043C11.7188 18.234 11.0629 17.5781 10.2539 17.5781H1.46484C0.655859 17.5781 0 18.234 0 19.043C0 19.852 0.655859 20.5078 1.46484 20.5078H10.2539C11.0629 20.5078 11.7188 19.852 11.7188 19.043Z" fill="black"/>
</g>
<defs>
<clipPath id="clip0">
<rect width="50" height="50" fill="white"/>
</clipPath>
</defs>
</svg>
