<svg width="50" height="50" viewBox="0 0 50 50" fill="none" xmlns="http://www.w3.org/2000/svg">
<g opacity="0.5">
<path d="M42.6777 7.32227C37.9558 2.60049 31.6777 0 25 0C18.3223 0 12.0442 2.60049 7.32227 7.32227C2.60049 12.0441 0 18.3223 0 25C0 31.6777 2.60049 37.9559 7.32227 42.6777C12.0442 47.3995 18.3223 50 25 50C31.6777 50 37.9558 47.3995 42.6777 42.6777C47.3995 37.9559 50 31.6777 50 25C50 18.3223 47.3995 12.0441 42.6777 7.32227ZM23.5352 47.0205C12.046 46.2639 2.92969 36.6772 2.92969 25C2.92969 13.3228 12.046 3.73613 23.5352 2.97949V47.0205ZM26.4648 2.97949C29.9439 3.20859 33.2053 4.24668 36.0618 5.9082H26.4648V2.97949ZM26.4648 8.83789H40.0122C40.9811 9.73848 41.87 10.7239 42.665 11.7838H26.4648V8.83789ZM26.4648 14.7135H44.5215C45.0208 15.6572 45.4535 16.6413 45.8137 17.6595H26.4648V14.7135ZM26.4648 20.5892H46.6271C46.8229 21.55 46.9545 22.5337 47.0205 23.5352H26.4648V20.5892ZM26.4648 47.0205V44.0918H36.0618C33.2053 45.7533 29.9438 46.7914 26.4648 47.0205ZM40.0122 41.1621H26.4648V38.2161H42.665C41.87 39.2762 40.9811 40.2615 40.0122 41.1621ZM44.5215 35.2864H26.4648V32.3404H45.8137C45.4535 33.3586 45.0208 34.3427 44.5215 35.2864ZM46.6271 29.4108H26.4648V26.4648H47.0205C46.9546 27.4662 46.8229 28.4499 46.6271 29.4108Z" fill="black"/>
</g>
</svg>
