<svg width="130" height="130" viewBox="0 0 130 130" fill="none" xmlns="http://www.w3.org/2000/svg">
<circle opacity="0.1" cx="65" cy="65" r="65" fill="#C4C4C4"/>
<path d="M66.4114 59.7886V63.1991C66.4114 64.4816 67.4547 65.5249 68.7371 65.5249H69.2112V72.2889L66.5792 74.9208C66.3483 75.1519 66.2186 75.465 66.2186 75.7916V78.5214C66.2186 79.2015 66.7698 79.7528 67.4501 79.7528C68.1303 79.7528 68.6815 79.2015 68.6815 78.5214V76.3015L71.3135 73.6696C71.5443 73.4385 71.674 73.1254 71.674 72.7989V65.5249H72.1479C73.4304 65.5249 74.4736 64.4816 74.4736 63.1991V59.7886C74.4736 58.5061 73.4304 57.4626 72.1479 57.4626H68.7371C67.4548 57.4626 66.4114 58.5061 66.4114 59.7886ZM68.8742 59.9255H72.0108V63.062H68.8742V59.9255Z" fill="#3F4987"/>
<path d="M51.2918 55.7249C50.0093 55.7249 48.9661 56.7681 48.9661 58.0506V62.2013C48.9661 63.4838 50.0093 64.5273 51.2918 64.5273H55.4426C56.725 64.5273 57.7683 63.484 57.7683 62.2013V58.0506C57.7683 56.7681 56.725 55.7249 55.4426 55.7249H51.2918ZM55.3055 62.0644H51.4289V58.1879H55.3055V62.0644Z" fill="#3F4987"/>
<path d="M54.1581 47.5494V50.0687C54.1581 51.3512 55.2013 52.3945 56.4838 52.3945H59.0032C60.2857 52.3945 61.3289 51.3512 61.3289 50.0687V47.5494C61.3289 46.2669 60.2857 45.2236 59.0032 45.2236H56.4838C55.2013 45.2236 54.1581 46.2669 54.1581 47.5494ZM56.6209 47.6865H58.8661V49.9316H56.6209V47.6865Z" fill="#3F4987"/>
<path d="M35.0856 71.6668C35.0856 70.3843 34.0423 69.3411 32.7596 69.3411H30.2403C28.9578 69.3411 27.9146 70.3843 27.9146 71.6668V74.1862C27.9146 75.4687 28.9578 76.5119 30.2403 76.5119H32.7596C34.0421 76.5119 35.0856 75.4687 35.0856 74.1862V71.6668ZM32.6227 74.0491H30.3774V71.8039H32.6226V74.0491H32.6227Z" fill="#3F4987"/>
<path d="M41.1439 81.2244H37.015C35.7325 81.2244 34.6892 82.2676 34.6892 83.5501V87.6789C34.6892 88.9613 35.7325 90.0048 37.015 90.0048H41.1439C42.4264 90.0048 43.4696 88.9615 43.4696 87.6789V83.5501C43.4696 82.2678 42.4262 81.2244 41.1439 81.2244ZM41.0068 87.5419H37.1521V83.6872H41.0068V87.5419Z" fill="#3F4987"/>
<path d="M93.6876 61.2312C93.6876 60.104 93.6177 58.9637 93.4798 57.8421C93.3967 57.1671 92.7803 56.6875 92.1073 56.7703C91.4323 56.8532 90.9524 57.4678 91.0353 58.1427C91.1611 59.165 91.2248 60.2041 91.2248 61.2312C91.2248 68.1735 88.4495 74.6291 83.41 79.4088C79.9224 82.7166 77.1202 86.844 75.2642 91.3862H73.8643V84.4919L79.3778 78.9783C79.6086 78.7475 79.7383 78.4342 79.7383 78.1076V75.0049C80.8657 74.9923 81.7794 74.0723 81.7794 72.9419V70.2505C81.7794 69.1123 80.8534 68.1864 79.7154 68.1864H77.0238C75.8856 68.1864 74.9597 69.1125 74.9597 70.2505V72.9419C74.9597 74.08 75.8858 75.0061 77.0238 75.0061H77.2755V77.5975L71.762 83.111C71.5311 83.3419 71.4014 83.6551 71.4014 83.9817V91.3862H68.6813V83.7691C68.6813 83.089 68.1301 82.5377 67.4498 82.5377C66.7696 82.5377 66.2184 83.089 66.2184 83.7691V91.3862H62.1445V76.0778H62.6184C63.9009 76.0778 64.9441 75.0345 64.9441 73.752V70.3414C64.9441 69.0589 63.9009 68.0157 62.6184 68.0157H59.2078C57.9253 68.0157 56.8819 69.0589 56.8819 70.3414V73.752C56.8819 75.0345 57.9252 76.0778 59.2078 76.0778H59.6817V91.3862H57.0737C55.5925 87.797 53.5089 84.4587 50.8686 81.4545C50.4195 80.9435 49.6416 80.8935 49.1308 81.3425C48.62 81.7916 48.5697 82.5695 49.0188 83.0803C51.3469 85.7292 53.2099 88.6529 54.5706 91.7873C53.1333 92.4641 52.1356 93.9259 52.1356 95.6171C52.1356 97.8811 53.923 99.7351 56.1608 99.8428V101.599C56.1608 103.157 57.1623 104.485 58.5553 104.975C59.0551 108.379 61.9933 111 65.5331 111H66.8106C70.3504 111 73.2886 108.379 73.7884 104.975C75.1814 104.485 76.183 103.157 76.183 101.599V99.8428C78.4207 99.7351 80.2081 97.8811 80.2081 95.6171C80.2081 93.9238 79.2078 92.4604 77.7674 91.7847C79.4898 87.7747 82.0061 84.1346 85.1047 81.1956C90.6396 75.9462 93.6876 68.856 93.6876 61.2312ZM77.4228 70.6496H79.3167V72.5436H77.4228V70.6496ZM59.3451 70.4787H62.4816V73.6152H59.3451V70.4787ZM66.8108 108.537H65.5332C63.4283 108.537 61.6496 107.113 61.1103 105.178H71.2339C70.6942 107.113 68.9157 108.537 66.8108 108.537ZM75.9772 97.3854H71.917C71.2367 97.3854 70.6855 97.9368 70.6855 98.6168C70.6855 99.2969 71.2367 99.8483 71.917 99.8483H73.7201V101.599C73.7201 102.214 73.2193 102.715 72.6039 102.715H59.7396C59.1242 102.715 58.6236 102.214 58.6236 101.599V99.8483H66.6689C67.3492 99.8483 67.9004 99.2969 67.9004 98.6168C67.9004 97.9368 67.3492 97.3854 66.6689 97.3854H56.3665C55.3915 97.3854 54.5983 96.5922 54.5983 95.6172C54.5983 94.683 55.3272 93.9177 56.2458 93.8553C56.2608 93.8553 56.276 93.855 56.291 93.8545C56.319 93.8535 56.347 93.8517 56.3747 93.8499L56.3827 93.8494H75.9767L75.9664 93.8499C75.9932 93.8517 76.0199 93.8533 76.0469 93.8545C76.0629 93.8551 76.0789 93.8553 76.0948 93.8555C77.0146 93.9166 77.7449 94.6825 77.7449 95.6176C77.7454 96.5924 76.9522 97.3854 75.9772 97.3854Z" fill="#3F4987"/>
<path d="M41.1191 61.2315C41.1191 55.9505 42.7557 50.8934 45.8522 46.6069C46.2505 46.0557 46.1264 45.2858 45.575 44.8876C45.0238 44.4893 44.254 44.6134 43.8558 45.1648C40.4541 49.8736 38.6562 55.4295 38.6564 61.2315C38.6564 67.8523 41.0442 74.2513 45.38 79.2494C45.6235 79.5302 45.9661 79.6739 46.3108 79.6739C46.5968 79.6739 46.8841 79.5747 47.1171 79.3727C47.6309 78.9271 47.686 78.1493 47.2404 77.6356C43.2929 73.0852 41.1191 67.2594 41.1191 61.2315Z" fill="#3F4987"/>
<path d="M59.7525 36.9743C59.8521 36.9743 59.9538 36.962 60.0549 36.9366C62.0661 36.4287 64.148 36.1695 66.2293 36.1782C67.51 36.1811 68.7967 36.2816 70.0536 36.477C70.727 36.5814 71.3552 36.1214 71.4596 35.4493C71.564 34.7773 71.1039 34.1478 70.4319 34.0434C69.0521 33.8288 67.6399 33.7184 66.2347 33.7153C63.9397 33.7056 61.6617 33.9907 59.4518 34.5486C58.7925 34.7151 58.393 35.3847 58.5593 36.044C58.7004 36.6023 59.2018 36.9743 59.7525 36.9743Z" fill="#3F4987"/>
<path d="M49.0174 43.8698H53.8178C55.1003 43.8698 56.1436 42.8265 56.1436 41.544V36.7434C56.1436 35.4609 55.1003 34.4175 53.8178 34.4175H49.0174C47.7349 34.4175 46.6917 35.4607 46.6917 36.7434V41.544C46.6917 42.8263 47.7351 43.8698 49.0174 43.8698ZM49.1545 36.8805H53.6807V41.4069H49.1545V36.8805Z" fill="#3F4987"/>
<path d="M92.9956 85.4819H87.6799C86.3974 85.4819 85.3541 86.5252 85.3541 87.8077V93.1234C85.3541 94.4058 86.3974 95.4493 87.6799 95.4493H92.9956C94.278 95.4493 95.3213 94.406 95.3213 93.1234V87.8077C95.3213 86.5254 94.278 85.4819 92.9956 85.4819ZM92.8585 92.9864H87.817V87.9448H92.8585V92.9864Z" fill="#3F4987"/>
<path d="M99.4844 75.0393H96.3573C95.0748 75.0393 94.0315 76.0826 94.0315 77.3651V80.4921C94.0315 81.7746 95.0748 82.8178 96.3573 82.8178H99.4844C100.767 82.8178 101.81 81.7746 101.81 80.4921V77.3651C101.81 76.0827 100.767 75.0393 99.4844 75.0393ZM99.3473 80.3551H96.4943V77.5023H99.3473V80.3551Z" fill="#3F4987"/>
<path d="M38.9104 34.6355H41.8057C43.0882 34.6355 44.1314 33.5922 44.1314 32.3096V29.4144C44.1314 28.1319 43.0882 27.0886 41.8057 27.0886H38.9104C37.6279 27.0886 36.5846 28.1319 36.5846 29.4144V32.3097C36.5846 33.5922 37.628 34.6355 38.9104 34.6355ZM39.0475 29.5515H41.6686V32.1726H39.0475V29.5515Z" fill="#3F4987"/>
<path d="M31.354 44.5478H33.6081C34.8906 44.5478 35.934 43.5045 35.934 42.222V39.9678C35.934 38.6854 34.8908 37.6421 33.6081 37.6421H31.354C30.0715 37.6421 29.0282 38.6854 29.0282 39.9678V42.222C29.0282 43.5045 30.0715 44.5478 31.354 44.5478ZM31.4911 40.1049H33.4712V42.0851H31.4911V40.1049Z" fill="#3F4987"/>
<path d="M93.1492 34.7048H83.4888C82.8085 34.7048 82.2573 35.2562 82.2573 35.9363V45.5967C82.2573 46.2768 82.8085 46.8282 83.4888 46.8282H93.1492C93.8295 46.8282 94.3807 46.2768 94.3807 45.5967V35.9363C94.3807 35.2562 93.8295 34.7048 93.1492 34.7048ZM91.9178 44.3653H84.7202V37.1677H91.9178V44.3653Z" fill="#3F4987"/>
<path d="M100.854 41.9981C101.535 41.9981 102.086 41.4468 102.086 40.7667C102.086 40.0866 101.535 39.5353 100.854 39.5353H99.3064V36.1273H100.854C101.535 36.1273 102.086 35.576 102.086 34.8959C102.086 34.2158 101.535 33.6645 100.854 33.6645H99.3064V33.609C99.3064 31.4973 97.5885 29.7794 95.4768 29.7794H95.4211V28.2314C95.4211 27.5514 94.87 27 94.1897 27C93.5095 27 92.9583 27.5514 92.9583 28.2314V29.7793H89.5505V28.2314C89.5505 27.5514 88.9993 27 88.3191 27C87.6388 27 87.0877 27.5514 87.0877 28.2314V29.7793H83.6797V28.2314C83.6797 27.5514 83.1285 27 82.4483 27C81.768 27 81.2169 27.5514 81.2169 28.2314V29.7793H81.1612C79.0495 29.7793 77.3316 31.4972 77.3316 33.6088V33.6645H75.7838C75.1036 33.6645 74.5524 34.2158 74.5524 34.8959C74.5524 35.576 75.1036 36.1273 75.7838 36.1273H77.3316V39.5351H75.7838C75.1036 39.5351 74.5524 40.0865 74.5524 40.7665C74.5524 41.4466 75.1036 41.998 75.7838 41.998H77.3316V45.4059H75.7838C75.1036 45.4059 74.5524 45.9573 74.5524 46.6373C74.5524 47.3174 75.1036 47.8688 75.7838 47.8688H77.3316V47.9243C77.3316 50.0359 79.0495 51.7538 81.1612 51.7538H81.2169V53.3017C81.2169 53.9817 81.768 54.5331 82.4483 54.5331C83.1285 54.5331 83.6797 53.9817 83.6797 53.3017V51.7538H87.0877V53.3017C87.0877 53.9817 87.6388 54.5331 88.3191 54.5331C88.9993 54.5331 89.5505 53.9817 89.5505 53.3017V51.7538H92.9584V53.3017C92.9584 53.9817 93.5096 54.5331 94.1899 54.5331C94.8701 54.5331 95.4213 53.9817 95.4213 53.3017V51.7538H95.4768C97.5885 51.7538 99.3064 50.0359 99.3064 47.9243V47.8686H100.854C101.535 47.8686 102.086 47.3173 102.086 46.6372C102.086 45.9571 101.535 45.4058 100.854 45.4058H99.3064V41.9981H100.854ZM96.8435 47.9244C96.8435 48.6781 96.2304 49.2912 95.4768 49.2912H81.1614C80.4077 49.2912 79.7946 48.6781 79.7946 47.9244V33.6088C79.7946 32.8552 80.4077 32.2421 81.1614 32.2421H95.4768C96.2304 32.2421 96.8435 32.8552 96.8435 33.6088V47.9244Z" fill="#3F4987"/>
</svg>
