<svg width="50" height="50" viewBox="0 0 50 50" fill="none" xmlns="http://www.w3.org/2000/svg">
<g opacity="0.5" clip-path="url(#clip0)">
<path d="M49.5885 6.3105C49.5588 6.28257 43.6857 0.681494 43.6857 0.681494C43.4612 0.466064 43.2289 0.243408 42.7953 0.243408H19.1508C18.4602 0.243408 17.8983 0.805225 17.8983 1.49585V5.34185L9.56477 6.77036C8.8968 6.88755 8.44758 7.52681 8.5633 8.19409L8.98625 10.6601C6.27756 11.5716 3.4966 12.5113 0.811936 13.4756C0.177562 13.7076 -0.155349 14.4129 0.0710185 15.0511L5.41135 29.8964C5.51877 30.1952 5.80032 30.3812 6.10061 30.3812C6.18284 30.3812 6.26662 30.3672 6.34846 30.3377C6.72912 30.2008 6.92668 29.7813 6.78977 29.4006L1.52844 14.7749C4.05774 13.8693 6.67707 12.983 9.23694 12.1213L11.7536 26.7937L14.6495 43.6914C14.7541 44.2878 15.2784 44.7123 15.8702 44.7123C15.9372 44.7123 16.0052 44.7068 16.0734 44.6956L23.9167 43.3496L30.0456 42.299L20.8278 45.6122L13.5587 48.2257L7.9134 32.5237C7.77658 32.143 7.35715 31.9455 6.97639 32.0823C6.59573 32.2191 6.39817 32.6386 6.53498 33.0193L12.2604 48.9445C12.4435 49.4453 12.9179 49.7566 13.4194 49.7566C13.5579 49.7566 13.6987 49.7328 13.8358 49.6827L21.3232 46.9907L38.3245 40.8799L41.5725 40.3232H48.7474C49.438 40.3232 49.9999 39.7601 49.9999 39.0679V7.13579C50 6.69741 49.7621 6.47378 49.5885 6.3105ZM47.648 6.48394H43.9829L43.8921 6.48433C43.7166 6.4855 43.3058 6.48853 43.2016 6.38501C43.1776 6.36108 43.1494 6.2812 43.1494 6.13286L43.1409 2.18608L47.648 6.48394ZM48.5352 38.8582H19.3631V24.584C19.3631 24.1795 19.0352 23.8516 18.6307 23.8516C18.2262 23.8516 17.8983 24.1795 17.8983 24.584V39.0677C17.8983 39.7598 18.4602 40.323 19.1508 40.323H32.902L23.6691 41.9056L16.0536 43.2125L13.1974 26.546L10.0461 8.17397L17.8982 6.82798V21.1856C17.8982 21.5901 18.2261 21.918 18.6306 21.918C19.0351 21.918 19.363 21.5901 19.363 21.1856V1.70815H41.675L41.6846 6.13452C41.6846 6.67104 41.8478 7.10503 42.1696 7.42456C42.664 7.91548 43.3629 7.94966 43.7968 7.94966C43.8341 7.94966 43.8695 7.94936 43.9026 7.94917L48.5352 7.94888V38.8582Z" fill="black"/>
<path d="M22.8937 11.6161C22.8937 12.0206 23.2216 12.3485 23.6261 12.3485H44.5671C44.9716 12.3485 45.2995 12.0206 45.2995 11.6161C45.2995 11.2116 44.9716 10.8837 44.5671 10.8837H23.6261C23.2216 10.8837 22.8937 11.2116 22.8937 11.6161Z" fill="black"/>
<path d="M44.5671 16.0869H23.6261C23.2216 16.0869 22.8937 16.4148 22.8937 16.8193C22.8937 17.2238 23.2216 17.5518 23.6261 17.5518H44.5671C44.9716 17.5518 45.2995 17.2238 45.2995 16.8193C45.2995 16.4148 44.9716 16.0869 44.5671 16.0869Z" fill="black"/>
<path d="M44.5671 21.2903H23.6261C23.2216 21.2903 22.8937 21.6182 22.8937 22.0227C22.8937 22.4272 23.2216 22.7551 23.6261 22.7551H44.5671C44.9716 22.7551 45.2995 22.4272 45.2995 22.0227C45.2995 21.6182 44.9716 21.2903 44.5671 21.2903Z" fill="black"/>
<path d="M44.5671 26.4937H23.6261C23.2216 26.4937 22.8937 26.8216 22.8937 27.2261C22.8937 27.6306 23.2216 27.9585 23.6261 27.9585H44.5671C44.9716 27.9585 45.2995 27.6306 45.2995 27.2261C45.2995 26.8216 44.9716 26.4937 44.5671 26.4937Z" fill="black"/>
<path d="M44.5671 31.697H23.6261C23.2216 31.697 22.8937 32.025 22.8937 32.4294C22.8937 32.8339 23.2216 33.1619 23.6261 33.1619H44.5671C44.9716 33.1619 45.2995 32.8339 45.2995 32.4294C45.2995 32.025 44.9716 31.697 44.5671 31.697Z" fill="black"/>
</g>
<defs>
<clipPath id="clip0">
<rect width="50" height="50" fill="white"/>
</clipPath>
</defs>
</svg>
