<svg width="36" height="36" viewBox="0 0 36 36" fill="none" xmlns="http://www.w3.org/2000/svg">
<g clip-path="url(#clip0)">
<path d="M18.0646 36C8.15177 36.0338 0.0505031 28.0056 -0.000129828 18.1041C-0.0507627 8.12939 8.03925 0 18.0027 0C27.9155 0 35.983 8.05626 35.9999 17.9691C36.0168 27.8819 27.9717 35.9662 18.0646 36ZM17.9858 20.0394C19.5892 21.6653 21.0294 23.1336 22.4809 24.5907C23.8648 25.9859 24.6356 26.1885 25.4176 25.384C26.1883 24.5907 25.9802 23.8537 24.5681 22.4473C23.0941 20.9733 21.6201 19.4993 20.073 17.9522C21.8958 16.1575 23.5948 14.5429 25.2263 12.8664C26.1883 11.8762 26.0083 10.5429 24.8494 10.301C24.298 10.1885 23.4598 10.5035 23.0266 10.9142C21.3332 12.5063 19.7467 14.2166 18.0308 15.9775C16.4106 14.3347 14.976 12.8664 13.5245 11.4093C12.1236 10.0028 11.3754 9.80591 10.5878 10.6104C9.8114 11.4037 10.0252 12.1406 11.4317 13.5471C12.9056 15.0211 14.3796 16.4951 15.9324 18.0478C14.1771 19.7693 12.5737 21.3502 10.9647 22.9198C10.2277 23.6399 9.72139 24.4557 10.5821 25.3502C11.4992 26.3066 12.3487 25.8003 13.1082 25.0183C14.6722 23.4093 16.253 21.8059 17.9858 20.0394Z" fill="#FFF0EF"/>
<path d="M17.9859 20.0394C16.2532 21.806 14.6779 23.4093 13.1083 25.0183C12.3432 25.8003 11.4993 26.3123 10.5823 25.3503C9.72713 24.4557 10.2278 23.64 10.9648 22.9199C12.5738 21.3503 14.1772 19.775 15.9325 18.0479C14.3797 16.4951 12.9058 15.0211 11.4318 13.5472C10.0253 12.1407 9.81152 11.3981 10.5879 10.6105C11.3755 9.80595 12.1238 10.0029 13.5246 11.4093C14.9761 12.8664 16.4107 14.3348 18.0309 15.9775C19.7468 14.2166 21.3333 12.512 23.0267 10.9142C23.4599 10.5036 24.2982 10.1885 24.8495 10.301C26.0084 10.5429 26.1885 11.8819 25.2264 12.8664C23.5949 14.5429 21.8959 16.1576 20.0731 17.9522C21.6202 19.4993 23.0942 20.9733 24.5682 22.4473C25.9747 23.8594 26.1885 24.5964 25.4177 25.384C24.6357 26.1829 23.865 25.9804 22.481 24.5908C21.0295 23.1337 19.5893 21.6653 17.9859 20.0394Z" fill="#FF4F47"/>
</g>
<defs>
<clipPath id="clip0">
<rect width="36" height="36" fill="white"/>
</clipPath>
</defs>
</svg>
