<svg width="130" height="130" viewBox="0 0 130 130" fill="none" xmlns="http://www.w3.org/2000/svg">
<circle opacity="0.1" cx="65" cy="65" r="65" fill="#C4C4C4"/>
<path d="M93.102 37.7001H37.8382C34.8914 37.7036 32.5035 40.0914 32.5 43.0383V82.0649C32.5035 85.0118 34.8914 87.4002 37.8382 87.4032H56.0875V98.2826H51.8562C51.3539 98.2826 50.9475 98.6896 50.9475 99.1913C50.9475 99.693 51.3539 100.1 51.8562 100.1H79.8816C80.3833 100.1 80.7903 99.693 80.7903 99.1913C80.7903 98.6896 80.3833 98.2826 79.8816 98.2826H74.8533V87.4032H93.102C96.0489 87.4002 98.4373 85.0118 98.4403 82.0649V43.0383C98.4367 40.0914 96.0489 37.7036 93.102 37.7001ZM37.8382 39.5175H93.102C95.0455 39.5199 96.621 41.0948 96.6228 43.0383V77.1124H34.3175V43.0383C34.3198 41.0948 35.8948 39.5199 37.8382 39.5175ZM73.0353 98.2826H57.9044V87.4032H73.0353V98.2826ZM93.102 85.5857H37.8382C35.8948 85.5839 34.3198 84.009 34.3175 82.0649V78.9299H96.6228V82.0649C96.621 84.009 95.0455 85.5839 93.102 85.5857Z" fill="#3F4987"/>
<path d="M63.3092 62.6306C63.5596 62.6306 63.7529 62.551 63.8099 62.335L64.2427 60.8207H66.8494L67.2822 62.335C67.3393 62.551 67.5326 62.6306 67.7829 62.6306C68.1813 62.6306 68.7164 62.369 68.7164 62.0163C68.7131 61.9772 68.7055 61.939 68.6938 61.9022L66.4968 54.7421C66.3944 54.4008 65.9734 54.2415 65.5406 54.2415C65.1196 54.2415 64.6986 54.4008 64.5958 54.7421L62.3979 61.9022C62.387 61.9395 62.3795 61.9777 62.3752 62.0163C62.3757 62.3803 62.9108 62.6306 63.3092 62.6306ZM65.5402 56.165L66.5307 59.66H64.5501L65.5402 56.165Z" fill="#3F4987"/>
<path d="M70.2408 62.6291C70.6053 62.6291 70.9806 62.4697 70.9806 62.1623V54.7641C70.9806 54.4454 70.6053 54.3087 70.2408 54.3087C69.8651 54.3087 69.5011 54.4454 69.5011 54.7641V62.1623C69.5011 62.4697 69.8651 62.6291 70.2408 62.6291Z" fill="#3F4987"/>
<path d="M47.5632 62.0806C48.9564 62.0811 50.17 61.1301 50.5023 59.777H56.0255C56.0863 60.7049 56.266 61.6209 56.5597 62.503H56.1655C54.4706 62.5049 53.0973 63.8788 53.0954 65.5737C53.0944 66.469 52.3684 67.1946 51.4731 67.1955H51.0209C50.6546 65.708 49.235 64.7279 47.7146 64.9122C46.1936 65.097 45.0499 66.3879 45.0499 67.9197C45.0499 69.4519 46.1936 70.7428 47.7146 70.9271C49.235 71.1115 50.6546 70.1318 51.0209 68.6438H51.4731C53.168 68.6419 54.5418 67.2686 54.5437 65.5737C54.5446 64.6779 55.2702 63.9523 56.1655 63.9514H57.1603C58.8439 67.3242 62.1418 69.5962 65.8927 69.9677C66.26 70.004 66.6254 70.0219 66.9893 70.0219C71.1392 70.0115 74.9288 67.6632 76.7849 63.9514H77.8047C78.7 63.9528 79.4256 64.6784 79.4265 65.5737C79.4284 67.2686 80.8018 68.6424 82.4971 68.6443H82.9493C83.3156 70.1318 84.7347 71.1119 86.2556 70.9271C87.7766 70.7428 88.9203 69.4519 88.9203 67.9201C88.9203 66.3879 87.7766 65.097 86.2556 64.9127C84.7347 64.7283 83.3156 65.708 82.9493 67.196H82.4971C81.6014 67.1946 80.8758 66.469 80.8748 65.5737C80.8729 63.8788 79.4996 62.5049 77.8047 62.503H77.3804C77.6349 61.7327 77.8037 60.9368 77.8839 60.1292C77.8957 60.0118 77.9042 59.8944 77.9122 59.777H83.4669C83.8333 61.265 85.2524 62.2447 86.7733 62.0603C88.2942 61.876 89.438 60.5851 89.438 59.0529C89.438 57.5211 88.2942 56.2302 86.7733 56.0454C85.2524 55.8611 83.8333 56.8413 83.4669 58.3287H77.9126C77.8523 57.4014 77.6727 56.4848 77.3789 55.6032H77.8047C79.4996 55.6008 80.8729 54.2275 80.8748 52.5326C80.8758 51.6368 81.6014 50.9112 82.4971 50.9103H82.9493C83.0803 51.4468 83.3566 51.9371 83.7475 52.327C84.7205 53.3015 86.2283 53.4967 87.4178 52.8027C88.6073 52.1087 89.1787 50.6995 88.8091 49.3733C88.4394 48.0466 87.2216 47.1362 85.845 47.157C84.4678 47.1782 83.2783 48.1249 82.9493 49.4619H82.4967C80.8018 49.4638 79.4284 50.8377 79.4265 52.5326C79.4256 53.4279 78.6995 54.1535 77.8042 54.1549H76.7783C74.9231 50.4355 71.1241 48.0853 66.9677 48.0853C62.8113 48.0853 59.0122 50.4355 57.1565 54.1549H56.1655C55.2698 54.1535 54.5442 53.4279 54.5432 52.5326C54.5413 50.8377 53.168 49.4638 51.4726 49.4619H51.0205C50.6904 48.1277 49.5028 47.1834 48.1285 47.1631C46.7542 47.1428 45.5388 48.0518 45.1701 49.3761C44.8009 50.7 45.3714 52.1064 46.5581 52.7994C47.7452 53.4929 49.2501 53.2987 50.2223 52.327C50.6131 51.9371 50.8894 51.4468 51.0205 50.9103H51.4726C52.3684 50.9112 53.094 51.6373 53.0949 52.5326C53.0968 54.2275 54.4702 55.6008 56.1651 55.6032H56.5578C56.3027 56.3731 56.1339 57.1694 56.0547 57.977C56.0425 58.0944 56.034 58.2118 56.026 58.3287H50.5023C50.1247 56.7974 48.6344 55.8125 47.0776 56.0657C45.5204 56.3184 44.4186 57.7248 44.5459 59.2971C44.6727 60.8694 45.9857 62.0806 47.5632 62.0806ZM49.1978 69.0366C48.5811 69.6528 47.5821 69.6523 46.9654 69.0361C46.3492 68.4194 46.3492 67.4204 46.9654 66.8037C47.5821 66.1875 48.5811 66.187 49.1978 66.8032C49.8135 67.4204 49.8135 68.4194 49.1978 69.0366ZM84.7715 66.8032C85.3881 66.1861 86.3886 66.1861 87.0052 66.8028C87.6224 67.4199 87.6224 68.4199 87.0052 69.037C86.3886 69.6537 85.3881 69.6537 84.7715 69.0366C84.1553 68.4194 84.1553 67.4199 84.7715 66.8028V66.8032ZM85.2891 57.936C85.9063 57.3193 86.9062 57.3193 87.5229 57.936C88.1401 58.5531 88.1401 59.5531 87.5229 60.1698C86.9062 60.7869 85.9063 60.7869 85.2891 60.1698C84.9902 59.8751 84.8219 59.4725 84.8219 59.0529C84.8219 58.6328 84.9902 58.2307 85.2891 57.936ZM84.7715 49.0692C85.3881 48.4525 86.3881 48.4525 87.0052 49.0692C87.6219 49.6859 87.6219 50.6863 87.0052 51.303C86.3881 51.9197 85.3881 51.9197 84.7715 51.303C84.1553 50.6859 84.1553 49.6864 84.7715 49.0687V49.0692ZM49.1978 51.303C48.5811 51.9192 47.5816 51.9187 46.9654 51.3021C46.3492 50.6859 46.3492 49.6864 46.9654 49.0697C47.5816 48.453 48.5811 48.453 49.1978 49.0692C49.8135 49.6864 49.8135 50.6854 49.1978 51.303ZM67.903 49.5793C73.1353 50.0951 76.9584 54.755 76.4422 59.9868C75.9264 65.2191 71.2669 69.0422 66.0346 68.5264C60.8028 68.0102 56.9797 63.3507 57.4955 58.1189C57.727 55.5994 58.9585 53.2779 60.9141 51.6731C62.8697 50.0687 65.3873 49.3144 67.903 49.5793ZM46.4463 57.936C47.063 57.3188 48.0635 57.3188 48.6801 57.9355C49.2973 58.5527 49.2973 59.5526 48.6801 60.1693C48.0635 60.7864 47.063 60.7864 46.4463 60.1693C46.1479 59.8746 45.9796 59.4725 45.9796 59.0524C45.9796 58.6328 46.1479 58.2307 46.4463 57.936Z" fill="#3F4987"/>
</svg>
