<svg width="58" height="58" viewBox="0 0 58 58" fill="none" xmlns="http://www.w3.org/2000/svg">
<g opacity="0.5">
<path d="M56.7539 42.9335V15.0664C56.7539 13.4011 55.3152 12.0417 53.548 12.0417H4.45195C2.68477 12.0417 1.24609 13.4011 1.24609 15.0664V42.9335C1.24609 44.5988 2.68477 45.9582 4.45195 45.9582H53.548C55.3152 45.9582 56.7539 44.6101 56.7539 42.9335ZM4.02148 42.9335V15.0664C4.02148 14.9644 4.19141 14.8171 4.45195 14.8171H53.548C53.8199 14.8171 53.9785 14.9757 53.9785 15.0664V42.9335C53.9785 43.0355 53.8086 43.1828 53.548 43.1828H4.45195C4.19141 43.1828 4.02148 43.0355 4.02148 42.9335Z" fill="black"/>
<path d="M11.2488 23.3812C12.206 23.3812 12.982 22.6052 12.982 21.648C12.982 20.6908 12.206 19.9148 11.2488 19.9148C10.2916 19.9148 9.51562 20.6908 9.51562 21.648C9.51562 22.6052 10.2916 23.3812 11.2488 23.3812Z" fill="black"/>
<path d="M18.3516 23.3812C19.3088 23.3812 20.0848 22.6052 20.0848 21.648C20.0848 20.6908 19.3088 19.9148 18.3516 19.9148C17.3944 19.9148 16.6184 20.6908 16.6184 21.648C16.6184 22.6052 17.3944 23.3812 18.3516 23.3812Z" fill="black"/>
<path d="M25.4429 23.3812C26.4001 23.3812 27.1761 22.6052 27.1761 21.648C27.1761 20.6908 26.4001 19.9148 25.4429 19.9148C24.4857 19.9148 23.7097 20.6908 23.7097 21.648C23.7097 22.6052 24.4857 23.3812 25.4429 23.3812Z" fill="black"/>
<path d="M32.5457 23.3812C33.5029 23.3812 34.2789 22.6052 34.2789 21.648C34.2789 20.6908 33.5029 19.9148 32.5457 19.9148C31.5885 19.9148 30.8125 20.6908 30.8125 21.648C30.8125 22.6052 31.5885 23.3812 32.5457 23.3812Z" fill="black"/>
<path d="M39.6485 23.3812C40.6057 23.3812 41.3817 22.6052 41.3817 21.648C41.3817 20.6908 40.6057 19.9148 39.6485 19.9148C38.6913 19.9148 37.9153 20.6908 37.9153 21.648C37.9153 22.6052 38.6913 23.3812 39.6485 23.3812Z" fill="black"/>
<path d="M46.7513 23.3812C47.7085 23.3812 48.4845 22.6052 48.4845 21.648C48.4845 20.6908 47.7085 19.9148 46.7513 19.9148C45.794 19.9148 45.0181 20.6908 45.0181 21.648C45.0181 22.6052 45.794 23.3812 46.7513 23.3812Z" fill="black"/>
<path d="M14.806 30.7331C15.7632 30.7331 16.5392 29.9572 16.5392 28.9999C16.5392 28.0427 15.7632 27.2667 14.806 27.2667C13.8487 27.2667 13.0728 28.0427 13.0728 28.9999C13.0728 29.9572 13.8487 30.7331 14.806 30.7331Z" fill="black"/>
<path d="M21.8973 30.7331C22.8545 30.7331 23.6305 29.9572 23.6305 28.9999C23.6305 28.0427 22.8545 27.2667 21.8973 27.2667C20.94 27.2667 20.1641 28.0427 20.1641 28.9999C20.1641 29.9572 20.94 30.7331 21.8973 30.7331Z" fill="black"/>
<path d="M29.0001 30.7331C29.9573 30.7331 30.7333 29.9572 30.7333 28.9999C30.7333 28.0427 29.9573 27.2667 29.0001 27.2667C28.0428 27.2667 27.2668 28.0427 27.2668 28.9999C27.2668 29.9572 28.0428 30.7331 29.0001 30.7331Z" fill="black"/>
<path d="M36.0914 30.7331C37.0486 30.7331 37.8246 29.9572 37.8246 28.9999C37.8246 28.0427 37.0486 27.2667 36.0914 27.2667C35.1341 27.2667 34.3582 28.0427 34.3582 28.9999C34.3582 29.9572 35.1341 30.7331 36.0914 30.7331Z" fill="black"/>
<path d="M43.1941 27.2667C42.2312 27.2667 41.4609 28.0484 41.4609 28.9999C41.4609 29.9628 42.2426 30.7331 43.1941 30.7331C44.157 30.7331 44.9273 29.9515 44.9273 28.9999C44.9273 28.037 44.157 27.2667 43.1941 27.2667Z" fill="black"/>
<path d="M41.3815 34.9698H16.6182C15.8479 34.9698 15.2249 35.5929 15.2249 36.3632C15.2249 37.1335 15.8479 37.7566 16.6182 37.7566H41.3815C42.1518 37.7566 42.7749 37.1335 42.7749 36.3632C42.7749 35.5929 42.1518 34.9698 41.3815 34.9698Z" fill="black"/>
</g>
</svg>
