<svg width="50" height="50" viewBox="0 0 50 50" fill="none" xmlns="http://www.w3.org/2000/svg">
<g opacity="0.5" clip-path="url(#clip0)">
<path d="M39.4931 24.9786L42.0326 27.5177C42.4259 27.911 43.0652 27.911 43.4585 27.5177L45.9979 24.9786C46.6316 24.3446 46.1822 23.2571 45.2846 23.2571H43.4642C43.1224 14.193 35.8146 6.88208 26.7516 6.53609V4.71534C26.7516 3.81926 25.6648 3.3676 25.0301 4.00199L22.491 6.54143C22.0977 6.93435 22.0977 7.57445 22.491 7.96775L25.0301 10.5064C25.6633 11.14 26.7516 10.693 26.7516 9.79346V8.00208C35.0067 8.34655 41.6583 15.0009 41.9982 23.2571H40.2065C39.3089 23.2571 38.8595 24.345 39.4931 24.9786ZM25.2864 8.6914L23.8494 7.2544L25.2864 5.8174V8.6914ZM44.1825 24.7219L42.7455 26.1593L41.3085 24.7219H44.1825Z" fill="black"/>
<path d="M20.2243 17.2125C20.2389 17.1452 20.2466 17.0753 20.2466 17.0036V1.67007C20.2466 0.611134 19.3855 -0.25 18.3265 -0.25H1.67007C0.611134 -0.25 -0.25 0.611134 -0.25 1.67007V35.7551C-0.25 36.814 0.611134 37.6752 1.67007 37.6752H12.3251V48.3298C12.3251 49.3888 13.1863 50.2499 14.2452 50.2499H28.8189H29.401H48.3298C49.3888 50.2499 50.2499 49.3888 50.2499 48.3298V31.6734C50.2499 30.6144 49.3888 29.7533 48.3298 29.7533H20.2466V17.4216C20.2466 17.3498 20.2389 17.2799 20.2243 17.2125ZM18.2818 17.0036C18.2818 17.0753 18.2894 17.1452 18.304 17.2125C18.2894 17.2799 18.2818 17.3498 18.2818 17.4216V29.7533H14.2452C13.1863 29.7533 12.3251 30.6144 12.3251 31.6734V35.7099H1.71484V1.71484H18.2818V17.0036ZM14.29 48.2851V37.6748H18.3265C19.3854 37.6748 20.2466 36.8141 20.2466 35.7547V31.7181H48.2851V48.2851H29.401H28.8189H14.29ZM18.2818 31.7181V35.7099H14.29V31.7181H18.2818Z" fill="black" stroke="black" stroke-width="0.5"/>
</g>
<defs>
<clipPath id="clip0">
<rect width="50" height="50" fill="white"/>
</clipPath>
</defs>
</svg>
