<svg width="50" height="34" viewBox="0 0 50 34" fill="none" xmlns="http://www.w3.org/2000/svg">
<path d="M49.2981 16.8486L46.4132 3.86445C45.9493 1.78516 44.1386 0.333594 42.0105 0.333594C39.5244 0.333594 37.5 2.35693 37.5 4.84307V5.5419C37.5 6.11768 37.9659 6.58359 38.5417 6.58359C39.1175 6.58359 39.5834 6.11768 39.5834 5.5419V4.84307C39.5834 3.50537 40.6719 2.41689 42.0105 2.41689C43.156 2.41689 44.1305 3.19912 44.3787 4.31709L47.2637 17.3003C47.6218 18.9137 47.8333 20.5596 47.8964 22.2085H47.8114C47.2801 16.9595 42.8868 12.8335 37.5 12.8335C32.7902 12.8335 28.8464 15.9961 27.5627 20.2942C26.9253 19.6223 26.0853 19.0835 25 19.0835C23.9147 19.0835 23.0747 19.6223 22.4373 20.2942C21.1536 15.9961 17.2098 12.8335 12.5 12.8335C7.11328 12.8335 2.72002 16.9595 2.18857 22.2085H2.10361C2.1667 20.5596 2.37832 18.9136 2.73633 17.3003L5.62129 4.31807C5.86953 3.19912 6.84404 2.4168 7.98945 2.4168C9.32812 2.4168 10.4166 3.50527 10.4166 4.84297V5.5418C10.4166 6.11758 10.8825 6.5835 11.4583 6.5835C12.0341 6.5835 12.5 6.11758 12.5 5.5418V4.84297C12.5 2.35684 10.4757 0.333496 7.98945 0.333496C5.86133 0.333496 4.05068 1.78516 3.58682 3.86543L0.701953 16.8486C0.236035 18.9503 0 21.1038 0 23.2502C0 23.826 0.465918 24.2919 1.0417 24.2919H2.18867C2.72002 29.5409 7.11328 33.6669 12.5001 33.6669C18.1548 33.6669 22.7492 29.1307 22.8905 23.5095C23.0998 22.927 23.9322 21.1669 25.0001 21.1669C26.0405 21.1669 26.8624 22.829 27.1094 23.5063C27.249 29.129 31.8444 33.6669 37.5001 33.6669C42.8868 33.6669 47.2801 29.5409 47.8115 24.2919H48.9585C49.5343 24.2919 50.0002 23.826 50.0002 23.2502C50 21.1038 49.764 18.9503 49.2981 16.8486ZM12.5 31.5835C7.904 31.5835 4.1667 27.8451 4.1667 23.2502C4.1667 18.6553 7.9041 14.9169 12.5 14.9169C17.0959 14.9169 20.8333 18.6553 20.8333 23.2502C20.8333 27.8451 17.096 31.5835 12.5 31.5835ZM37.5 31.5835C32.904 31.5835 29.1667 27.8451 29.1667 23.2502C29.1667 18.6553 32.9041 14.9169 37.5 14.9169C42.0959 14.9169 45.8333 18.6553 45.8333 23.2502C45.8333 27.8451 42.096 31.5835 37.5 31.5835Z" fill="black"/>
<path d="M12.5 17.0002C9.05352 17.0002 6.25 19.8038 6.25 23.2502C6.25 23.826 6.71592 24.2919 7.2917 24.2919C7.86748 24.2919 8.3334 23.826 8.3334 23.2502C8.3334 20.9523 10.2031 19.0835 12.5001 19.0835C13.0759 19.0835 13.5418 18.6176 13.5418 18.0418C13.5417 17.4662 13.0758 17.0002 12.5 17.0002Z" fill="black"/>
<path d="M37.5 17.0002C34.0535 17.0002 31.25 19.8038 31.25 23.2502C31.25 23.826 31.7159 24.2919 32.2917 24.2919C32.8675 24.2919 33.3334 23.826 33.3334 23.2502C33.3334 20.9523 35.2031 19.0835 37.5001 19.0835C38.0759 19.0835 38.5418 18.6176 38.5418 18.0418C38.5417 17.4662 38.0758 17.0002 37.5 17.0002Z" fill="black"/>
</svg>
