<svg width="52" height="53" viewBox="0 0 52 53" fill="none" xmlns="http://www.w3.org/2000/svg">
<path d="M26 52.36C40.3594 52.36 52 40.7194 52 26.36C52 12.0006 40.3594 0.359985 26 0.359985C11.6406 0.359985 0 12.0006 0 26.36C0 40.7194 11.6406 52.36 26 52.36Z" fill="#FFD400"/>
<path d="M36.4056 40.0099C36.4056 37.9403 31.7464 32.2723 26.0004 32.2723C20.2544 32.2723 15.5952 37.9455 15.5952 40.0099C15.5952 42.0795 20.2544 40.0099 26.0004 40.0099C31.7464 40.0099 36.4056 42.0795 36.4056 40.0099Z" fill="black"/>
<path d="M34.9494 24.5192C37.0028 24.5192 38.6674 22.8546 38.6674 20.8012C38.6674 18.7478 37.0028 17.0832 34.9494 17.0832C32.896 17.0832 31.2314 18.7478 31.2314 20.8012C31.2314 22.8546 32.896 24.5192 34.9494 24.5192Z" fill="black"/>
<path d="M17.051 24.5192C19.1044 24.5192 20.769 22.8546 20.769 20.8012C20.769 18.7478 19.1044 17.0832 17.051 17.0832C14.9976 17.0832 13.333 18.7478 13.333 20.8012C13.333 22.8546 14.9976 24.5192 17.051 24.5192Z" fill="black"/>
<path d="M31.954 16.2356L39.6552 12.4552C40.1648 12.2056 40.3728 11.5868 40.1232 11.0772C39.8736 10.5676 39.2548 10.3596 38.7452 10.6092L31.044 14.3896C30.5344 14.6392 30.3264 15.258 30.576 15.7676C30.8308 16.2772 31.4496 16.4852 31.954 16.2356Z" fill="black"/>
<path d="M21.3515 14.3948L13.6503 10.6092C13.1407 10.3596 12.5219 10.5728 12.2723 11.0772C12.0227 11.5868 12.2359 12.2056 12.7403 12.4552L20.4415 16.2408C20.9511 16.4904 21.5699 16.2772 21.8195 15.7728C22.0743 15.2632 21.8611 14.6444 21.3515 14.3948Z" fill="black"/>
</svg>
