<svg width="80" height="80" viewBox="0 0 80 80" fill="none" xmlns="http://www.w3.org/2000/svg">
<circle cx="40" cy="40" r="40" fill="#FCFBFD"/>
<path d="M33.6475 33.6539C30.7177 33.6539 28.3206 31.2568 28.3206 28.327C28.3206 25.3971 30.7177 23 33.6475 23C36.5774 23 38.9745 25.3971 38.9745 28.327C38.9745 31.2568 36.5774 33.6539 33.6475 33.6539ZM33.6475 25.6635C32.0494 25.6635 30.984 26.7289 30.984 28.327C30.984 29.9251 32.0494 30.9905 33.6475 30.9905C35.2456 30.9905 36.311 29.9251 36.311 28.327C36.311 26.7289 35.2456 25.6635 33.6475 25.6635Z" fill="#A3A3C8"/>
<path d="M24.3254 46.9714C23.5263 46.9714 22.9937 46.4387 22.9937 45.6396V42.9762C22.9937 39.2473 25.9235 36.3174 29.6524 36.3174H37.6428C38.4419 36.3174 38.9746 36.8501 38.9746 37.6492C38.9746 38.4482 38.4419 38.9809 37.6428 38.9809H29.6524C27.5216 38.9809 25.6571 40.8454 25.6571 42.9762V45.6396C25.6571 46.4387 25.1244 46.9714 24.3254 46.9714Z" fill="#A3A3C8"/>
<rect x="43.6926" y="34.7755" width="3.94266" height="21.6846" rx="1.97133" fill="#A3A3C8"/>
<rect x="56.5061" y="43.6465" width="3.94266" height="21.6846" rx="1.97133" transform="rotate(90 56.5061 43.6465)" fill="#A3A3C8"/>
</svg>
