<svg width="80" height="80" viewBox="0 0 80 80" fill="none" xmlns="http://www.w3.org/2000/svg">
<circle cx="40" cy="40" r="40" fill="#FCFBFD"/>
<path d="M41.2444 27.6266C45.9638 27.7061 51.0109 29.6919 55.2146 33.727C56.9904 35.4295 58.7152 37.1862 60.4495 38.9332C61.1305 39.6174 61.191 40.1871 60.5672 40.7949C58.1646 43.1402 55.8734 45.6319 53.283 47.7513C46.5302 53.279 36.0605 53.769 28.7413 48.9606C26.9019 47.7513 25.2853 46.1888 23.6401 44.7027C22.2876 43.4807 21.0338 42.1442 19.7577 40.8394C19.1594 40.2252 19.1244 39.6652 19.694 39.0987C21.8293 36.9698 23.901 34.7613 26.1604 32.7723C30.0364 29.3578 34.9881 27.6234 41.2444 27.6266ZM21.9948 39.8879C23.6846 41.5904 25.2471 43.2866 26.9337 44.8459C33.1614 50.6058 42.2946 51.6433 49.7061 47.5254C52.1533 46.1666 54.0595 44.1904 56.0134 42.2492C56.7771 41.4918 57.5823 40.779 58.1614 40.238C56.2553 38.2045 54.6132 36.1678 52.6879 34.4526C46.7593 29.1732 37.4798 28.3808 30.5902 32.3236C27.2106 34.2616 24.8239 37.2594 21.9948 39.8879Z" fill="#A3A3C8"/>
<path d="M33.1201 39.9292C33.1297 36.0182 36.2992 32.8837 40.223 32.9059C44.0322 32.9282 47.1731 36.1041 47.1699 39.9324C47.1667 43.7862 43.9813 46.9748 40.1402 46.9748C36.2897 46.9716 33.1106 43.7798 33.1201 39.9292ZM35.335 39.9388C35.3382 42.5801 37.4958 44.7504 40.1243 44.7631C42.7624 44.7758 44.9773 42.5387 44.9519 39.8847C44.9264 37.237 42.772 35.1144 40.1148 35.1272C37.464 35.1367 35.3318 37.2848 35.335 39.9388Z" fill="#A3A3C8"/>
</svg>
