<svg width="80" height="80" viewBox="0 0 80 80" fill="none" xmlns="http://www.w3.org/2000/svg">
<circle cx="40" cy="40" r="40" fill="#FCFBFD"/>
<path d="M61.2183 48.8203C61.2318 48.7929 61.2438 48.7648 61.2533 48.7361C63.9787 42.4458 63.4917 34.7342 59.9519 28.8401C61.8417 26.581 59.387 23.3459 56.7027 24.5976C56.231 24.1156 55.7357 23.6536 55.2225 23.2167C56.2299 20.4781 52.8676 18.2315 50.7737 20.2777C44.6875 17.2044 37.1176 17.2433 31.065 20.3817C28.9119 18.0999 25.2959 20.5464 26.5996 23.4093C25.853 24.0621 25.1463 24.7673 24.4947 25.5131C23.9321 26.157 24.9513 27.0396 25.5101 26.4002C26.1162 25.7064 26.773 25.0502 27.4668 24.442C28.8083 25.4096 30.7535 24.9167 31.4895 23.4397C33.9183 24.1388 36.2377 25.1422 38.3989 26.43C38.218 27.0825 38.2919 27.8112 38.6024 28.4135C36.8235 29.9501 35.2216 31.6883 33.8305 33.5932C32.5463 33.2052 31.1308 33.8547 30.5724 35.0708C27.7404 35.086 24.8996 35.3907 22.1104 35.9802C21.8641 35.5213 21.4908 35.141 21.0381 34.8862C21.5621 32.8427 22.3921 30.8987 23.5101 29.1013C23.9556 28.3849 22.8311 27.6402 22.3652 28.3892C21.1766 30.3001 20.2938 32.3667 19.7354 34.539C16.5058 34.5938 15.9636 39.0616 19.0381 39.9211C18.9928 46.2798 21.7421 52.4619 26.5094 56.6732C25.5149 59.3596 28.7435 61.5754 30.8741 59.6806C37.0922 62.9871 44.9508 62.9875 51.1692 59.6817C53.3362 61.8249 56.807 59.4306 55.5864 56.6288C58.0434 54.4452 59.9521 51.7744 61.2183 48.8203ZM60.3689 47.3126C58.5028 45.4586 56.4606 43.7767 54.2803 42.3004C54.5899 41.3304 54.3208 40.2391 53.5977 39.5231C55.4312 36.4747 56.8705 33.2059 57.8837 29.7913C58.2213 29.7924 58.5459 29.7301 58.8449 29.6174C61.9495 34.8607 62.5173 41.6209 60.3689 47.3126ZM29.3472 54.9334C28.7799 49.3762 29.7755 43.8322 32.2395 38.8221C33.7702 39.2998 35.4247 38.2931 35.722 36.7219C40.3704 37.2949 44.8473 38.6596 49.0487 40.7849C48.8466 41.5703 49.0139 42.4364 49.4953 43.0898C44.7595 49.0895 38.5082 53.6041 31.3538 56.1917C30.9202 55.5052 30.1912 55.025 29.3472 54.9334ZM50.3109 41.4681C50.3109 40.7041 50.9278 40.0827 51.6862 40.0827C53.5107 40.1586 53.5101 42.7778 51.6862 42.8534C50.9278 42.8534 50.3109 42.232 50.3109 41.4681ZM59.2649 27.0577C59.2649 27.8216 58.648 28.4431 57.8896 28.4431C56.065 28.3671 56.0655 25.748 57.8896 25.6723C58.648 25.6723 59.2649 26.2938 59.2649 27.0577ZM55.6725 25.4728C54.7408 26.782 55.1732 28.6745 56.5779 29.4527C55.5965 32.7464 54.205 35.8994 52.4349 38.8404C52.0649 38.7339 51.6541 38.7075 51.2736 38.7657C49.4234 34.8148 46.7313 31.2562 43.4426 28.4137C43.7533 27.811 43.8274 27.0836 43.6462 26.4302C45.7278 25.19 47.9576 24.2126 50.2893 23.5177C51.0643 25.014 53.1432 25.4364 54.4339 24.3164C54.8617 24.6844 55.2758 25.071 55.6725 25.4728ZM39.6472 27.162C39.6472 26.3981 40.2641 25.7766 41.0225 25.7766C42.8471 25.8526 42.8465 28.4717 41.0225 28.5473C40.2641 28.5473 39.6472 27.9259 39.6472 27.162ZM52.6866 20.836C53.4451 20.836 54.062 21.4575 54.062 22.2214C53.9864 24.0593 51.3867 24.0589 51.3113 22.2214C51.3113 21.4575 51.9283 20.836 52.6866 20.836ZM29.0522 23.6067C28.2939 23.6067 27.6769 22.9853 27.6769 22.2213C27.7526 20.3834 30.3523 20.384 30.4277 22.2213C30.4277 22.9853 29.8106 23.6067 29.0522 23.6067ZM31.7733 22.118C31.7663 21.9308 31.7406 21.7486 31.6978 21.5728C37.3411 18.6545 44.391 18.6036 50.0778 21.4371C50.0047 21.6815 49.9647 21.9399 49.9634 22.2075C47.5108 22.933 45.1656 23.9579 42.9762 25.2601C41.9238 24.1715 40.1217 24.1711 39.0689 25.26C36.7874 23.9029 34.3383 22.848 31.7733 22.118ZM39.4949 29.424C40.4065 30.0462 41.6382 30.0463 42.5499 29.4241C45.6898 32.1351 48.2619 35.5287 50.0337 39.2971C49.9136 39.3895 49.8014 39.4917 49.6982 39.6023C45.2688 37.3556 40.5419 35.9272 35.632 35.3525C35.4994 34.9512 35.2769 34.5909 34.988 34.296C36.3057 32.506 37.8179 30.8711 39.4949 29.424ZM33.0467 34.8256C33.8051 34.8256 34.4221 35.4471 34.4221 36.211C34.3464 38.049 31.7467 38.0485 31.6713 36.211C31.6714 35.4471 32.2884 34.8256 33.0467 34.8256ZM18.3354 37.2721C18.3354 36.5082 18.9524 35.8867 19.7108 35.8867C21.5352 35.9627 21.5347 38.5818 19.7108 38.6574C18.9525 38.6575 18.3354 38.0361 18.3354 37.2721ZM20.3863 39.9206C20.3863 39.9206 22.434 39.474 22.434 37.2899C22.434 37.2899 27.6883 36.45 30.3319 36.4206C30.3816 37.0737 30.6605 37.663 31.0882 38.1078C28.4611 43.3931 27.4014 49.2529 28.0114 55.1249C27.7487 55.2344 27.5069 55.384 27.2932 55.566C22.895 51.626 20.3863 45.0244 20.3863 39.9206ZM29.0522 59.036C28.2939 59.036 27.6769 58.4145 27.6769 57.6506C27.6769 56.8867 28.2939 56.2652 29.0522 56.2652C29.8004 56.2652 30.4277 56.9133 30.4277 57.6506C30.4277 58.4145 29.8106 59.036 29.0522 59.036ZM41.0225 60.8226C37.7506 60.8226 34.5151 60.039 31.6233 58.5513C31.7407 58.2149 31.7925 57.8316 31.7696 57.4746C39.1706 54.8069 45.6379 50.1448 50.5372 43.9457C50.9397 44.1345 51.3863 44.2211 51.8301 44.1979C52.1296 45.3095 52.3663 46.4435 52.534 47.5775C52.6624 48.4456 53.9966 48.2517 53.8678 47.3803C53.6897 46.1762 53.4376 44.9719 53.1175 43.7925C53.2787 43.6922 53.4284 43.5752 53.5649 43.4444C55.8145 44.9717 57.9119 46.7249 59.812 48.6652C58.6336 51.2702 56.9185 53.6289 54.7394 55.5778C54.524 55.416 54.2837 55.2859 54.0258 55.1933C54.1583 53.94 54.216 52.6746 54.1966 51.4231C54.1829 50.5424 52.8348 50.5631 52.8485 51.4439C52.8672 52.647 52.8115 53.8634 52.6835 55.0681C51.0935 55.3209 50.0536 56.9696 50.4917 58.5147C47.5818 60.0261 44.3212 60.8226 41.0225 60.8226ZM53.1111 59.1532C52.3528 59.1532 51.7358 58.5317 51.7358 57.7678C51.8115 55.9298 54.4112 55.9305 54.4866 57.7678C54.4866 58.5317 53.8696 59.1532 53.1111 59.1532Z" fill="#A3A3C8"/>
</svg>
