<svg width="80" height="80" viewBox="0 0 80 80" fill="none" xmlns="http://www.w3.org/2000/svg">
<circle cx="40" cy="40" r="40" fill="#FCFBFD"/>
<path d="M56.5333 38.1466C54.304 38.1466 52.48 36.3226 52.48 34.0933C52.48 31.864 54.304 30.04 56.5333 30.04C58.7626 30.04 60.5866 31.864 60.5866 34.0933C60.5866 36.3226 58.7626 38.1466 56.5333 38.1466ZM56.5333 32.0666C55.3173 32.0666 54.5066 32.8773 54.5066 34.0933C54.5066 35.3093 55.3173 36.12 56.5333 36.12C57.7493 36.12 58.56 35.3093 58.56 34.0933C58.56 32.8773 57.7493 32.0666 56.5333 32.0666Z" fill="#A3A3C8"/>
<path d="M63.6266 48.28C63.0186 48.28 62.6133 47.8747 62.6133 47.2667V45.24C62.6133 43.6187 61.1946 42.2 59.5733 42.2H53.4933C52.8853 42.2 52.48 41.7947 52.48 41.1867C52.48 40.5787 52.8853 40.1733 53.4933 40.1733H59.5733C62.4106 40.1733 64.64 42.4027 64.64 45.24V47.2667C64.64 47.8747 64.2346 48.28 63.6266 48.28Z" fill="#A3A3C8"/>
<path d="M24.1066 38.1466C21.8772 38.1466 20.0532 36.3226 20.0532 34.0933C20.0532 31.864 21.8772 30.04 24.1066 30.04C26.3359 30.04 28.1599 31.864 28.1599 34.0933C28.1599 36.3226 26.3359 38.1466 24.1066 38.1466ZM24.1066 32.0666C22.8906 32.0666 22.0799 32.8773 22.0799 34.0933C22.0799 35.3093 22.8906 36.12 24.1066 36.12C25.3226 36.12 26.1332 35.3093 26.1332 34.0933C26.1332 32.8773 25.3226 32.0666 24.1066 32.0666Z" fill="#A3A3C8"/>
<path d="M17.0133 48.28C16.4053 48.28 16 47.8747 16 47.2667V45.24C16 42.4027 18.2293 40.1733 21.0667 40.1733H27.1467C27.7547 40.1733 28.16 40.5787 28.16 41.1867C28.16 41.7947 27.7547 42.2 27.1467 42.2H21.0667C19.4453 42.2 18.0267 43.6187 18.0267 45.24V47.2667C18.0267 47.8747 17.6213 48.28 17.0133 48.28Z" fill="#A3A3C8"/>
<path d="M40.32 39.16C36.8747 39.16 34.24 36.5253 34.24 33.08C34.24 29.6347 36.8747 27 40.32 27C43.7653 27 46.4 29.6347 46.4 33.08C46.4 36.5253 43.7653 39.16 40.32 39.16ZM40.32 29.0267C38.0907 29.0267 36.2667 30.8507 36.2667 33.08C36.2667 35.3093 38.0907 37.1333 40.32 37.1333C42.5493 37.1333 44.3733 35.3093 44.3733 33.08C44.3733 30.8507 42.5493 29.0267 40.32 29.0267Z" fill="#A3A3C8"/>
<path d="M50.4533 52.3333C49.8453 52.3333 49.44 51.928 49.44 51.32V47.2667C49.44 45.6453 48.0213 44.2267 46.4 44.2267H34.24C32.6187 44.2267 31.2 45.6453 31.2 47.2667V51.32C31.2 51.928 30.7947 52.3333 30.1867 52.3333C29.5787 52.3333 29.1733 51.928 29.1733 51.32V47.2667C29.1733 44.4293 31.4027 42.2 34.24 42.2H46.4C49.2373 42.2 51.4667 44.4293 51.4667 47.2667V51.32C51.4667 51.928 51.0613 52.3333 50.4533 52.3333Z" fill="#A3A3C8"/>
</svg>
