<svg xmlns="http://www.w3.org/2000/svg" xmlns:xlink="http://www.w3.org/1999/xlink" viewBox="0 0 610.29 789.62"><defs><style>.cls-1{fill:none;}.cls-2{clip-path:url(#clip-path);}.cls-3{fill:#e0e0e0;}.cls-4{fill:#ebebeb;}.cls-5{fill:#e9505b;}.cls-6{fill:#173953;}.cls-7{fill:#db4a5b;}.cls-8{fill:#f5f4f5;}.cls-9{opacity:0.8;}.cls-10{fill:#fff;}.cls-11{opacity:0.3;}.cls-12{fill:#f8bc9e;}.cls-13{fill:#ec9a6e;}.cls-14{opacity:0.6;}.cls-15{fill:#263239;}.cls-16{fill:#455a64;}.cls-17{fill:#fbfbfb;}</style><clipPath id="clip-path" transform="translate(-185.35 -3.1)"><rect class="cls-1" width="981" height="794"/></clipPath></defs><g id="Layer_2" data-name="Layer 2"><g id="Layer_1-2" data-name="Layer 1"><g class="cls-2"><path class="cls-3" d="M317.19,608.72c-2.94-3.1-7.3-4.27-11.3-5.75a60.64,60.64,0,0,1-27.79-93l-.61-3.12c-1.37-14.51-18.89-24.91-32.28-19.16s-17.93,25.6-8.37,36.59c-15.71,1.3-26.09,19.21-23.88,34.82s13.64,28.42,26.36,37.74a124.75,124.75,0,0,0,72.45,23.93,10.07,10.07,0,0,0,5.14-.92C320.6,617.7,320.12,611.82,317.19,608.72Z" transform="translate(-185.35 -3.1)"/><path class="cls-3" d="M754.94,545.22c3.62-5.86,4.12-13.76.46-19.59s-11.71-8.77-18-5.89a13.15,13.15,0,0,0-22.32-13.91c-4.19,6.46-2,15.13,1.62,21.94s8.52,13.2,9.7,20.81c1.21,7.77-1.77,15.72-6.41,22.06S709.17,582,703,586.91L701.87,588a42.2,42.2,0,0,0,33.79-2.9c5.77-3.19,11.12-8.48,11.5-15.06.21-3.68-1.16-7.37-.61-11C747.38,553.67,752.08,549.86,754.94,545.22Z" transform="translate(-185.35 -3.1)"/><path class="cls-3" d="M438.34,785.9c-5.72-.71-11.47-3.22-14.84-7.9-2.15-3-3.19-6.65-5.06-9.83s-5.13-6.06-8.8-5.7c-5.69.56-9.53,8.42-15.07,7-3.34-.83-4.92-4.75-4.95-8.19s1-6.86.56-10.27c-1.2-9.58-13.51-14.29-22.69-11.29s-23.12,14.06-29.1,21.64c6.29,10.46,19.2,14.53,31,17.5q29.82,7.47,60.15,12.68c4.73.81,9.57,1.58,14.32.84s9.47-3.27,11.66-7.55C449.86,785.74,444.07,786.61,438.34,785.9Z" transform="translate(-185.35 -3.1)"/><path class="cls-3" d="M666.27,712.07c-1.46-8.18-9.62-15.39-17.72-13.51C655.27,693,655.31,681.9,650,675s-14.54-9.87-23.23-9.61-17,3.32-25.13,6.56c4-5-1.83-12.9-8.23-13.32s-12.11,3.65-17.3,7.42-11.18,7.6-17.52,6.61l6,2.37c14.2,2.15,28.52,5.48,40.82,12.9s22.43,19.51,24.55,33.72-5.35,30.11-18.83,35.08a57.16,57.16,0,0,0,47.83-21.59C664,728.57,667.73,720.26,666.27,712.07Z" transform="translate(-185.35 -3.1)"/><path class="cls-3" d="M199.53,499.79c-.21,0-.38-6.14-.38-13.71s.17-13.71.38-13.71.38,6.14.38,13.71S199.74,499.79,199.53,499.79Z" transform="translate(-185.35 -3.1)"/><path class="cls-3" d="M213.71,486.08c0,.21-6.35.38-14.18.38s-14.18-.17-14.18-.38,6.35-.38,14.18-.38S213.71,485.87,213.71,486.08Z" transform="translate(-185.35 -3.1)"/><path class="cls-3" d="M746.43,640.73c-.21,0-.38-6.14-.38-13.71s.17-13.71.38-13.71.38,6.14.38,13.71S746.64,640.73,746.43,640.73Z" transform="translate(-185.35 -3.1)"/><path class="cls-3" d="M760.6,627c0,.21-6.34.39-14.17.39s-14.18-.18-14.18-.39,6.35-.38,14.18-.38S760.6,626.81,760.6,627Z" transform="translate(-185.35 -3.1)"/><path class="cls-3" d="M663.24,170.16c-.21,0-.39-6.14-.39-13.72s.18-13.71.39-13.71.38,6.14.38,13.71S663.45,170.16,663.24,170.16Z" transform="translate(-185.35 -3.1)"/><path class="cls-3" d="M677.41,156.44c0,.22-6.34.39-14.17.39s-14.18-.17-14.18-.39,6.35-.38,14.18-.38S677.41,156.23,677.41,156.44Z" transform="translate(-185.35 -3.1)"/><circle class="cls-3" cx="29.95" cy="367.86" r="8.38"/><path class="cls-3" d="M549.65,727.82a8.38,8.38,0,1,1-8.38-8.38A8.38,8.38,0,0,1,549.65,727.82Z" transform="translate(-185.35 -3.1)"/><path class="cls-3" d="M627.62,569.47a8.38,8.38,0,1,1-8.37-8.38A8.38,8.38,0,0,1,627.62,569.47Z" transform="translate(-185.35 -3.1)"/><path class="cls-3" d="M378.66,152.21a8.38,8.38,0,1,1-8.37-8.38A8.38,8.38,0,0,1,378.66,152.21Z" transform="translate(-185.35 -3.1)"/><circle class="cls-3" cx="228.82" cy="644.82" r="4.19"/><path class="cls-3" d="M317.27,627a4.19,4.19,0,1,1-4.19-4.19A4.19,4.19,0,0,1,317.27,627Z" transform="translate(-185.35 -3.1)"/><path class="cls-3" d="M420.55,160.59a4.19,4.19,0,1,1-4.19-4.19A4.18,4.18,0,0,1,420.55,160.59Z" transform="translate(-185.35 -3.1)"/><path class="cls-3" d="M605.12,387.29a4.19,4.19,0,1,1-4.19-4.19A4.2,4.2,0,0,1,605.12,387.29Z" transform="translate(-185.35 -3.1)"/><path class="cls-4" d="M202.76,148.15s-9.33,4.82,3.74,24.36,21.64,29,21.64,29,2.46,4.6-1.52,5.83-13.1.87-14.32,6.05c-1.27,5.38,3.06,9.81,11.16,13.18S249,238,250.62,238.69s3.26,2.79.69,4.06-22.46,5.76-19.77,15.07,26.81,15,29.43,15.65,3.35,1.67,3.31,3.07-6.87,2.28-12.47,3.79S240,284.56,242,289.8s17,15,50.68,14.29l15.56-1.33,6.89-14.1c12.91-31.07,9.34-48.62,5.19-52.4s-9,1-12.41,5.7-6.75,10.7-8.07,10.23-2-1.51-1.65-4.2,3.84-27.21-3.84-33.12-19.11,11-21.24,12.91-3.43-.42-3.53-2.13-1.21-20.94-1.39-29.71-2.72-14.42-8.19-15.2c-5.28-.76-8.27,7.87-10.86,11.12s-6-.71-6-.71-5.65-11.42-19.08-30.72-21.48-12.17-21.48-12.17" transform="translate(-185.35 -3.1)"/><path class="cls-3" d="M309.46,306.31c-9.81-14.21-26.81-39.77-41.52-61.64s-28-41.64-37.76-55.9l-11.55-16.88c-1.35-2-2.4-3.53-3.13-4.59-.35-.52-.61-.92-.81-1.2s-.26-.42-.26-.42a4.3,4.3,0,0,1,.3.39l.85,1.17,3.21,4.54c2.78,3.95,6.77,9.69,11.67,16.8,9.8,14.21,23.18,34,37.89,55.82s31.66,47.46,41.39,61.72" transform="translate(-185.35 -3.1)"/><path class="cls-3" d="M225,214.4a5,5,0,0,1,1.11.18c.72.14,1.74.37,3,.67,2.52.6,6,1.52,9.8,2.6l9.73,2.81,3,.84a5.47,5.47,0,0,1,1.07.34,4.23,4.23,0,0,1-1.12-.16c-.71-.14-1.74-.37-3-.69-2.52-.62-6-1.59-9.78-2.67l-9.75-2.74-3-.82A4.39,4.39,0,0,1,225,214.4Z" transform="translate(-185.35 -3.1)"/><path class="cls-3" d="M253.66,220.73c-.13,0,1.45-7.26,3.54-16.15s3.87-16.07,4-16-1.45,7.26-3.53,16.15S253.79,220.76,253.66,220.73Z" transform="translate(-185.35 -3.1)"/><path class="cls-3" d="M274.73,255.32a6.22,6.22,0,0,1,.52-1l1.54-2.73c1.3-2.31,3.07-5.5,4.91-9.1s3.39-6.9,4.49-9.31l1.31-2.84a5.94,5.94,0,0,1,.54-1,5.19,5.19,0,0,1-.36,1.1c-.26.69-.66,1.69-1.17,2.91-1,2.45-2.54,5.79-4.38,9.39s-3.67,6.79-5,9c-.69,1.13-1.27,2-1.68,2.66A4.8,4.8,0,0,1,274.73,255.32Z" transform="translate(-185.35 -3.1)"/><path class="cls-3" d="M247.58,255.3a4.92,4.92,0,0,1,1.07-.11l2.89-.11c2.45-.07,5.83-.14,9.56-.18s7.12-.06,9.56-.05l2.9,0a3.83,3.83,0,0,1,1.07.09,4.59,4.59,0,0,1-1.06.1l-2.9.11c-2.45.08-5.83.15-9.56.19s-7.12.06-9.56,0l-2.9,0A4.82,4.82,0,0,1,247.58,255.3Z" transform="translate(-185.35 -3.1)"/><path class="cls-3" d="M262.31,288.2a8.32,8.32,0,0,1,1.36-.12l3.71-.16c3.13-.11,7.46-.23,12.25-.33s9.12-.17,12.25-.2h3.72a6.32,6.32,0,0,1,1.36.07,8.32,8.32,0,0,1-1.36.12l-3.71.16c-3.13.11-7.47.23-12.25.33s-9.12.17-12.26.2h-3.71A6.32,6.32,0,0,1,262.31,288.2Z" transform="translate(-185.35 -3.1)"/><path class="cls-3" d="M296.13,287.24a7.62,7.62,0,0,1,.62-1.32l1.83-3.54c1.54-3,3.65-7.11,5.85-11.74s4.09-8.86,5.44-11.93l1.6-3.65a9.5,9.5,0,0,1,.63-1.31,7.31,7.31,0,0,1-.46,1.39c-.32.88-.82,2.15-1.45,3.7-1.27,3.12-3.11,7.38-5.32,12s-4.37,8.75-6,11.7c-.81,1.47-1.48,2.65-2,3.46A7.46,7.46,0,0,1,296.13,287.24Z" transform="translate(-185.35 -3.1)"/><path class="cls-5" d="M405.61,238.87a1.75,1.75,0,0,1-1.75-1.75V209.31a1.76,1.76,0,0,1,.51-1.23l14.47-14.47V178.4l-15.06-15.06a1.73,1.73,0,0,1-.52-1.23V129.52a1.75,1.75,0,1,1,3.5,0v31.87l15.06,15.06a1.76,1.76,0,0,1,.51,1.23v16.66a1.78,1.78,0,0,1-.51,1.23L407.35,210v27.09A1.74,1.74,0,0,1,405.61,238.87Z" transform="translate(-185.35 -3.1)"/><path class="cls-5" d="M438.52,240.89a1.74,1.74,0,0,1-1.74-1.75V207.62a1.74,1.74,0,0,1,.51-1.24l6.37-6.36V180.37a1.75,1.75,0,0,1,3.49,0v20.37a1.76,1.76,0,0,1-.51,1.23l-6.37,6.37v30.8A1.75,1.75,0,0,1,438.52,240.89Z" transform="translate(-185.35 -3.1)"/><path class="cls-5" d="M473.3,240.89a1.75,1.75,0,0,1-1.75-1.75v-71.6l-15.17-15.17a1.73,1.73,0,0,1-.51-1.23V127.39a1.75,1.75,0,0,1,3.49,0v23l15.18,15.18a1.76,1.76,0,0,1,.51,1.23v72.32A1.75,1.75,0,0,1,473.3,240.89Z" transform="translate(-185.35 -3.1)"/><path class="cls-5" d="M507.89,243.54a1.75,1.75,0,0,1-1.74-1.75v-20l-11.66-11.66a1.75,1.75,0,0,1-.52-1.24V175.43a1.73,1.73,0,0,1,.52-1.23l11-11V142.32a1.75,1.75,0,0,1,3.49,0v21.57a1.73,1.73,0,0,1-.51,1.23l-11,11v32l11.66,11.66a1.8,1.8,0,0,1,.51,1.24v20.73A1.75,1.75,0,0,1,507.89,243.54Z" transform="translate(-185.35 -3.1)"/><path class="cls-5" d="M532.6,244.63a1.76,1.76,0,0,1-1.75-1.75v-10a1.75,1.75,0,0,1,.52-1.24l11.29-11.29V203L532,192.27a1.72,1.72,0,0,1-.51-1.23V161.22a1.75,1.75,0,0,1,3.49,0v29.1L545.64,201a1.78,1.78,0,0,1,.51,1.24V221.1a1.78,1.78,0,0,1-.51,1.24l-11.29,11.29v9.25A1.76,1.76,0,0,1,532.6,244.63Z" transform="translate(-185.35 -3.1)"/><path class="cls-5" d="M554,238.87a1.74,1.74,0,0,1-1.74-1.75V193.54l-7.09-7.08a1.76,1.76,0,0,1-.51-1.24v-8.54a1.74,1.74,0,0,1,.51-1.24l6.15-6.15v-22.8a1.75,1.75,0,1,1,3.49,0V170a1.73,1.73,0,0,1-.51,1.23l-6.15,6.15v7.1l7.09,7.08a1.76,1.76,0,0,1,.51,1.24v44.3A1.75,1.75,0,0,1,554,238.87Z" transform="translate(-185.35 -3.1)"/><path class="cls-6" d="M412.79,127.09a7.78,7.78,0,1,1-7.78-7.77A7.78,7.78,0,0,1,412.79,127.09Z" transform="translate(-185.35 -3.1)"/><path class="cls-6" d="M453.18,176a7.78,7.78,0,1,1-7.78-7.78A7.77,7.77,0,0,1,453.18,176Z" transform="translate(-185.35 -3.1)"/><path class="cls-6" d="M465.39,124.7a7.78,7.78,0,1,1-7.78-7.78A7.77,7.77,0,0,1,465.39,124.7Z" transform="translate(-185.35 -3.1)"/><path class="cls-6" d="M515,140.25a7.78,7.78,0,1,1-7.77-7.78A7.78,7.78,0,0,1,515,140.25Z" transform="translate(-185.35 -3.1)"/><path class="cls-6" d="M541,158.91a7.78,7.78,0,1,1-7.78-7.77A7.78,7.78,0,0,1,541,158.91Z" transform="translate(-185.35 -3.1)"/><path class="cls-6" d="M560.81,142.32a7.78,7.78,0,1,1-7.77-7.77A7.77,7.77,0,0,1,560.81,142.32Z" transform="translate(-185.35 -3.1)"/><path class="cls-5" d="M555.41,65V89.16H421.85a11.25,11.25,0,0,1-11.24-11.24V70.15c0-.45,0-.9,0-1.33,0-1.26.08-2.51.17-3.75a65.13,65.13,0,0,1,.88-6.87c.23-1.26.49-2.51.79-3.75a63.82,63.82,0,0,1,3.65-10.91c.54-1.28,1.12-2.51,1.76-3.75a66.45,66.45,0,0,1,8.41-12.72c1.08-1.29,2.21-2.54,3.41-3.74A63,63,0,0,1,436,17.62h0a68.27,68.27,0,0,1,5.69-4.05A66.94,66.94,0,0,1,466.42,4c1.24-.21,2.49-.37,3.75-.53a71.1,71.1,0,0,1,7.49-.41h15.9c1.8,0,3.56.08,5.32.25,1.25.09,2.49.22,3.72.41a61.57,61.57,0,0,1,36.67,19.57c1.12,1.2,2.17,2.45,3.17,3.74a62.35,62.35,0,0,1,6.12,9.59c.64,1.24,1.24,2.48,1.78,3.75a61.45,61.45,0,0,1,4.89,19.81c.09,1.24.15,2.49.17,3.75C555.41,64.3,555.41,64.64,555.41,65Z" transform="translate(-185.35 -3.1)"/><path class="cls-7" d="M555.42,89.16c0,3.6-1.46,6.26-3.84,9.58-.09.14-.21.29-.32.45l-12.4,12.4a31.92,31.92,0,0,1-22.56,9.35,24.67,24.67,0,0,1-14.67-4.35c-3.82-2.61-6.93-6.07-10.39-9.55l-.64-.64H477.71a17.25,17.25,0,0,1-17.24-17.24Z" transform="translate(-185.35 -3.1)"/><path class="cls-6" d="M544.05,106.4l-5.19,5.19a31.92,31.92,0,0,1-22.56,9.35,24.67,24.67,0,0,1-14.67-4.35c-3.82-2.61-6.94-6.07-10.39-9.55l-.64-.64Z" transform="translate(-185.35 -3.1)"/><path class="cls-6" d="M432.62,77.55h-3.75a8.73,8.73,0,0,0-8.72-8.73h-9.52c0-1.26.08-2.51.17-3.75h9.35A12.49,12.49,0,0,1,432.62,77.55Z" transform="translate(-185.35 -3.1)"/><path class="cls-6" d="M450,36.66a21.25,21.25,0,0,1-1.54,8,19.94,19.94,0,0,1-2,3.75,21.44,21.44,0,0,1-18,9.83h-16.8c.23-1.25.49-2.51.79-3.75h16a17.8,17.8,0,0,0,17.79-17.79Z" transform="translate(-185.35 -3.1)"/><path class="cls-6" d="M555.41,75.67v3.75H530.17A16.09,16.09,0,0,1,514.4,63.35h3.75a12.33,12.33,0,0,0,12.32,12.32Z" transform="translate(-185.35 -3.1)"/><path class="cls-6" d="M433.8,39.79v3.75H416.12c.54-1.28,1.12-2.51,1.76-3.75Z" transform="translate(-185.35 -3.1)"/><path class="cls-6" d="M542.44,27.07H518.61a17.11,17.11,0,0,0-17.09,17.08h-3.75a20.71,20.71,0,0,1,2.62-10.07,19.65,19.65,0,0,1,2.38-3.41,20.72,20.72,0,0,1,15.84-7.34h20.66C540.39,24.53,541.44,25.78,542.44,27.07Z" transform="translate(-185.35 -3.1)"/><path class="cls-6" d="M550.34,40.41H523.18V36.66h25.38C549.2,37.9,549.8,39.14,550.34,40.41Z" transform="translate(-185.35 -3.1)"/><path class="cls-6" d="M470.19,61.48v3.74A9.75,9.75,0,0,0,460.45,75v14.2H456.7V75a2.82,2.82,0,0,1,0-.41,12.79,12.79,0,0,1,.62-3.69A13.51,13.51,0,0,1,470.19,61.48Z" transform="translate(-185.35 -3.1)"/><path class="cls-6" d="M481.63,24.72v3.74a15.22,15.22,0,0,1-15.21-15.21V4c1.24-.21,2.49-.37,3.75-.52v9.73A11.47,11.47,0,0,0,481.63,24.72Z" transform="translate(-185.35 -3.1)"/><path class="cls-6" d="M502.6,3.76a15.22,15.22,0,0,1-15.13,13.75V13.76A11.48,11.48,0,0,0,498.88,3.35C500.13,3.44,501.37,3.57,502.6,3.76Z" transform="translate(-185.35 -3.1)"/><path class="cls-6" d="M464.55,39.94H460.8a12.89,12.89,0,0,0-12.88-12.87H426.29c1.08-1.29,2.21-2.54,3.41-3.74h18.22A16.64,16.64,0,0,1,464.55,39.94Z" transform="translate(-185.35 -3.1)"/><path class="cls-6" d="M503.62,34.44h-.34A12.3,12.3,0,0,1,491,22.15h3.75a8.55,8.55,0,0,0,8.54,8.54h.34Z" transform="translate(-185.35 -3.1)"/><path class="cls-6" d="M458.77,74.74a10.6,10.6,0,0,1-10.59-10.59V57.58h3.74v6.57A6.85,6.85,0,0,0,458.77,71Z" transform="translate(-185.35 -3.1)"/><path class="cls-6" d="M498.48,106.4h-3.74V86.22a4.93,4.93,0,0,0-4.93-4.92,8.67,8.67,0,0,1-8.66-8.67V65.22h3.74v7.41a4.93,4.93,0,0,0,4.92,4.92,8.68,8.68,0,0,1,8.67,8.67Z" transform="translate(-185.35 -3.1)"/><path class="cls-6" d="M496.61,97.06V93.31a8.75,8.75,0,0,0,8.74-8.74v-2h3.74v2A12.5,12.5,0,0,1,496.61,97.06Z" transform="translate(-185.35 -3.1)"/><path class="cls-6" d="M492.47,62.1h-3.74A13.75,13.75,0,0,0,475,48.37H445.52V44.62H475A17.5,17.5,0,0,1,492.47,62.1Z" transform="translate(-185.35 -3.1)"/><path class="cls-6" d="M501.61,54.6H487.47V50.85h14.14a10,10,0,0,0,10-10h3.75A13.74,13.74,0,0,1,501.61,54.6Z" transform="translate(-185.35 -3.1)"/><path class="cls-6" d="M543.27,92.85a13.13,13.13,0,0,1-13.11-13.11V77.55h3.75v2.19a9.37,9.37,0,0,0,9.36,9.36Z" transform="translate(-185.35 -3.1)"/><path class="cls-6" d="M529.54,51.65h-3.28V47.9h3.28a9.37,9.37,0,0,0,9.36-9.36h3.75A13.13,13.13,0,0,1,529.54,51.65Z" transform="translate(-185.35 -3.1)"/><path class="cls-6" d="M555.39,64h-19V60.22h18.82C555.32,61.46,555.38,62.71,555.39,64Z" transform="translate(-185.35 -3.1)"/><path class="cls-6" d="M460,19.34h-3.74a5.78,5.78,0,0,0-5.77-5.77h-8.84a69.32,69.32,0,0,1,6.69-3.74h2.15A9.52,9.52,0,0,1,460,19.34Z" transform="translate(-185.35 -3.1)"/><path class="cls-6" d="M421.63,89.16V100a1.86,1.86,0,0,0,1.93,1.86h0a1.85,1.85,0,0,0,1.78-1.85V89.16Z" transform="translate(-185.35 -3.1)"/><path class="cls-6" d="M428.81,89.16V100a1.87,1.87,0,0,0,1.93,1.86h0a1.85,1.85,0,0,0,1.77-1.85V89.16Z" transform="translate(-185.35 -3.1)"/><path class="cls-6" d="M436,89.16V100a1.87,1.87,0,0,0,1.93,1.86h0a1.86,1.86,0,0,0,1.78-1.85V89.16Z" transform="translate(-185.35 -3.1)"/><path class="cls-6" d="M443.18,89.16V100a1.86,1.86,0,0,0,1.93,1.86h0a1.85,1.85,0,0,0,1.78-1.85V89.16Z" transform="translate(-185.35 -3.1)"/><path class="cls-6" d="M450.36,89.16V100a1.87,1.87,0,0,0,1.93,1.86h0A1.85,1.85,0,0,0,454.1,100V89.16Z" transform="translate(-185.35 -3.1)"/><path class="cls-8" d="M708.27,428.58c-16.59-14.47-18.16-38.19-15.19-59,.49-3.48.51-7.2,2.5-10.09s6.09-4.56,9.06-2.75c2.46,1.5,3.27,4.64,4.45,7.29a20.47,20.47,0,0,0,7.35,8.7c2.1,1.4,4.77,2.4,7.1,1.43,3.19-1.34,4-5.46,4.35-8.94q1-9.72,2-19.44c.35-3.47.72-7,2.16-10.2s4.15-6,7.55-6.55,7.29,1.77,7.62,5.25a31.76,31.76,0,0,1-.37,4.33c-.06,1.46.44,3.12,1.77,3.67s2.84-.28,4-1.18c4-3.12,6.88-7.38,9.64-11.62s5.46-8.61,9.12-12.09,8.5-6,13.5-5.77,10,3.9,10.71,8.92-2.66,9.69-6.2,13.32a77.85,77.85,0,0,1-17.8,13.65,6.45,6.45,0,0,0-3,2.61c-1,2.24,1,4.77,3.15,5.78,2.5,1.14,5.34,1.18,8,1.79s5.48,2.12,6.23,4.79c1,3.7-2.33,7.1-5.52,9.23a66.66,66.66,0,0,1-20.88,9.22c-2.65.66-5.43,1.19-7.68,2.77s-3.84,4.56-2.86,7.14,4.1,3.71,6.83,3.5,5.28-1.4,7.93-2.09c5-1.29,11.1-.29,13.71,4.16,1.72,2.93,1.49,6.73.12,9.85a25.5,25.5,0,0,1-6.19,8,67.12,67.12,0,0,1-30.68,17c-11.48,2.65-21.85,2.58-32.43-2.63" transform="translate(-185.35 -3.1)"/><path class="cls-3" d="M715.09,416.05a315,315,0,0,1,16-32.18c1.56-2.77,3.11-5.52,4.62-8.22s3-5.37,4.67-7.89a158.28,158.28,0,0,1,10.24-13.95c3.48-4.28,6.93-8.22,10.18-11.87s6.37-7,9.33-9.93a124.76,124.76,0,0,1,15-12.77c1.88-1.36,3.37-2.37,4.4-3l1.16-.76a3.73,3.73,0,0,1,.41-.24,2.39,2.39,0,0,1-.37.3l-1.13.81c-1,.7-2.47,1.74-4.32,3.14a129.18,129.18,0,0,0-14.81,12.89c-2.94,2.94-6,6.29-9.25,10s-6.67,7.61-10.12,11.89a158.3,158.3,0,0,0-10.17,13.92c-1.63,2.51-3.12,5.16-4.64,7.86l-4.62,8.22a321.69,321.69,0,0,0-16,32.09" transform="translate(-185.35 -3.1)"/><path class="cls-3" d="M740.53,367.76a6.34,6.34,0,0,1-.18-1.52c-.08-1-.15-2.4-.21-4.16-.11-3.51-.11-8.36-.09-13.72s0-10.19-.22-13.69c-.08-1.75-.16-3.17-.22-4.14a7.14,7.14,0,0,1,0-1.53,5.93,5.93,0,0,1,.28,1.5c.15,1,.3,2.39.44,4.14.29,3.5.42,8.36.4,13.72s-.07,10.06-.09,13.71v4.16A8.08,8.08,0,0,1,740.53,367.76Z" transform="translate(-185.35 -3.1)"/><path class="cls-3" d="M786.09,364.22a9.51,9.51,0,0,1-1.81,0c-1.16,0-2.83-.07-4.9-.05-4.14,0-9.85.2-16.15.7s-12,1.21-16.07,1.84c-2,.3-3.7.59-4.84.78a10.94,10.94,0,0,1-1.79.24,8.65,8.65,0,0,1,1.74-.49c1.13-.27,2.77-.62,4.82-1,4.09-.75,9.78-1.53,16.09-2a157.47,157.47,0,0,1,16.21-.51c2.07,0,3.75.15,4.91.25A10.89,10.89,0,0,1,786.09,364.22Z" transform="translate(-185.35 -3.1)"/><path class="cls-3" d="M715.73,415.29a1.94,1.94,0,0,1-.25-.58c-.16-.46-.36-1-.59-1.7-.51-1.48-1.18-3.63-2-6.31-1.6-5.34-3.59-12.8-5.66-21.06s-4-15.73-5.48-21.1L700,358.18l-.48-1.74a2.32,2.32,0,0,1-.12-.61,2.58,2.58,0,0,1,.25.58l.59,1.69c.5,1.48,1.18,3.63,2,6.31,1.6,5.35,3.58,12.8,5.66,21.07s4,15.72,5.47,21.1c.74,2.61,1.34,4.76,1.79,6.35.19.7.34,1.27.47,1.74A2.76,2.76,0,0,1,715.73,415.29Z" transform="translate(-185.35 -3.1)"/><path class="cls-3" d="M777.13,402.56a2.86,2.86,0,0,1-.61.18l-1.79.39-6.58,1.37c-5.55,1.16-13.2,2.86-21.65,4.74s-16.13,3.51-21.71,4.55c-2.79.53-5,.93-6.62,1.17l-1.81.28a2.71,2.71,0,0,1-.63.05s.21-.09.61-.18l1.79-.39,6.57-1.38c5.56-1.16,13.21-2.85,21.66-4.74s16.13-3.5,21.71-4.55c2.79-.52,5-.93,6.62-1.17l1.8-.27A1.83,1.83,0,0,1,777.13,402.56Z" transform="translate(-185.35 -3.1)"/><path class="cls-3" d="M580.38,179.84c2.67-15.33,10-37.75,18.74-50.62S621.38,106.13,636.8,104s32.43,5.09,39.38,19c3.72,7.46,4.4,16,7.12,24s8.67,15.77,17,16.41c7.36.56,14.46-4.75,21.71-3.34,9.44,1.84,13.09,13.48,13.14,23.09s-1.32,20.3,4.59,27.89c4.84,6.2,13.12,8.34,19.8,12.51,14.44,9,20.62,27.61,19.16,44.56s-9.28,32.66-17.57,47.52a370.84,370.84,0,0,0-28-70.5c-6.69-12.83-18.92-23.75-29.74-33.36-16.62-14.76-53.1-21.8-75.15-24.51s-26-3.31-47.8-7.4" transform="translate(-185.35 -3.1)"/><path class="cls-5" d="M433.29,197.91c-54.59,4-114.17,11.19-157.87,28l13.8,93.38s84.69-30.31,153.6-28.2Z" transform="translate(-185.35 -3.1)"/><g class="cls-9"><path class="cls-10" d="M433.29,197.91c-54.59,4-114.17,11.19-157.87,28l13.8,93.38s84.69-30.31,153.6-28.2Z" transform="translate(-185.35 -3.1)"/></g><path class="cls-5" d="M429.35,278.73a2.88,2.88,0,0,1-.52.1l-1.55.21-6,.74c-2.59.31-5.75.69-9.42,1.23s-7.84,1.05-12.44,1.81c-18.42,2.85-43.76,7.55-71.3,14.67-9.57,2.47-18.79,5-27.23,7.66l-.42.14-.06-.44c-2.95-21.41-5.81-39.87-8-53-1.12-6.5-2-11.7-2.63-15.32-.31-1.75-.55-3.12-.72-4.1-.07-.44-.13-.78-.17-1.06a1.41,1.41,0,0,1,0-.36,1.85,1.85,0,0,1,.1.35c.06.27.14.61.23,1l.84,4.07c.71,3.56,1.69,8.76,2.85,15.29,2.32,13.08,5.27,31.53,8.27,52.94l-.48-.3c8.46-2.67,17.69-5.23,27.27-7.7a694.92,694.92,0,0,1,71.41-14.46c4.6-.73,8.8-1.22,12.47-1.71s6.84-.83,9.44-1.09l6-.6,1.56-.14A2.65,2.65,0,0,1,429.35,278.73Z" transform="translate(-185.35 -3.1)"/><path class="cls-5" d="M431.2,256s-.2-.65-.63-1.86a19.7,19.7,0,0,0-2.81-4.83,24.55,24.55,0,0,0-6.62-5.8c-.72-.48-1.55-.82-2.36-1.25a21.59,21.59,0,0,0-2.67-1,14.7,14.7,0,0,0-6.07-.59,12.77,12.77,0,0,0-6.18,2.43,20.66,20.66,0,0,0-4.95,5.38c-2.87,4.25-4.74,9.43-6.94,14.81a18.53,18.53,0,0,1-5.13,7.36,9.71,9.71,0,0,1-4.26,2,8.59,8.59,0,0,1-4.8-.55c-6.22-2.47-9-9.63-15.26-11.8a12.3,12.3,0,0,0-9.32.76,11.65,11.65,0,0,0-3.7,2.85A19.09,19.09,0,0,0,347,268c-1.4,2.77-2.46,5.85-4.83,8a7.12,7.12,0,0,1-4.23,1.9,8.17,8.17,0,0,1-4.43-.95,15.9,15.9,0,0,1-6.1-6,51.43,51.43,0,0,1-3.23-7.35A34.29,34.29,0,0,0,321,257a13.16,13.16,0,0,0-4.88-4.53,12.63,12.63,0,0,0-11.19-.33,18.84,18.84,0,0,0-7.11,5.12,13.9,13.9,0,0,0-2.66,4.87c-.38,1.23-.43,1.91-.49,1.9A9,9,0,0,1,295,262a13.31,13.31,0,0,1,2.58-5,19.14,19.14,0,0,1,7.17-5.32,13.05,13.05,0,0,1,11.61.24,13.76,13.76,0,0,1,5.12,4.68,35.16,35.16,0,0,1,3.3,6.74,50.67,50.67,0,0,0,3.21,7.23,15.23,15.23,0,0,0,5.83,5.71,7.62,7.62,0,0,0,4.05.87,6.44,6.44,0,0,0,3.81-1.74c2.18-2,3.24-5,4.65-7.8a18.94,18.94,0,0,1,2.56-4.12,12.51,12.51,0,0,1,3.92-3,13,13,0,0,1,9.91-.81c3.35,1.1,5.74,3.68,8,6s4.49,4.67,7.34,5.83a7.71,7.71,0,0,0,4.38.52,9,9,0,0,0,3.94-1.88,17.89,17.89,0,0,0,4.95-7.07c2.19-5.31,4.11-10.58,7.05-14.88a21,21,0,0,1,5.13-5.5,13.28,13.28,0,0,1,6.47-2.5,15.21,15.21,0,0,1,6.27.66,21.87,21.87,0,0,1,2.72,1,25.61,25.61,0,0,1,2.39,1.31,24.39,24.39,0,0,1,6.64,6,19.16,19.16,0,0,1,2.72,5,14.52,14.52,0,0,1,.39,1.42A3,3,0,0,1,431.2,256Z" transform="translate(-185.35 -3.1)"/><path class="cls-5" d="M286.56,243.77c0,.21-.67.52-1.59.69s-1.69.15-1.73-.06.67-.52,1.59-.69S286.52,243.56,286.56,243.77Z" transform="translate(-185.35 -3.1)"/><path class="cls-5" d="M289,260.83c.09.19-.44.63-1.19,1s-1.43.47-1.52.28.44-.63,1.19-1S288.88,260.63,289,260.83Z" transform="translate(-185.35 -3.1)"/><path class="cls-5" d="M292,279.46c.07.2-.48.57-1.23.84s-1.42.31-1.49.11.49-.58,1.24-.84S291.92,279.26,292,279.46Z" transform="translate(-185.35 -3.1)"/><path class="cls-5" d="M295.61,297.78c.06.2-.56.58-1.4.84s-1.55.31-1.62.11.56-.58,1.39-.84S295.54,297.58,295.61,297.78Z" transform="translate(-185.35 -3.1)"/><path class="cls-5" d="M398.54,209.77a8.06,8.06,0,0,1,1.78-.4c1.18-.2,2.9-.46,5.08-.77,4.38-.61,10.61-1.42,18.05-2.34l.35,0,0,.35c.58,6.27,1.25,13.49,1.95,21.14l0,.32,0,.37-.37,0-24.4,3-.33,0,0-.32c-.69-6.4-1.26-11.74-1.67-15.59-.17-1.79-.31-3.22-.42-4.31a11,11,0,0,1-.09-1.48,13.89,13.89,0,0,1,.27,1.57c.15,1.09.34,2.54.59,4.35.48,3.79,1.15,9.07,2,15.38l-.36-.28,24.38-3.11-.33.42,0-.32c-.68-7.66-1.31-14.88-1.87-21.15l.38.31Z" transform="translate(-185.35 -3.1)"/><path class="cls-5" d="M421.21,213.49c0,.23-4.2.22-9.33.78s-9.22,1.4-9.28,1.18,4-1.41,9.2-1.95S421.22,213.29,421.21,213.49Z" transform="translate(-185.35 -3.1)"/><path class="cls-5" d="M421.47,219c0,.22-3.91.37-8.7.84s-8.66,1.06-8.71.84,3.79-1.14,8.63-1.6S421.47,218.76,421.47,219Z" transform="translate(-185.35 -3.1)"/><path class="cls-5" d="M415.63,223.74c0,.21-2.2.66-5,1s-5,.46-5.06.25,2.19-.66,5-1S415.6,223.53,415.63,223.74Z" transform="translate(-185.35 -3.1)"/><path class="cls-5" d="M699.34,225.38c-53.44-16.29-98.53-30.19-159.07-29.81L531,290.72c62.88,5.56,83.89,9.68,142,30.69Z" transform="translate(-185.35 -3.1)"/><g class="cls-9"><path class="cls-10" d="M699.34,225.38c-53.44-16.29-98.53-30.19-159.07-29.81L531,290.72c62.88,5.56,83.89,9.68,142,30.69Z" transform="translate(-185.35 -3.1)"/></g><path class="cls-5" d="M578.35,241.74l2.36-20.19a23.72,23.72,0,0,0-16.48,4.56,24.82,24.82,0,0,0-10.13,20c0,1,0,2,.08,3a.17.17,0,0,0,0,.07h0l23.58-2.65Z" transform="translate(-185.35 -3.1)"/><path class="cls-5" d="M602.72,238.44c-2.33-7.49-7.93-13.95-16.79-16l-.72-.16-.46-.09c-.45-.08-.91-.16-1.37-.21h-.13l-2.36,20.19-.55,4.74L602.6,255h0a25.55,25.55,0,0,0,1.15-5.16A27.62,27.62,0,0,0,602.72,238.44Z" transform="translate(-185.35 -3.1)"/><g class="cls-11"><path d="M602.72,238.44c-2.33-7.49-7.93-13.95-16.79-16l-.72-.16-.46-.09c-.45-.08-.91-.16-1.37-.21h-.13l-2.36,20.19-.55,4.74L602.6,255h0a25.55,25.55,0,0,0,1.15-5.16A27.62,27.62,0,0,0,602.72,238.44Z" transform="translate(-185.35 -3.1)"/></g><path class="cls-5" d="M578.68,249.15l-23.57,2.65c1,11.42,9.31,20.89,20.51,22.27s21.68-5.86,25.35-16.79l-22.26-8.13" transform="translate(-185.35 -3.1)"/><path class="cls-5" d="M678.69,243.52a12.66,12.66,0,0,1-2.09-.84c-1.31-.6-3.22-1.43-5.6-2.43a168.26,168.26,0,0,0-38.6-11c-2.54-.41-4.6-.71-6-.9a12.68,12.68,0,0,1-2.22-.38,12.73,12.73,0,0,1,2.25.09c1.44.09,3.52.31,6.08.66a141.46,141.46,0,0,1,19.76,4.14,143.11,143.11,0,0,1,19,6.91c2.35,1.06,4.24,2,5.51,2.65A12.93,12.93,0,0,1,678.69,243.52Z" transform="translate(-185.35 -3.1)"/><path class="cls-5" d="M677.07,253.45a12.66,12.66,0,0,1-2.09-.84c-1.31-.6-3.22-1.43-5.6-2.42a170.94,170.94,0,0,0-19-6.67,174.23,174.23,0,0,0-19.63-4.35c-2.54-.41-4.6-.71-6-.89a12,12,0,0,1-2.22-.39,12.73,12.73,0,0,1,2.25.09c1.44.1,3.52.32,6.08.66a142.38,142.38,0,0,1,38.74,11.05c2.35,1.06,4.24,2,5.51,2.65A12.93,12.93,0,0,1,677.07,253.45Z" transform="translate(-185.35 -3.1)"/><path class="cls-5" d="M675.45,263.38a11.39,11.39,0,0,1-2.08-.84c-1.32-.6-3.23-1.43-5.61-2.42a175.66,175.66,0,0,0-19-6.67,172.28,172.28,0,0,0-19.64-4.34c-2.54-.41-4.6-.72-6-.9a11.5,11.5,0,0,1-2.21-.39,14,14,0,0,1,2.24.09c1.44.1,3.52.32,6.08.66A142.38,142.38,0,0,1,668,259.62c2.36,1.06,4.24,2,5.52,2.65A12.41,12.41,0,0,1,675.45,263.38Z" transform="translate(-185.35 -3.1)"/><path class="cls-5" d="M672.21,273.31a11.45,11.45,0,0,1-2-.84c-1.27-.59-3.12-1.42-5.42-2.41a164.13,164.13,0,0,0-18.39-6.66A161.23,161.23,0,0,0,627.32,259c-2.48-.41-4.48-.71-5.87-.9a12.73,12.73,0,0,1-2.15-.38,11.24,11.24,0,0,1,2.18.08c1.4.1,3.43.32,5.92.66A135.05,135.05,0,0,1,665,269.56c2.28,1.06,4.1,2,5.34,2.65A12.7,12.7,0,0,1,672.21,273.31Z" transform="translate(-185.35 -3.1)"/><path class="cls-5" d="M665.17,281.24a11,11,0,0,1-1.82-.73l-4.86-2.16a118.6,118.6,0,0,0-33.61-9.59l-5.27-.73a9.81,9.81,0,0,1-1.93-.34,8.37,8.37,0,0,1,2,.05c1.26.07,3.07.24,5.31.48a102.18,102.18,0,0,1,33.76,9.64c2,1,3.67,1.78,4.77,2.38A9.24,9.24,0,0,1,665.17,281.24Z" transform="translate(-185.35 -3.1)"/><path class="cls-5" d="M641.43,282.36a25,25,0,0,1-3.81-.79c-2.32-.54-5.55-1.24-9.14-1.86s-6.87-1.07-9.24-1.4a20.38,20.38,0,0,1-3.83-.67,18.11,18.11,0,0,1,3.89.13c2.39.2,5.69.56,9.31,1.19a85.72,85.72,0,0,1,9.15,2.08A16.29,16.29,0,0,1,641.43,282.36Z" transform="translate(-185.35 -3.1)"/><path class="cls-5" d="M549.55,206.84s.4,0,1.23-.06l3.67-.12c3.25-.08,7.95,0,14,.31a222.19,222.19,0,0,1,49,8.78l.27.08-.05.28c-3.69,21.09-8.06,46.16-12.75,73q-.28,1.63-.57,3.24l-.07.41-.4-.11a325.12,325.12,0,0,0-32.74-6.75c-10.54-1.62-20.63-2.77-30-3.36l-.36,0,0-.36c2.58-22.5,4.74-41.36,6.26-54.62.77-6.56,1.37-11.74,1.79-15.31.22-1.74.38-3.08.49-4,.06-.43.11-.77.14-1a1.48,1.48,0,0,1,.06-.34s0,.14,0,.38-.06.61-.1,1.06c-.1.95-.24,2.32-.41,4.08-.38,3.6-.93,8.8-1.63,15.4-1.43,13.23-3.47,32-5.91,54.47l-.31-.38c9.41.57,19.5,1.7,30.08,3.31a318.64,318.64,0,0,1,32.81,6.74l-.47.3c.18-1.06.37-2.14.57-3.23,4.72-26.82,9.14-51.89,12.85-73l.22.37a227.3,227.3,0,0,0-48.84-9c-6-.4-10.72-.5-13.9-.49h-3.66C550,206.86,549.55,206.84,549.55,206.84Z" transform="translate(-185.35 -3.1)"/><polyline class="cls-5" points="305.83 398.18 357.95 409.72 365.91 398.18 364.63 383.32 356.71 376.09 329.41 376.09 303.92 399.04"/><g class="cls-11"><polyline points="305.83 398.18 357.95 409.72 365.91 398.18 364.63 383.32 356.71 376.09 329.41 376.09 303.92 399.04"/></g><path class="cls-12" d="M570.66,294l65.78-8.86,10.36-2.92s23.71-5.21,25.92-6c2.56-.91,3.61.1,3.89,1.07.42,1.51-1,3.19-3.19,4-.75.3-12.78,4.46-12.78,4.46a30.3,30.3,0,0,1,4.06,1.18c2.88,1,5.64,4.68,7,9s1.39,5.66-.26,6.28a2.25,2.25,0,0,1-1.91-.27,4.42,4.42,0,0,1-2-2.47C665.26,292.56,661,292,661,292l-1.36.38s4.46,3.11,4.38,6.87a4.23,4.23,0,0,1-.35,1.61,5.68,5.68,0,0,1-6.34,7.48,2.36,2.36,0,0,1-2.11-1.67,3,3,0,0,1,.31-1.47,5.23,5.23,0,0,0,.23-.77l-3.94.54s-8.93.73-12.78,1.49L577.39,325a16,16,0,0,1-20-11h0A16,16,0,0,1,570.66,294Z" transform="translate(-185.35 -3.1)"/><path class="cls-12" d="M638,286.77c.1,1.38,1.48,2.34,2.83,2.63s2.76.09,4.13.28c4.1.55,7.29,4.28,11.41,4.64.57,0,1.3-.07,1.47-.63s-.28-1-.68-1.34l-10.27-9.07" transform="translate(-185.35 -3.1)"/><path class="cls-13" d="M646.86,283.28a5.31,5.31,0,0,1,1.21.86c.75.6,1.81,1.48,3.11,2.58l4.55,3.91,1.3,1.14c.39.39,1.07.73,1.19,1.67a1.16,1.16,0,0,1-.7,1.09,2.45,2.45,0,0,1-1.11.18,8.9,8.9,0,0,1-2-.39c-2.59-.84-4.58-2.41-6.58-3.34a10.28,10.28,0,0,0-2.93-1c-.95-.15-1.89-.12-2.75-.18a4.78,4.78,0,0,1-3.75-1.62c-.61-.83-.48-1.46-.45-1.44a4,4,0,0,0,.68,1.25,4.71,4.71,0,0,0,3.54,1.26,28.07,28.07,0,0,1,2.82.08,10.67,10.67,0,0,1,3.15,1c2.09.94,4.11,2.47,6.5,3.24a8.36,8.36,0,0,0,1.79.36c.57,0,1.06-.16,1-.46s-.48-.76-.92-1.14l-1.29-1.16-4.43-4c-1.26-1.16-2.26-2.1-3-2.77A6.17,6.17,0,0,1,646.86,283.28Z" transform="translate(-185.35 -3.1)"/><path class="cls-13" d="M659.47,292.26a5.89,5.89,0,0,1,2.59,0,4.39,4.39,0,0,1,2.26,1.55,11.25,11.25,0,0,1,1.61,3.07,18.33,18.33,0,0,0,1.5,3.28,5.69,5.69,0,0,0,2.15,2.07,2.24,2.24,0,0,0,2,.05,1.41,1.41,0,0,0,.58-.46s-.24.12-.66.28a2.13,2.13,0,0,1-1.77-.18,5.57,5.57,0,0,1-1.92-2,19.2,19.2,0,0,1-1.43-3.21,10.84,10.84,0,0,0-1.73-3.19,4.55,4.55,0,0,0-2.52-1.6,4,4,0,0,0-2,.07A1.6,1.6,0,0,0,659.47,292.26Z" transform="translate(-185.35 -3.1)"/><path class="cls-13" d="M674.25,280.94a15.63,15.63,0,0,0-2.4.81l-5.71,2.11-5.75,2a14.42,14.42,0,0,0-2.37.9,11.38,11.38,0,0,0,2.48-.56c1.5-.42,3.56-1.07,5.81-1.88s4.25-1.61,5.68-2.25A11.34,11.34,0,0,0,674.25,280.94Z" transform="translate(-185.35 -3.1)"/><path class="cls-13" d="M657.73,295.93s.18.23.52.6a2.33,2.33,0,0,1,.74,1.81,1.26,1.26,0,0,1-.77,1,7,7,0,0,1-1.59.44,2.81,2.81,0,0,0-1.78.95,2.43,2.43,0,0,0-.3,2.16,2.8,2.8,0,0,0,1.48,1.59,3.47,3.47,0,0,0,2,.29,11.32,11.32,0,0,0,3.05-1.14,6.31,6.31,0,0,0,1.75-1.31c.35-.4.44-.68.41-.69s-.18.22-.55.55a7.62,7.62,0,0,1-1.78,1.14,12.07,12.07,0,0,1-3,1,2.71,2.71,0,0,1-2.91-1.58,2,2,0,0,1,.22-1.71,2.4,2.4,0,0,1,1.48-.79,6.83,6.83,0,0,0,1.68-.52,1.64,1.64,0,0,0,.94-1.31,2.46,2.46,0,0,0-1-2A2,2,0,0,0,657.73,295.93Z" transform="translate(-185.35 -3.1)"/><path class="cls-13" d="M656.33,304.13s-.29,0-.66.31a2.23,2.23,0,0,0-.73,1.83,3,3,0,0,0,1.74,2.34,4.87,4.87,0,0,0,3.57.05,5.89,5.89,0,0,0,2.84-2.17,5.53,5.53,0,0,0,1-2.75,5.4,5.4,0,0,0-.22-1.94c-.14-.43-.27-.65-.3-.64a9.31,9.31,0,0,1,.16,2.55,5.39,5.39,0,0,1-3.61,4.47,4.44,4.44,0,0,1-3.21,0,2.61,2.61,0,0,1-1.58-1.95,2.13,2.13,0,0,1,.52-1.65C656.1,304.26,656.34,304.17,656.33,304.13Z" transform="translate(-185.35 -3.1)"/><path class="cls-13" d="M645.38,298.72a2.09,2.09,0,0,0-.43-1.14,4.77,4.77,0,0,0-2.39-1.95l0,.44a14.3,14.3,0,0,0,1.51-.83,10.91,10.91,0,0,0,4.12-4.25,27.74,27.74,0,0,1-4.39,3.82c-.5.31-1,.59-1.45.83l-.51.26.54.18a5.06,5.06,0,0,1,2.31,1.68C645.15,298.33,645.32,298.75,645.38,298.72Z" transform="translate(-185.35 -3.1)"/><path class="cls-13" d="M665.87,291.7c-.1-.1-.8.67-.87,1.89s.5,2.06.6,2-.18-.89-.1-1.95S666,291.78,665.87,291.7Z" transform="translate(-185.35 -3.1)"/><path class="cls-12" d="M358.89,314.59S349.28,299,347.58,297.7s-16.91-6.89-18.21-6.48-19.73,3.55-17.61,5.74,15-.18,15-.18l1.72.86s-11.1,1.77-13.44,3.12c-2.15,1.24-1.41,3.88.62,3.67s11.68-2.08,12.26-1.69-10.5,2.61-11.69,3.31c-1.61.95-1.77,3.8.26,3.66,1.19-.08,11.63-2.78,11.63-2.78s-8.28,3.19-9,3.92c-1.25,1.18-.26,3,1.53,2.59,1.23-.27,7.08-3.06,8.73-3.42,0,0,1.54.41,2.94,3.53.65,1.45,3.62,10.53,9.06,10.41,4.81-.11,9.54,3.86,9.54,3.86Z" transform="translate(-185.35 -3.1)"/><path class="cls-13" d="M311.79,297a8.57,8.57,0,0,0,3.36.93,20.47,20.47,0,0,0,3.8.16c1.41-.16,2.95-.38,4.57-.6L327,297h-.21c4.54,1.62,7.88,2.67,7.95,2.49s-3.15-1.55-7.67-3.27l-.09,0-.12,0-3.41.46-4.52.66a24,24,0,0,1-3.68,0C313.11,297.18,311.83,296.88,311.79,297Z" transform="translate(-185.35 -3.1)"/><path class="cls-12" d="M351.69,312.74c-1.12,1.05-3,.79-4.28,0s-2.32-2-3.58-2.89c-3.74-2.64-9.15-2-12.76-4.83-.51-.39-1-1-.73-1.61s1-.6,1.57-.58l15.19.36" transform="translate(-185.35 -3.1)"/><path class="cls-13" d="M347.1,303.19a6.06,6.06,0,0,0-1.64-.2c-1.06-.08-2.59-.16-4.48-.25l-6.63-.25-1.92-.06a3,3,0,0,0-2.23.46,1.28,1.28,0,0,0-.25,1.42,2.69,2.69,0,0,0,.76,1,9.59,9.59,0,0,0,1.91,1.17c2.74,1.27,5.53,1.5,7.86,2.25a11.62,11.62,0,0,1,3.12,1.42c.88.6,1.62,1.33,2.37,1.93a5.34,5.34,0,0,0,4.27,1.51c1.12-.22,1.49-.82,1.45-.83a4.27,4.27,0,0,1-1.49.5,5.16,5.16,0,0,1-3.83-1.65c-.7-.6-1.42-1.37-2.36-2a11.76,11.76,0,0,0-3.28-1.59c-2.42-.81-5.21-1.09-7.74-2.27a10.21,10.21,0,0,1-1.73-1.05c-.49-.4-.73-.94-.46-1.14s1-.26,1.61-.24l1.92,0,6.64.06c1.89,0,3.42,0,4.48,0A5.83,5.83,0,0,0,347.1,303.19Z" transform="translate(-185.35 -3.1)"/><path class="cls-5" d="M433.73,659.42,430.22,698l-11.58,29.75a4,4,0,0,0,2.51,5.23h0a4,4,0,0,0,3.59-.62c6.52-5,30.42-23.37,30.52-26.21.12-3.29,6.41-40.49,6.41-40.49Z" transform="translate(-185.35 -3.1)"/><g class="cls-14"><path class="cls-10" d="M421.15,733l34.41-29.43-.19,1.63a6,6,0,0,1-1.85,3.69c-2.77,2.6-10.59,9.6-28.67,23.5a4,4,0,0,1-3.7.61Z" transform="translate(-185.35 -3.1)"/></g><g class="cls-14"><path class="cls-10" d="M449.07,690.26a2.4,2.4,0,0,0-1,3,2.31,2.31,0,0,0,3,1,2.54,2.54,0,0,0,1.05-3.23c-.63-1-2.36-1.5-3.25-.72" transform="translate(-185.35 -3.1)"/></g><path class="cls-15" d="M431.88,717.19c-.23.08-.87-2-3-3.38s-4.32-1.11-4.34-1.36.5-.34,1.42-.36a6.32,6.32,0,0,1,5.7,3.66C432,716.59,432,717.17,431.88,717.19Z" transform="translate(-185.35 -3.1)"/><path class="cls-15" d="M428.55,722c-.21.14-1.3-1.25-3.23-2s-3.67-.67-3.71-.91,1.86-.82,4.05.13S428.76,722,428.55,722Z" transform="translate(-185.35 -3.1)"/><path class="cls-15" d="M437.74,711.16c-.2.16-1.87-2-4.76-3.5s-5.59-1.72-5.57-2,2.89-.42,6,1.23S437.94,711.07,437.74,711.16Z" transform="translate(-185.35 -3.1)"/><path class="cls-15" d="M439.79,699.51c-.13.22-2.16-.92-4.92-1.33s-5,0-5.08-.25,2.26-1.07,5.22-.59S439.93,699.34,439.79,699.51Z" transform="translate(-185.35 -3.1)"/><path class="cls-15" d="M441.11,688.2c-.15.21-2.14-1.32-5.08-1.52s-5.15.93-5.26.7.42-.53,1.37-.94a8.6,8.6,0,0,1,3.95-.61,8.46,8.46,0,0,1,3.81,1.23C440.77,687.61,441.17,688.12,441.11,688.2Z" transform="translate(-185.35 -3.1)"/><path class="cls-15" d="M436.34,684.53a3.28,3.28,0,0,1,.11-1.46,10.32,10.32,0,0,1,1.6-3.69,4.51,4.51,0,0,1,2.17-1.92A1.58,1.58,0,0,1,442,678a2.65,2.65,0,0,1,.41,1.81,5.62,5.62,0,0,1-5.48,4.6,6.5,6.5,0,0,1-6-4.11,2.26,2.26,0,0,1,.1-1.88,1.57,1.57,0,0,1,1.72-.64,5.53,5.53,0,0,1,2.39,1.61,11.45,11.45,0,0,1,2.29,3.29,3.43,3.43,0,0,1,.44,1.4,18.57,18.57,0,0,0-3.14-4.26,5.3,5.3,0,0,0-2.12-1.35.84.84,0,0,0-.94.35,1.56,1.56,0,0,0,0,1.24,5.81,5.81,0,0,0,5.22,3.5,4.89,4.89,0,0,0,4.71-3.84,1.89,1.89,0,0,0-.24-1.28.87.87,0,0,0-1-.32,4.06,4.06,0,0,0-1.86,1.6A15.11,15.11,0,0,0,436.34,684.53Z" transform="translate(-185.35 -3.1)"/><path class="cls-15" d="M469.24,682.07l28.9-228.86L488.9,400l-54.5,2.89-6.79,275a4.19,4.19,0,0,0,3.39,4.23L462.74,687A5.68,5.68,0,0,0,469.24,682.07Z" transform="translate(-185.35 -3.1)"/><path class="cls-15" d="M497.31,460.89l52.57,52-75.63,18.4,5.38,38.16L582,555.53a32.21,32.21,0,0,0,21.79-13.08h0a32.22,32.22,0,0,0,.5-37L524.53,388.4,488.9,400Z" transform="translate(-185.35 -3.1)"/><path class="cls-16" d="M494.41,447.65c.21,0,1,2.88,1.83,6.54s1.28,6.66,1.07,6.7-1-2.88-1.82-6.54S494.2,447.7,494.41,447.65Z" transform="translate(-185.35 -3.1)"/><path class="cls-16" d="M486.75,536.11s.42-.15,1.25-.41l3.68-1.15,14.11-4.29,51.32-15.43-.13.48-63.1-67.19.65-.22c-1.25,10.56-2.55,21.59-3.88,32.83-6.51,54.51-12.62,103.83-17.36,139.49-2.34,17.83-4.41,32.24-5.93,42.18-.84,5-1.39,8.83-2,11.42q-.4,1.9-.63,2.94c-.15.66-.24,1-.24,1s0-.35.16-1,.32-1.67.56-3c.53-2.6,1-6.47,1.83-11.43,1.42-10,3.41-24.37,5.69-42.21,4.59-35.67,10.62-85,17.13-139.51,1.33-11.24,2.64-22.27,3.89-32.82l.1-.81.55.59,63,67.31.33.35-.47.14-51.4,15.18-14.15,4.14-3.7,1.06C487.19,536,486.75,536.11,486.75,536.11Z" transform="translate(-185.35 -3.1)"/><path class="cls-16" d="M469.74,677.76c-.21,0,5.79-48.6,13.4-108.48s14-108.42,14.17-108.39-5.79,48.59-13.4,108.48S470,677.78,469.74,677.76Z" transform="translate(-185.35 -3.1)"/><path class="cls-16" d="M488.78,423.43A17.26,17.26,0,0,1,490,427c.65,2.22,1.45,5.32,2.2,8.77s1.31,6.6,1.65,8.89a17.28,17.28,0,0,1,.37,3.73,20.74,20.74,0,0,1-.9-3.64c-.53-2.52-1.17-5.51-1.87-8.82s-1.41-6.28-2-8.8A18.45,18.45,0,0,1,488.78,423.43Z" transform="translate(-185.35 -3.1)"/><path class="cls-16" d="M492.16,419c-.09-.05.73-.72,2.13-.23a2.5,2.5,0,0,1,1.6,1.88,2.75,2.75,0,0,1-1.2,2.79,2.65,2.65,0,0,1-3-.3,2.33,2.33,0,0,1,.3-3.69c.35-.19.57-.19.58-.15s-.8.41-1,1.59a1.71,1.71,0,0,0,.6,1.71,2,2,0,0,0,2.18.18,2.11,2.11,0,0,0,.89-2,2,2,0,0,0-1.12-1.5A4,4,0,0,0,492.16,419Z" transform="translate(-185.35 -3.1)"/><path class="cls-16" d="M565.36,521.82c-.16.17-3.12-2.55-7.38-5s-8.07-3.7-8-3.92,4,.72,8.39,3.26S565.5,521.7,565.36,521.82Z" transform="translate(-185.35 -3.1)"/><path class="cls-5" d="M451.74,244l-30.18,14.57,13,90.8-5.11,40.76a15.94,15.94,0,0,0,5.32,14h0l48.75-1,34.13-18.77,15.67-2.65-6.41-31,2.87-44,35.68,19.05a12.41,12.41,0,0,0,9,1.07l65.41-16.92-3.4-25.2-59.21,6.7-45.09-39.85L498.58,244l-6-9.89H458.25l-2.4,1.8a7.18,7.18,0,0,0-2.48,3.41Z" transform="translate(-185.35 -3.1)"/><path class="cls-5" d="M421.56,258.58s-9.9,6.27-13.58,17.73c-3.45,10.71-11.24,54-11.24,54l-34.29-21.27-19.76,20.77,45.71,40.31a23.26,23.26,0,0,0,25.46,3.51h0a23.28,23.28,0,0,0,12.94-17.8l5.61-41.08Z" transform="translate(-185.35 -3.1)"/><polygon class="cls-12" points="339.18 385.3 337.06 382.17 314.49 386.34 310.33 395.96 339.18 385.3"/><path class="cls-5" d="M434.78,404.11c20.17,8.11,41.7,5.13,60.91-5.05,5.8-3.07,11.17-6.89,17-9.92s12.29-5.27,18.83-4.81,13.16,4.08,15.77,10.09,0,14.21-6.16,16.45l2.18,1.95c9.06-4.21,13.35-16.4,8.93-25.36-3.39-6.87-10.5-11-15.72-16.57-7.67-8.25-8.47-24.21-8.52-36.64" transform="translate(-185.35 -3.1)"/><path class="cls-15" d="M479,261.56a7.3,7.3,0,0,1-1.48.09,5.59,5.59,0,0,0-3.58,1.64,8.4,8.4,0,0,0-1.78,5.76,19.1,19.1,0,0,0,1.64,7.72l.57,1.27-1.12-.82a60.87,60.87,0,0,1-7.6-6.73A56,56,0,0,1,454,252.59a40.65,40.65,0,0,1-1.9-6.22,15.7,15.7,0,0,1-.34-2.36,70.35,70.35,0,0,0,2.74,8.38A59,59,0,0,0,466.22,270a62.8,62.8,0,0,0,7.49,6.68l-.55.44a17.54,17.54,0,0,1-1.25-4.13,18.36,18.36,0,0,1-.34-3.91,8.71,8.71,0,0,1,2.07-6.06,5.72,5.72,0,0,1,3.88-1.57A7.2,7.2,0,0,1,479,261.56Z" transform="translate(-185.35 -3.1)"/><path class="cls-5" d="M480.83,261.56c2.49-1.07,6.17.51,7.95,2.55,1.18,1.34,1.84,3.2,3.39,4.09s6.47,1.56,7.89.47c0,0,.88-4.19,1.33-5.93a131.26,131.26,0,0,0,3.36-20.14c-4.75-2.3-3.44-5.33-12-4.75,0,0,2.15,6.31.3,12" transform="translate(-185.35 -3.1)"/><path class="cls-15" d="M493.06,249.89c-.08,0,.31-1.14.5-3.22a24,24,0,0,0-1.06-8.73l-.11-.35.36,0a14.72,14.72,0,0,1,6.3.56,9.88,9.88,0,0,1,2.91,2.1,11.58,11.58,0,0,0,3,2l.23.11,0,.26c-.38,3.58-.81,7.48-1.49,11.51-.44,2.63-1,5.18-1.59,7.62s-1.1,4.76-1.62,7l0,.15-.09.06a4.72,4.72,0,0,1-2.52.62,15.71,15.71,0,0,1-4.57-.64,4.59,4.59,0,0,1-1.94-1.05,21,21,0,0,1-2.27-3.11,8,8,0,0,0-2.31-2.11,8.29,8.29,0,0,0-4.24-1.32,9.47,9.47,0,0,0-1.6.22,3.37,3.37,0,0,1,1.59-.45,8.89,8.89,0,0,1,7,3.35,21.15,21.15,0,0,0,2.26,3,7.24,7.24,0,0,0,3.83,1.32,15.21,15.21,0,0,0,2.25.12,4.23,4.23,0,0,0,2.12-.5l-.13.21c.5-2.22,1-4.6,1.58-7s1.12-4.95,1.56-7.56c.68-4,1.12-7.89,1.53-11.46l.2.37a12.24,12.24,0,0,1-3.1-2.18,9.26,9.26,0,0,0-2.7-2,14.44,14.44,0,0,0-6-.61l.25-.37a22.62,22.62,0,0,1,.84,8.94,14.7,14.7,0,0,1-.5,2.4A3.17,3.17,0,0,1,493.06,249.89Z" transform="translate(-185.35 -3.1)"/><path class="cls-15" d="M543.36,388.91c-.06,0,.07-.59,0-1.69a10.35,10.35,0,0,0-1.46-4.54,15,15,0,0,0-5.41-5.23,23,23,0,0,0-9.65-2.65c-3.75-.34-7.89-.14-12.35-.44a46.38,46.38,0,0,1-13.93-2.95A28.77,28.77,0,0,1,488,362a21.76,21.76,0,0,1-3.61-7.56,29.31,29.31,0,0,1-.83-8.58c.23-5.83,1.57-11.35,2.38-16.7a127,127,0,0,0,1.47-15.56,129,129,0,0,0-1.94-26.37,132.48,132.48,0,0,0-4.34-17.32c-.63-2-1.2-3.55-1.57-4.6-.17-.49-.31-.89-.41-1.2a2.26,2.26,0,0,1-.12-.41s.08.12.19.39.28.68.48,1.17c.42,1,1,2.55,1.71,4.56A121.17,121.17,0,0,1,486,287.16a124.07,124.07,0,0,1,.68,42.13c-.8,5.4-2.13,10.89-2.35,16.62s1,11.37,4.27,15.67a28.08,28.08,0,0,0,12.23,9.17,45.56,45.56,0,0,0,13.7,3c4.41.33,8.57.16,12.36.54a23.08,23.08,0,0,1,9.82,2.82,15.19,15.19,0,0,1,5.45,5.45,9.94,9.94,0,0,1,1.35,4.68,6.17,6.17,0,0,1-.07,1.27A1.78,1.78,0,0,1,543.36,388.91Z" transform="translate(-185.35 -3.1)"/><path class="cls-15" d="M521.34,362.05a15.7,15.7,0,0,1-1.7,1.76c-.56.56-1.26,1.22-2.12,1.94s-1.8,1.58-2.93,2.42a79.4,79.4,0,0,1-8.14,5.64,90.84,90.84,0,0,1-10.82,5.49,89.72,89.72,0,0,1-11.5,3.85A80.07,80.07,0,0,1,474.4,385c-1.39.22-2.67.29-3.78.39s-2.08.14-2.87.15a16.43,16.43,0,0,1-2.44,0,13.72,13.72,0,0,1,2.42-.28c.79-.05,1.74-.13,2.85-.28s2.37-.24,3.75-.49a90.54,90.54,0,0,0,9.62-2,88.23,88.23,0,0,0,22.14-9.27,90.06,90.06,0,0,0,8.17-5.46c1.15-.81,2.11-1.63,3-2.32s1.61-1.31,2.2-1.83A14.35,14.35,0,0,1,521.34,362.05Z" transform="translate(-185.35 -3.1)"/><path class="cls-15" d="M511.85,313.69a3,3,0,0,1-.13.81c-.13.61-.3,1.37-.51,2.3s-.52,2.22-1,3.6-.88,3-1.57,4.67c-.33.86-.67,1.76-1,2.69s-.83,1.86-1.27,2.84c-.84,2-2,4-3.11,6.13a85.06,85.06,0,0,1-20.13,24c-1.91,1.49-3.7,2.95-5.5,4.12-.89.61-1.73,1.23-2.58,1.75l-2.46,1.48c-1.55,1-3,1.68-4.34,2.36a34.87,34.87,0,0,1-3.37,1.58l-2.17.91a2.73,2.73,0,0,1-.78.26,3.79,3.79,0,0,1,.72-.4l2.11-1c.92-.43,2-1,3.29-1.69s2.74-1.44,4.26-2.45l2.42-1.51c.84-.53,1.66-1.16,2.53-1.77,1.78-1.19,3.53-2.65,5.41-4.14a87.51,87.51,0,0,0,20-23.82c1.15-2.11,2.28-4.09,3.14-6.05.45-1,.93-1.89,1.3-2.8l1.07-2.65c.73-1.67,1.19-3.25,1.67-4.61s.83-2.56,1.09-3.55.48-1.65.65-2.25A4.37,4.37,0,0,1,511.85,313.69Z" transform="translate(-185.35 -3.1)"/><path class="cls-15" d="M449.76,411.5a8.9,8.9,0,0,1-2.68-2,20.45,20.45,0,0,1-6.15-14.62,9.27,9.27,0,0,1,.45-3.32c.13,0,0,1.29.1,3.31a23,23,0,0,0,6,14.25C448.84,410.62,449.84,411.4,449.76,411.5Z" transform="translate(-185.35 -3.1)"/><path class="cls-15" d="M448.69,400c.22,0-.19,1.94,0,4.27s.9,4.12.69,4.21-1.26-1.66-1.46-4.15S448.51,400,448.69,400Z" transform="translate(-185.35 -3.1)"/><path class="cls-15" d="M434.16,347.33a3.62,3.62,0,0,1-.18-.69c-.1-.55-.22-1.21-.36-2-.31-1.86-.73-4.35-1.24-7.37-1-6.23-2.5-14.83-4.26-24.3s-3.5-18-4.78-24.2c-.62-3-1.12-5.48-1.5-7.33-.16-.79-.28-1.45-.39-2a3.42,3.42,0,0,1-.08-.71,2.12,2.12,0,0,1,.24.67c.14.54.31,1.19.52,2,.44,1.71,1,4.2,1.74,7.27,1.42,6.16,3.23,14.7,5,24.18s3.15,18.1,4.05,24.35c.45,3.13.79,5.67,1,7.42.09.8.17,1.47.23,2A2.34,2.34,0,0,1,434.16,347.33Z" transform="translate(-185.35 -3.1)"/><path class="cls-15" d="M528.39,347.33a2.47,2.47,0,0,1-.07-.73c0-.57,0-1.26-.06-2.09,0-1.82-.06-4.45,0-7.69.06-6.49.34-15.47,1.09-25.35s1.75-18.8,2.52-25.24c.39-3.13.72-5.71,1-7.63.12-.82.22-1.51.31-2.07a2.65,2.65,0,0,1,.15-.71,2.26,2.26,0,0,1,0,.73c0,.56-.1,1.25-.16,2.08-.18,1.93-.43,4.51-.73,7.66-.62,6.45-1.54,15.37-2.28,25.24s-1.12,18.82-1.32,25.3c-.09,3.15-.16,5.75-.22,7.68,0,.83-.06,1.52-.08,2.09A2.64,2.64,0,0,1,528.39,347.33Z" transform="translate(-185.35 -3.1)"/><path class="cls-15" d="M410.67,351.12c-.26.11-2.2-5.25-5.95-11.08s-8.17-9.5-8-9.7a14.28,14.28,0,0,1,2.89,2.35,40.63,40.63,0,0,1,5.73,6.93,48.55,48.55,0,0,1,4.14,8A15,15,0,0,1,410.67,351.12Z" transform="translate(-185.35 -3.1)"/><path class="cls-15" d="M413.2,344.72a26.76,26.76,0,0,1-1.65-2.87,23.09,23.09,0,0,0-5.09-6,32.45,32.45,0,0,0-6.73-4.11,18.38,18.38,0,0,1-3-1.45,11.82,11.82,0,0,1,3.2,1,26,26,0,0,1,7,4,20,20,0,0,1,5.07,6.28A9.56,9.56,0,0,1,413.2,344.72Z" transform="translate(-185.35 -3.1)"/><path class="cls-17" d="M428.37,309.31a2.48,2.48,0,0,1-.31.65,6.7,6.7,0,0,1-1.35,1.58,9,9,0,0,1-7.22,1.94c-3.25-.48-6.71-2.83-9.06-6.41a30.29,30.29,0,0,1-3-5.94c-.41-1.08-.82-2.16-1.17-3.32a9.11,9.11,0,0,1-.42-3.7,5.06,5.06,0,0,1,1.8-3.34,4.25,4.25,0,0,1,3.63-.65,7.12,7.12,0,0,1,4.85,4.59,6.92,6.92,0,0,1-.6,6,7.49,7.49,0,0,1-4.21,3.22,6.7,6.7,0,0,1-4.35-.2,7.5,7.5,0,0,1-2.73-1.85,6.19,6.19,0,0,1-1.14-1.73,1.88,1.88,0,0,1-.22-.69,9.64,9.64,0,0,0,1.58,2.21,7.4,7.4,0,0,0,2.65,1.66,6.42,6.42,0,0,0,4.06.09,7,7,0,0,0,3.81-3,6.23,6.23,0,0,0,.48-5.45,6.39,6.39,0,0,0-4.35-4.1,3.49,3.49,0,0,0-3,.52,4.36,4.36,0,0,0-1.5,2.84c-.26,2.28.78,4.52,1.53,6.64a30.44,30.44,0,0,0,2.88,5.83c2.23,3.47,5.5,5.74,8.56,6.27a8.86,8.86,0,0,0,6.94-1.64A11.09,11.09,0,0,0,428.37,309.31Z" transform="translate(-185.35 -3.1)"/><path class="cls-17" d="M486.25,331.92a3.67,3.67,0,0,1-.4.35l-1.23,1a33.4,33.4,0,0,1-5.07,3.19,16.15,16.15,0,0,1-4.13,1.37,10.75,10.75,0,0,1-5.17-.34c-3.61-1.15-6.9-4.23-9.32-8.21A30,30,0,0,1,461.2,298a16.17,16.17,0,0,1,6.93-6.48,9.11,9.11,0,0,1,5-.63,6.82,6.82,0,0,1,4.45,2.52,7.29,7.29,0,0,1,1.39,5,11.63,11.63,0,0,1-1.6,5,16.24,16.24,0,0,1-8.19,6.64,21,21,0,0,1-10.5,1.08,21.56,21.56,0,0,1-9.48-3.92A32.37,32.37,0,0,1,438,291.57c-1-2.89-1.83-5.93-1.36-8.94a8.88,8.88,0,0,1,1.72-4.06,6.23,6.23,0,0,1,3.59-2.34,7.85,7.85,0,0,1,7.42,2.56,8.43,8.43,0,0,1,1.79,7,11.22,11.22,0,0,1-3,6,14.53,14.53,0,0,1-5,3.26,22.69,22.69,0,0,1-9.35,1.41,53.9,53.9,0,0,1-5.95-.6l-1.54-.25a3.37,3.37,0,0,1-.52-.11,3.52,3.52,0,0,1,.53,0l1.55.17c1.35.15,3.35.4,5.94.47a22.71,22.71,0,0,0,9.18-1.52,14,14,0,0,0,4.79-3.2,10.76,10.76,0,0,0,2.83-5.69,7.91,7.91,0,0,0-1.69-6.58,7.3,7.3,0,0,0-6.83-2.34c-2.59.55-4.4,3.15-4.79,5.9s.35,5.75,1.35,8.6a31.87,31.87,0,0,0,10.91,15.23,20.84,20.84,0,0,0,9.15,3.78,20.27,20.27,0,0,0,10.12-1.05,15.58,15.58,0,0,0,7.8-6.31,10.79,10.79,0,0,0,1.5-4.67,6.49,6.49,0,0,0-1.22-4.5,6.18,6.18,0,0,0-4-2.25,8.37,8.37,0,0,0-4.56.58,15.5,15.5,0,0,0-6.62,6.18,28.92,28.92,0,0,0-4.49,16.34A29.26,29.26,0,0,0,461.39,329c2.35,3.92,5.54,6.95,9,8.09a12.2,12.2,0,0,0,9-.9,36.87,36.87,0,0,0,5.11-3l1.27-.89A2.93,2.93,0,0,1,486.25,331.92Z" transform="translate(-185.35 -3.1)"/><path class="cls-17" d="M445.63,249.32a4.84,4.84,0,0,1-.47,1.31,21.18,21.18,0,0,1-1.89,3.32,24.24,24.24,0,0,1-21.82,10.41,20.91,20.91,0,0,1-3.77-.62,4.59,4.59,0,0,1-1.32-.46c0-.14,1.95.42,5.11.54a25.33,25.33,0,0,0,21.36-10.19C444.73,251.1,445.5,249.25,445.63,249.32Z" transform="translate(-185.35 -3.1)"/><path class="cls-17" d="M467.38,255.58c0,.23-2.21.34-4.16,2s-2.47,3.83-2.68,3.77-.12-.58.17-1.45a6.73,6.73,0,0,1,2-2.9,6.83,6.83,0,0,1,3.19-1.52C466.82,255.37,467.38,255.49,467.38,255.58Z" transform="translate(-185.35 -3.1)"/><path class="cls-17" d="M498.51,264.24a3.47,3.47,0,0,1-1.25-.58,10.36,10.36,0,0,1-2.77-2.54,10.08,10.08,0,0,1-2-5.23,5,5,0,0,1,.91-3.3,3.41,3.41,0,0,1,3.41-1.44,3.8,3.8,0,0,1,2.68,2.57,3.53,3.53,0,0,1-.68,3.38,4.75,4.75,0,0,1-5.33,1.42,6,6,0,0,1-2.91-2.41,2.74,2.74,0,0,1-.55-1.27c.06,0,.26.42.79,1.1a6.12,6.12,0,0,0,2.84,2.07,4.24,4.24,0,0,0,4.61-1.35,2.8,2.8,0,0,0,.51-2.71,3,3,0,0,0-2.12-2A2.67,2.67,0,0,0,494,253a4.29,4.29,0,0,0-.8,2.82,9.88,9.88,0,0,0,1.77,4.94A15.61,15.61,0,0,0,498.51,264.24Z" transform="translate(-185.35 -3.1)"/><path class="cls-17" d="M504.38,247.05c-.18.15-1.78-2.16-4.86-3.39s-5.82-.77-5.84-1,.64-.36,1.77-.44a10,10,0,0,1,8,3.27C504.18,246.35,504.46,247,504.38,247.05Z" transform="translate(-185.35 -3.1)"/><path class="cls-17" d="M544.87,264.19l-.29.18-.89.46a34.74,34.74,0,0,1-3.54,1.5,42.38,42.38,0,0,1-13.87,2.61,19.73,19.73,0,0,1-4.7-.45,10.32,10.32,0,0,1-4.65-2.27,6.87,6.87,0,0,1-2.27-5,8.47,8.47,0,0,1,2-5.53c2.7-3.19,7.52-4.23,11.73-3a13.67,13.67,0,0,1,9.39,9.1,13.44,13.44,0,0,1-2.8,12.76c-3,3.32-7.07,5-10.91,5.87a63.14,63.14,0,0,1-11.17,1.13,60.45,60.45,0,0,0-9.63.94c-5.82,1.14-9.93,4.13-11.86,6.76a13.91,13.91,0,0,0-2.26,4.58s0-.12,0-.34a8.31,8.31,0,0,1,.24-1,11.53,11.53,0,0,1,1.74-3.43c1.91-2.75,6.06-5.89,12-7.12a60.29,60.29,0,0,1,9.71-1,62.79,62.79,0,0,0,11-1.18c3.75-.9,7.71-2.53,10.5-5.68A12.7,12.7,0,0,0,537,262a12.93,12.93,0,0,0-8.87-8.59c-4-1.17-8.5-.17-11,2.74a7.84,7.84,0,0,0-1.82,5.07,6.25,6.25,0,0,0,2,4.59,9.74,9.74,0,0,0,4.35,2.15,19.65,19.65,0,0,0,4.57.49,44.07,44.07,0,0,0,13.77-2.35c1.57-.53,2.77-1,3.58-1.36A7.52,7.52,0,0,1,544.87,264.19Z" transform="translate(-185.35 -3.1)"/><path class="cls-17" d="M508.14,322c-.12.05-.64-1.24-2-3a15.15,15.15,0,0,0-15.05-5.66c-2.14.42-3.38,1.05-3.43.93a7.7,7.7,0,0,1,3.32-1.45,14.53,14.53,0,0,1,15.6,5.86A8,8,0,0,1,508.14,322Z" transform="translate(-185.35 -3.1)"/><path class="cls-17" d="M525.34,333.13a7.41,7.41,0,0,1-2,3,12.33,12.33,0,0,1-16.14,1.28,7.05,7.05,0,0,1-2.45-2.62c.1-.09.94,1,2.76,2.17A12.53,12.53,0,0,0,523,335.71C524.56,334.27,525.22,333.05,525.34,333.13Z" transform="translate(-185.35 -3.1)"/><path class="cls-17" d="M529.81,303.84c-.06.11-.95-.42-2.51-.84A10.79,10.79,0,0,0,516,306.61c-1,1.24-1.44,2.19-1.56,2.14a5,5,0,0,1,1.13-2.47,10.34,10.34,0,0,1,11.87-3.8A5.22,5.22,0,0,1,529.81,303.84Z" transform="translate(-185.35 -3.1)"/><path class="cls-17" d="M584.66,290.29a5.68,5.68,0,0,1,.27,1.1,8.25,8.25,0,0,1,.19,1.35,12.3,12.3,0,0,1,0,1.87,18.73,18.73,0,0,1-4.22,11,19.34,19.34,0,0,1-6.35,5.23,19.64,19.64,0,0,1-9.2,2.11,24.74,24.74,0,0,1-18.91-9.36,14.74,14.74,0,0,1-2.66-5.1,9.65,9.65,0,0,1,.09-5.61,7.19,7.19,0,0,1,3.45-4.2,7.93,7.93,0,0,1,5.18-.62,8.84,8.84,0,0,1,4.37,2.32,10,10,0,0,1,2.4,4,13.34,13.34,0,0,1-.06,8.21,15.57,15.57,0,0,1-3.48,5.83,14.87,14.87,0,0,1-7,4.33,5.26,5.26,0,0,1-1.11.21,21.37,21.37,0,0,0,4-1.66,15.91,15.91,0,0,0,7.15-8.87,12.9,12.9,0,0,0,0-7.85,9.43,9.43,0,0,0-2.27-3.72,8.2,8.2,0,0,0-4.05-2.11,7.26,7.26,0,0,0-4.69.57,6.45,6.45,0,0,0-3.07,3.79,9,9,0,0,0-.08,5.18,14.17,14.17,0,0,0,2.54,4.84,24.14,24.14,0,0,0,18.31,9.12,18.75,18.75,0,0,0,15.12-7,18.75,18.75,0,0,0,4.34-10.65A27.42,27.42,0,0,0,584.66,290.29Z" transform="translate(-185.35 -3.1)"/><path class="cls-17" d="M596,320.78a3.82,3.82,0,0,1-.89-1,10.5,10.5,0,0,1-1.61-3.33,13.61,13.61,0,0,1-.23-5.48,50.87,50.87,0,0,1,1.5-6.5,46.1,46.1,0,0,1,5.27-10.87c.82-1.3,1.52-2.33,2-3a5.19,5.19,0,0,1,.84-1.05,36.89,36.89,0,0,1-2.4,4.37,54.56,54.56,0,0,0-5,10.81,57.24,57.24,0,0,0-1.53,6.38,14.08,14.08,0,0,0,0,5.25A19.41,19.41,0,0,0,596,320.78Z" transform="translate(-185.35 -3.1)"/><path class="cls-17" d="M623.9,286.91c.05,0,.2.36.44,1a19.5,19.5,0,0,1,.75,3,27.13,27.13,0,0,1-4.35,19.68,18.58,18.58,0,0,1-2,2.43c-.51.53-.8.81-.84.77s1-1.3,2.34-3.5a29.92,29.92,0,0,0,4.26-19.3C624.24,288.5,623.77,287,623.9,286.91Z" transform="translate(-185.35 -3.1)"/><path class="cls-17" d="M527.57,355.75s-.24-.09-.65-.32a14.81,14.81,0,0,0-1.79-1,21.19,21.19,0,0,0-7.18-2,22,22,0,0,0-10.81,1.74,18.4,18.4,0,0,0-5.4,3.58,11.18,11.18,0,0,0-2.12,2.62,5.31,5.31,0,0,0-.74,3.24,3.85,3.85,0,0,0,1.57,2.76,3.13,3.13,0,0,0,3,.14c2-.86,2.79-3.18,2.73-5.17a10.48,10.48,0,0,0-5.46-8.86,10.74,10.74,0,0,0-7.21-1,21,21,0,0,0-2.62.85,2.94,2.94,0,0,1,.61-.4,9.68,9.68,0,0,1,1.94-.74A10.78,10.78,0,0,1,501,352a11,11,0,0,1,5.92,9.33,7.66,7.66,0,0,1-.63,3.32,5,5,0,0,1-2.51,2.55A3.91,3.91,0,0,1,500,367a4.57,4.57,0,0,1-1.91-3.31A6,6,0,0,1,499,360a12,12,0,0,1,2.27-2.8,19.22,19.22,0,0,1,5.64-3.68A22,22,0,0,1,518,351.9a19.92,19.92,0,0,1,7.25,2.28A11.5,11.5,0,0,1,527,355.3,3.16,3.16,0,0,1,527.57,355.75Z" transform="translate(-185.35 -3.1)"/><path class="cls-17" d="M532.89,367.93c.18.12-.62,1.63-1.78,3.38s-2.24,3.08-2.42,3,.62-1.63,1.78-3.38S532.72,367.82,532.89,367.93Z" transform="translate(-185.35 -3.1)"/><path class="cls-17" d="M551.58,389c-.12,0-.32-.53-.83-1.29a7.67,7.67,0,0,0-6-3.33c-.91,0-1.5.09-1.53,0s.52-.4,1.52-.51a6.51,6.51,0,0,1,3.77.83,6.61,6.61,0,0,1,2.7,2.77C551.65,388.36,551.67,389,551.58,389Z" transform="translate(-185.35 -3.1)"/><path class="cls-17" d="M490.77,381.5c.05.11-1.77,1-4.61,2.64a39.59,39.59,0,0,0-10,7.74,21.26,21.26,0,0,0-5.31,11.25,25.63,25.63,0,0,0,.09,5.25,4.33,4.33,0,0,1-.42-1.38,14.12,14.12,0,0,1-.21-3.93,20.7,20.7,0,0,1,5.27-11.7,36,36,0,0,1,10.33-7.7c1.46-.77,2.67-1.32,3.52-1.68A5.74,5.74,0,0,1,490.77,381.5Z" transform="translate(-185.35 -3.1)"/><path class="cls-17" d="M512.4,388.69c0,.06-.82-.48-1.6-1.77a9.83,9.83,0,0,1,.91-11c1-1.14,1.84-1.55,1.88-1.48s-.64.66-1.45,1.81a10.65,10.65,0,0,0-1.81,5.09,10.53,10.53,0,0,0,.95,5.32C511.89,387.93,512.5,388.6,512.4,388.69Z" transform="translate(-185.35 -3.1)"/><path class="cls-17" d="M478.59,362s-.26-.33-.84-.85a6.11,6.11,0,0,0-3.07-1.36,7.61,7.61,0,0,0-5.13,1.07,15.63,15.63,0,0,0-4.88,5.14c-1.45,2.24-2.69,4.93-4.55,7.55a16,16,0,0,1-8.12,6.07,15,15,0,0,1-11.14-.65,16,16,0,0,1-8.19-8.74,9.52,9.52,0,0,1-.26-6.21,8.75,8.75,0,0,1,3.82-4.68,9,9,0,0,1,5.69-1.3,9.37,9.37,0,0,1,5.05,2.4,12.39,12.39,0,0,1,4,9.26,15.33,15.33,0,0,1-2.75,8.41,17,17,0,0,1-5.32,5,21.13,21.13,0,0,1-5.06,2.2,22.58,22.58,0,0,1-3.4.72,8.88,8.88,0,0,1-.9.09,1,1,0,0,1-.31,0,7.17,7.17,0,0,1,1.18-.25,27.16,27.16,0,0,0,3.34-.85,22,22,0,0,0,4.92-2.28,16.89,16.89,0,0,0,5.1-4.95,14.74,14.74,0,0,0,2.56-8.11A11.73,11.73,0,0,0,446.5,361a8.62,8.62,0,0,0-4.67-2.2,8.25,8.25,0,0,0-5.21,1.21,8.06,8.06,0,0,0-3.48,4.28,8.8,8.8,0,0,0,.25,5.72,15.24,15.24,0,0,0,7.79,8.31,14.35,14.35,0,0,0,10.6.66,15.48,15.48,0,0,0,7.83-5.77c1.83-2.53,3.1-5.22,4.61-7.47a15.77,15.77,0,0,1,5.11-5.22,7.91,7.91,0,0,1,5.4-1,6.07,6.07,0,0,1,3.12,1.54A3.72,3.72,0,0,1,478.59,362Z" transform="translate(-185.35 -3.1)"/><path class="cls-17" d="M479.08,385a7.19,7.19,0,0,1-2.37-1.88,15.92,15.92,0,0,1-3.62-6.36,16.12,16.12,0,0,1-.46-7.3,7.25,7.25,0,0,1,1-2.87c.13,0-.22,1.13-.42,2.94a18.4,18.4,0,0,0,.65,7,18.18,18.18,0,0,0,3.3,6.22C478.27,384.13,479.17,384.85,479.08,385Z" transform="translate(-185.35 -3.1)"/><path class="cls-17" d="M484.5,351c0,.08-1-.5-3-1.25a35.32,35.32,0,0,0-21.2-1.59,28.89,28.89,0,0,0-7.06,2.65,4.67,4.67,0,0,0-2.34,2.8,2.67,2.67,0,0,0,1.52,3,1.59,1.59,0,0,0,1.55-.47,3.78,3.78,0,0,0,.88-1.64,13.54,13.54,0,0,0,.34-3.91,17.79,17.79,0,0,0-1.88-7.23,16.85,16.85,0,0,0-4.16-5.34,16.19,16.19,0,0,0-5.13-2.95,17.81,17.81,0,0,0-8.53-.85c-2,.32-3.1.77-3.12.69a3.65,3.65,0,0,1,.76-.34,14.61,14.61,0,0,1,2.31-.65,17.52,17.52,0,0,1,8.76.64,16.78,16.78,0,0,1,5.36,3A17.29,17.29,0,0,1,454,343a18.23,18.23,0,0,1,2,7.51,14.44,14.44,0,0,1-.35,4.16,4.57,4.57,0,0,1-1.08,2,2.35,2.35,0,0,1-2.29.67,2.88,2.88,0,0,1-1.75-1.59,3.67,3.67,0,0,1-.32-2.26,5.36,5.36,0,0,1,2.7-3.29,28.58,28.58,0,0,1,7.29-2.69,35,35,0,0,1,13-.48,32.78,32.78,0,0,1,8.44,2.47,21.59,21.59,0,0,1,2.14,1.08C484.27,350.84,484.52,351,484.5,351Z" transform="translate(-185.35 -3.1)"/><path class="cls-17" d="M369.77,355.25c0-.06.92-.71,2.37-2.18a20.58,20.58,0,0,0,4.63-7.3,16,16,0,0,0-.37-12.46,15.86,15.86,0,0,0-4.7-5.8,13.23,13.23,0,0,0-7.42-2.78,8.45,8.45,0,0,0-3.89.81,4.93,4.93,0,0,0-2.59,2.63,3.77,3.77,0,0,0,.53,3.41,5.52,5.52,0,0,0,2.79,2.08,7.59,7.59,0,0,0,6.37-1.09,10.78,10.78,0,0,0,3.87-4.38,22.4,22.4,0,0,0,1.84-8.46c0-1,.07-1.76.1-2.39a3.91,3.91,0,0,1,.07-.83,3.08,3.08,0,0,1,.09.83c0,.55.05,1.36,0,2.4a21.33,21.33,0,0,1-1.65,8.68,11.32,11.32,0,0,1-4,4.69,8.25,8.25,0,0,1-6.94,1.22,6.22,6.22,0,0,1-3.18-2.33,4.53,4.53,0,0,1-.63-4.08,5.62,5.62,0,0,1,3-3.06,9.13,9.13,0,0,1,4.26-.9,13.88,13.88,0,0,1,7.84,3A16.46,16.46,0,0,1,377,333a15.51,15.51,0,0,1,1.45,6.92,17.86,17.86,0,0,1-1.22,6,19.69,19.69,0,0,1-4.92,7.32,15.78,15.78,0,0,1-1.86,1.53A3.49,3.49,0,0,1,369.77,355.25Z" transform="translate(-185.35 -3.1)"/><path class="cls-17" d="M400.29,377.16a6,6,0,0,1-1.16-1.23,24.3,24.3,0,0,1-2.52-3.83,27.19,27.19,0,0,1,1.9-28.81,24,24,0,0,1,3-3.46,6.41,6.41,0,0,1,1.31-1.07A61.4,61.4,0,0,0,399,343.6a28,28,0,0,0-1.86,28.26C398.79,375.28,400.41,377.06,400.29,377.16Z" transform="translate(-185.35 -3.1)"/><path class="cls-17" d="M429.06,345.14c-.14.05-.75-2.22-2.58-5.47a30.29,30.29,0,0,0-23.26-15.39c-3.71-.4-6-.08-6-.23a6.08,6.08,0,0,1,1.61-.28,26.75,26.75,0,0,1,4.48,0A29.19,29.19,0,0,1,427,339.41a25.64,25.64,0,0,1,1.72,4.13A6.27,6.27,0,0,1,429.06,345.14Z" transform="translate(-185.35 -3.1)"/><g class="cls-11"><path d="M469.29,386.34c-1.41.6-1.28,2.84-.1,3.82s2.85,1,4.37.93a56.82,56.82,0,0,0,43.62-24.5c-13.31,10.92-30.77,15.05-47.56,18.85" transform="translate(-185.35 -3.1)"/></g><g class="cls-11"><path d="M466.66,371.32c-1.45-2.22-.47-5.34,1.4-7.22s4.42-2.88,6.8-4.05a43,43,0,0,0,19.84-20.37c2.67-5.8,4.7-12.91,10.63-15.3-3,20.45-18.25,38.61-37.85,45.14" transform="translate(-185.35 -3.1)"/></g><g class="cls-11"><path d="M424.86,295a149.5,149.5,0,0,1-3.38,48.12c-.8,3.34-1.71,6.7-1.65,10.13a13.44,13.44,0,0,0,4.9,9.52c2.44-5.63,2.49-11.06,3.52-17.12.93-5.47,2.48-18.23,2.48-18.42.22-11.17-2.42-20.73-6.7-30.79" transform="translate(-185.35 -3.1)"/></g><g class="cls-11"><path d="M452.61,246.66a58.76,58.76,0,0,0,16.66,31.26c3.26,3.17,7.31,6.11,11.85,6a27.76,27.76,0,0,1-2.27-17.35A72.23,72.23,0,0,0,491,273.12a24.09,24.09,0,0,0,13.55,1.54q1.41-12.23,2.83-24.46a4.55,4.55,0,0,0-.25-2.74c-.46-.81-1.7-1.23-2.34-.55a2.25,2.25,0,0,0-.46,1.07c-1.66,7.15-2.58,13.55-4.24,20.69-1.19,1.18-4.85.7-7.27-.19-2.1-.78-2.91-2.52-4.3-4.28s-1.15-1.45-3.21-2.32c-3.79-1.61-11.08-.33-12.67,3.08s-.39,7.89.67,11.24a51.05,51.05,0,0,1-21.48-29.79" transform="translate(-185.35 -3.1)"/></g><g class="cls-11"><path d="M532.89,281.19c-.29.59,9.17,32.5,9.17,32.5l-12.27-7Z" transform="translate(-185.35 -3.1)"/></g><path class="cls-12" d="M456.68,188.59V239.4a12.32,12.32,0,0,0,2.9,7.94h0a37.37,37.37,0,0,0,10.2,8.45L480,261.56l8.47-7.57a12.29,12.29,0,0,0,4.11-8.71c.15-3.7.14-7.43.14-7.43s14.37-1,15.72-15.2c.63-6.67.84-20.33.87-32.92a27.56,27.56,0,0,0-25.29-27.53l-.4,0A26.34,26.34,0,0,0,456.68,188.59Z" transform="translate(-185.35 -3.1)"/><path class="cls-13" d="M492.76,237.85a34.41,34.41,0,0,1-18-7s3.72,10.75,18,10.64Z" transform="translate(-185.35 -3.1)"/><path class="cls-15" d="M505.16,198.84a2,2,0,0,1-2.12,1.88,2,2,0,0,1-1.94-2,2,2,0,0,1,2.12-1.88A1.94,1.94,0,0,1,505.16,198.84Z" transform="translate(-185.35 -3.1)"/><path class="cls-15" d="M505.73,195.45c-.27.24-1.71-1-3.89-1.2s-3.87.79-4.08.5c-.11-.13.19-.58.92-1A5.56,5.56,0,0,1,502,193a5.4,5.4,0,0,1,3.07,1.28C505.68,194.84,505.86,195.34,505.73,195.45Z" transform="translate(-185.35 -3.1)"/><path class="cls-15" d="M484.6,197.8a2,2,0,0,1-2.12,1.89,2,2,0,0,1-1.94-2,2,2,0,0,1,2.12-1.89A2,2,0,0,1,484.6,197.8Z" transform="translate(-185.35 -3.1)"/><path class="cls-15" d="M484.28,194.08c-.28.24-1.72-1-3.9-1.19s-3.86.78-4.08.49c-.1-.13.19-.58.93-1a5.55,5.55,0,0,1,3.29-.72,5.3,5.3,0,0,1,3.07,1.28C484.22,193.48,484.41,194,484.28,194.08Z" transform="translate(-185.35 -3.1)"/><path class="cls-15" d="M490.85,210.9a14,14,0,0,1,3.59-.35c.56,0,1.1-.08,1.22-.45a2.84,2.84,0,0,0-.23-1.68c-.41-1.39-.85-2.85-1.3-4.37-1.78-6.23-3-11.32-2.78-11.39s1.91,4.91,3.69,11.14l1.23,4.39a3.25,3.25,0,0,1,.1,2.21,1.36,1.36,0,0,1-1,.73,4.06,4.06,0,0,1-.95.06A15,15,0,0,1,490.85,210.9Z" transform="translate(-185.35 -3.1)"/><path class="cls-15" d="M484.31,211.87c.36,0,.16,2.38,2.05,4.22s4.42,1.8,4.42,2.13c0,.15-.6.41-1.67.35a5.91,5.91,0,0,1-3.7-1.64,5.19,5.19,0,0,1-1.57-3.52C483.84,212.41,484.15,211.85,484.31,211.87Z" transform="translate(-185.35 -3.1)"/><path class="cls-15" d="M485.55,185.59c-.27.57-2.42.11-5,.21s-4.71.62-5,.06c-.13-.27.28-.79,1.16-1.3a8.74,8.74,0,0,1,7.62-.21C485.23,184.81,485.66,185.31,485.55,185.59Z" transform="translate(-185.35 -3.1)"/><path class="cls-15" d="M505.45,189.07c-.42.47-1.88-.17-3.68-.35s-3.37.06-3.67-.49c-.14-.26.14-.74.85-1.15a5.37,5.37,0,0,1,5.93.68C505.47,188.32,505.64,188.85,505.45,189.07Z" transform="translate(-185.35 -3.1)"/><path class="cls-15" d="M473.37,174.31l-.08.06a11.15,11.15,0,0,0-4.75,6.87l-.06.28c-.89,4-1.13,8.12-2.06,12.11s-.76,7-4.75,7.94a5.33,5.33,0,0,1-5.57-2.26,3.5,3.5,0,0,1-.35-1.9c.05-9.83-1.92-13.64-1.06-23.85a8.66,8.66,0,0,1,4.15-6.72c2.27-1.35,5-2.72,7.29-1.4s5,6,6.68,8.06" transform="translate(-185.35 -3.1)"/><path class="cls-12" d="M460.93,195.4c-.23-.13-9.5-3.69-10,6s9.36,8.21,9.4,7.93S460.93,195.4,460.93,195.4Z" transform="translate(-185.35 -3.1)"/><path class="cls-13" d="M457.55,205.53s-.17.11-.47.23a1.72,1.72,0,0,1-1.26,0c-1-.43-1.79-2.11-1.75-3.86a5.56,5.56,0,0,1,.6-2.4,2,2,0,0,1,1.34-1.24.86.86,0,0,1,1,.52c.12.28,0,.47.1.49s.21-.15.16-.56a1.12,1.12,0,0,0-.36-.63,1.28,1.28,0,0,0-.92-.29,2.37,2.37,0,0,0-1.84,1.41,5.69,5.69,0,0,0-.73,2.68c0,2,.87,3.85,2.26,4.33a1.84,1.84,0,0,0,1.56-.18C457.52,205.76,457.59,205.55,457.55,205.53Z" transform="translate(-185.35 -3.1)"/><path class="cls-15" d="M465.68,166.91c-2.06-4.08,4.94-9.1,9.85-10.22s11,1.75,15.65,3.72c2.92,1.24,5.8,2.88,9,3a21.47,21.47,0,0,0,6.28-1,15.74,15.74,0,0,1,6.3-.72,5.86,5.86,0,0,1,4.83,3.66c.65,2-.73,4.63-2.86,4.75a4.78,4.78,0,1,1,.54,8.93c1.47-.93,3.44,1,3.13,2.67s-2,2.83-3.62,3.4c-4.19,1.44-8.86.48-12.93-1.27s-7.76-4.27-11.79-6.13-10.74-5.14-15-4c-3.16.83-5.6,4.35-7.26,3.39a6,6,0,0,1-2.71-4.62,17.46,17.46,0,0,1,.65-5.5" transform="translate(-185.35 -3.1)"/><path class="cls-16" d="M515.9,169.89c-.08-.06-.56.67-1.7,1.72a13.43,13.43,0,0,1-5.67,3,12.31,12.31,0,0,1-9.22-1.14c-3.17-1.75-5.75-4.94-8.76-8s-6.67-5.47-10.47-6.14a11.18,11.18,0,0,0-9.53,2.45,8.45,8.45,0,0,0-2.72,6.08,6.19,6.19,0,0,0,.27,1.82c.14.39.23.59.27.58a15.34,15.34,0,0,1-.17-2.39,8.34,8.34,0,0,1,2.8-5.59,10.67,10.67,0,0,1,8.92-2.08c3.55.67,7,2.94,9.95,6s5.61,6.26,9,8.09a13.21,13.21,0,0,0,15.57-2.39,9,9,0,0,0,1.14-1.43A1.88,1.88,0,0,0,515.9,169.89Z" transform="translate(-185.35 -3.1)"/><path class="cls-16" d="M458.5,194.77s.44-.23.87-1a6.48,6.48,0,0,0,.77-3.47c.05-3.15-2.44-6.73-2.43-11.07a9.8,9.8,0,0,1,1.55-5.7,7.43,7.43,0,0,1,3.86-2.81,6.43,6.43,0,0,1,3.28-.18c.76.19,1.17.41,1.21.33s-.31-.37-1.11-.68a6,6,0,0,0-3.56-.13,7.85,7.85,0,0,0-4.4,3,10.27,10.27,0,0,0-1.79,6.22,17.72,17.72,0,0,0,1.36,6.26,18.73,18.73,0,0,1,1.36,4.83A7.55,7.55,0,0,1,458.5,194.77Z" transform="translate(-185.35 -3.1)"/><path class="cls-5" d="M498.49,475.54l-2.19.06-6.43.09c-5.65.09-14,.3-24.7.83s-23.82,1.5-39,3.23c-7.57.91-15.66,1.95-24.18,3.36s-17.51,3.07-26.86,5.2-19.08,4.66-29,7.91A193.61,193.61,0,0,0,316,508.64a98.64,98.64,0,0,0-14.44,9.22,46.12,46.12,0,0,0-11.82,12.93c-.36.65-.74,1.29-1.08,2l-.84,2.08-.41,1c-.12.35-.19.72-.28,1.08l-.52,2.19a21.79,21.79,0,0,0,.44,9c1.44,6,5.38,11.11,9.89,15.44,9.23,8.67,21,14.69,33.19,19.75a270.68,270.68,0,0,0,38.67,12.23c26.81,6.54,55.23,10.38,84.41,12.43a669.64,669.64,0,0,0,85.4.34A537.59,537.59,0,0,0,617.5,598a333.6,333.6,0,0,0,35.75-9.64,177.63,177.63,0,0,0,32-13.92,86.8,86.8,0,0,0,13.47-9.6,38.89,38.89,0,0,0,9.76-12.42l.72-1.79a10.06,10.06,0,0,0,.63-1.82l.44-1.86c.07-.31.17-.62.21-.93l.08-.95a18.75,18.75,0,0,0-.55-7.43,26.55,26.55,0,0,0-3.12-6.64,39.94,39.94,0,0,0-4.56-5.6,68.45,68.45,0,0,0-10.77-8.88,113.34,113.34,0,0,0-11.42-6.81,198.26,198.26,0,0,0-22.27-9.92,336.27,336.27,0,0,0-37.34-11.51c-10.4-2.6-18.58-4.24-24.13-5.3-2.77-.55-4.89-.91-6.32-1.18s-2.15-.41-2.15-.41,2.94.43,8.5,1.44,13.75,2.6,24.18,5.16A331.38,331.38,0,0,1,658,499.4a197.84,197.84,0,0,1,22.34,9.89,112.37,112.37,0,0,1,11.49,6.81A69.29,69.29,0,0,1,702.67,525a42,42,0,0,1,4.64,5.67,27,27,0,0,1,3.19,6.8,19.25,19.25,0,0,1,.59,7.64l-.08,1c0,.32-.14.63-.21,1l-.46,1.91a9.51,9.51,0,0,1-.64,1.86l-.73,1.84a39.6,39.6,0,0,1-9.89,12.63A87.71,87.71,0,0,1,685.52,575a178.87,178.87,0,0,1-32.06,14,334.29,334.29,0,0,1-35.82,9.69,536,536,0,0,1-78.94,10.35,671.29,671.29,0,0,1-85.51-.32c-29.21-2.06-57.67-5.91-84.53-12.47A271.66,271.66,0,0,1,329.89,584c-12.24-5.09-24.06-11.14-33.4-19.92-4.56-4.39-8.59-9.62-10.07-15.78A22.62,22.62,0,0,1,286,539l.54-2.25c.1-.38.17-.76.29-1.12l.43-1.07.86-2.13c.34-.68.74-1.33,1.11-2a46.64,46.64,0,0,1,12-13.11,98.7,98.7,0,0,1,14.54-9.26A193.66,193.66,0,0,1,346,495.66c10-3.24,19.72-5.77,29.09-7.88s18.36-3.8,26.9-5.15,16.63-2.42,24.21-3.31c15.16-1.69,28.27-2.59,39-3.1s19.07-.65,24.72-.69h6.43C497.75,475.52,498.49,475.54,498.49,475.54Z" transform="translate(-185.35 -3.1)"/><path class="cls-5" d="M378.18,364l-2.48.51c-1.64.33-4.08.79-7.27,1.47-6.39,1.33-15.79,3.38-27.74,6.64a284.4,284.4,0,0,0-42.5,15c-4,1.84-8.08,3.85-12.16,6.17a112.91,112.91,0,0,0-12.2,7.83A66.81,66.81,0,0,0,262.56,412a35.47,35.47,0,0,0-7.63,14,25.71,25.71,0,0,0,1.21,16.49,42.6,42.6,0,0,0,10.19,14.25c8.71,8.36,19.77,14.69,31.54,20.14,23.71,10.78,50.8,18,79.53,23.39a666.23,666.23,0,0,0,91.25,10.07,785.42,785.42,0,0,0,98.55-1.76c33.67-2.8,66.42-7.75,97.24-15.84a291.63,291.63,0,0,0,44.29-15.21,151.1,151.1,0,0,0,20-10.68,76.18,76.18,0,0,0,16.85-14.22c4.7-5.49,8.16-12.22,8.36-19.32a16.48,16.48,0,0,0-.09-2.63,16.28,16.28,0,0,0-.28-2.61L753,425.5a18.43,18.43,0,0,0-.84-2.47,36.88,36.88,0,0,0-5-9,69.45,69.45,0,0,0-14.94-13.79,135.12,135.12,0,0,0-17.09-10,242.12,242.12,0,0,0-35-13.75c-11.54-3.61-22.79-6.47-33.6-8.86-43.33-9.35-79.25-11.89-104-13.26-12.37-.64-22-.67-28.51-.83l-7.42-.17c-1.67,0-2.53-.08-2.53-.08s.86,0,2.53,0l7.42.08c6.52.12,16.15.1,28.53.69,24.71,1.28,60.66,3.74,104.05,13,10.82,2.38,22.1,5.23,33.65,8.83a241.84,241.84,0,0,1,35.12,13.74,136,136,0,0,1,17.19,10,69.77,69.77,0,0,1,15.09,13.93,37.19,37.19,0,0,1,5.16,9.19,18,18,0,0,1,.86,2.53l.59,2.62a18.46,18.46,0,0,1,.29,2.68,17.41,17.41,0,0,1,.09,2.7,27.33,27.33,0,0,1-2.55,10.54,39.21,39.21,0,0,1-6,9.22,77,77,0,0,1-17,14.37A153.15,153.15,0,0,1,709,478.19a291.68,291.68,0,0,1-44.4,15.26c-30.87,8.12-63.66,13.08-97.37,15.89a786.93,786.93,0,0,1-98.65,1.74A665.89,665.89,0,0,1,377.28,501c-28.78-5.42-55.9-12.68-79.67-23.51C285.8,472,274.7,465.6,265.92,457.16a43.15,43.15,0,0,1-10.31-14.47,26.27,26.27,0,0,1-1.21-16.83,35.86,35.86,0,0,1,7.77-14.2,67.36,67.36,0,0,1,11.37-10.42,114.68,114.68,0,0,1,12.27-7.83c4.1-2.32,8.2-4.33,12.2-6.15a283.63,283.63,0,0,1,42.6-14.93c12-3.22,21.39-5.22,27.79-6.5S378.18,364,378.18,364Z" transform="translate(-185.35 -3.1)"/><path class="cls-5" d="M429.79,586.16l-7.35,1.16c-4.81.77-11.9,2-20.94,4a267,267,0,0,0-32.43,9.14,153.49,153.49,0,0,0-19.29,8.38,84.19,84.19,0,0,0-9.78,6,50.93,50.93,0,0,0-9,8,28.66,28.66,0,0,0-3.55,5.12,20.27,20.27,0,0,0-2.2,6c-.08.53-.2,1.06-.26,1.59l-.09,1.62c0,1.08.14,2.17.24,3.26a29.35,29.35,0,0,0,.84,3.19l.62,1.55.32.78.41.73A36.21,36.21,0,0,0,336.18,657,72.88,72.88,0,0,0,348,665a157.1,157.1,0,0,0,27.75,11.59,289.21,289.21,0,0,0,30.95,7.91,461,461,0,0,0,68.1,8.14,554.09,554.09,0,0,0,73.63-1.29c25.15-2.17,49.61-6,72.53-12.49a182.77,182.77,0,0,0,32.68-12.46,81.29,81.29,0,0,0,14.21-9.18c1.13-.83,2.07-1.86,3.11-2.79s1.87-2,2.81-3a27.5,27.5,0,0,0,4.19-7,18.78,18.78,0,0,0-.65-15.53A37.36,37.36,0,0,0,667.21,617c-8.11-6.45-17.32-10.79-26.32-14.4a220.34,220.34,0,0,0-26.78-8.58c-8.75-2.26-17.24-4-25.38-5.47a502,502,0,0,0-78-7.13L482,581.3s10.24-.13,28.76,0a498.08,498.08,0,0,1,78,7c8.16,1.42,16.66,3.19,25.42,5.44A223.26,223.26,0,0,1,641,602.28c9,3.62,18.26,8,26.43,14.44a37.58,37.58,0,0,1,10.26,11.94,19.2,19.2,0,0,1,.67,15.86,27.43,27.43,0,0,1-4.25,7.12c-.95,1-1.82,2.12-2.84,3.07s-2,2-3.13,2.81a81.83,81.83,0,0,1-14.29,9.24,182.75,182.75,0,0,1-32.76,12.5c-23,6.49-47.44,10.34-72.61,12.52a553.42,553.42,0,0,1-73.7,1.28,460.44,460.44,0,0,1-68.15-8.18,287,287,0,0,1-31-7.94,156.76,156.76,0,0,1-27.82-11.64,72.1,72.1,0,0,1-11.91-8A36.52,36.52,0,0,1,327,646.76l-.42-.74-.32-.79-.63-1.57a31.13,31.13,0,0,1-.86-3.25c-.1-1.11-.23-2.22-.23-3.32l.09-1.65c.06-.55.18-1.08.27-1.62a20.73,20.73,0,0,1,2.23-6.05,30,30,0,0,1,3.6-5.17,51.2,51.2,0,0,1,9.07-8.06,84.75,84.75,0,0,1,9.83-6A152.23,152.23,0,0,1,369,600.19a264.39,264.39,0,0,1,32.48-9.07c9.06-2,16.15-3.15,21-3.89S429.79,586.16,429.79,586.16Z" transform="translate(-185.35 -3.1)"/><path class="cls-5" d="M622,720.79a15.24,15.24,0,0,0-1.23-5.36c-1.36-3.38-5-7.58-10.77-11.37-11.57-7.62-30.91-14-55.25-17.92a337.18,337.18,0,0,0-40.17-3.93,385.07,385.07,0,0,0-46.31.85c-8.13.64-16.45,1.58-24.89,2.92a239.17,239.17,0,0,0-25.56,5.39c-4.28,1.16-8.56,2.49-12.8,4a101.13,101.13,0,0,0-12.49,5.45,50.41,50.41,0,0,0-11.32,7.83c-3.35,3.13-6.07,7.35-6.13,12.08s2.77,9,6.11,12.08a50.13,50.13,0,0,0,11.32,7.84,101.27,101.27,0,0,0,12.5,5.45c4.24,1.56,8.51,2.9,12.8,4.05a239.41,239.41,0,0,0,25.57,5.4c8.44,1.34,16.76,2.28,24.89,2.92a385.2,385.2,0,0,0,46.32.85,337,337,0,0,0,40.16-3.93c24.35-3.91,43.68-10.31,55.25-17.92,5.75-3.8,9.41-8,10.77-11.37a15.24,15.24,0,0,0,1.23-5.36c0,.22,0,.6-.1,1.41a7.53,7.53,0,0,1-.31,1.7,10.85,10.85,0,0,1-.76,2.28c-1.35,3.39-5,7.62-10.77,11.44-11.57,7.66-30.92,14.09-55.27,18a337.06,337.06,0,0,1-40.19,4,385.59,385.59,0,0,1-46.35-.83c-8.14-.64-16.47-1.57-24.92-2.92a237.93,237.93,0,0,1-25.6-5.39c-4.29-1.15-8.58-2.49-12.82-4A101.93,101.93,0,0,1,392.4,741,50.55,50.55,0,0,1,381,733.08a22.34,22.34,0,0,1-4.34-5.51,13.23,13.23,0,0,1,0-13.58,22.58,22.58,0,0,1,4.34-5.51,50.9,50.9,0,0,1,11.4-7.88A103.34,103.34,0,0,1,405,695.13c4.24-1.55,8.53-2.89,12.82-4a237.42,237.42,0,0,1,25.6-5.39c8.44-1.34,16.77-2.27,24.91-2.91a385.4,385.4,0,0,1,46.34-.83,334.79,334.79,0,0,1,40.19,4c24.36,3.94,43.71,10.37,55.28,18,5.76,3.82,9.42,8,10.77,11.44a10.67,10.67,0,0,1,.76,2.28,7.53,7.53,0,0,1,.31,1.7C622,720.19,622,720.57,622,720.79Z" transform="translate(-185.35 -3.1)"/><path class="cls-5" d="M296.76,492.45a4.7,4.7,0,1,1-4.7-4.7A4.7,4.7,0,0,1,296.76,492.45Z" transform="translate(-185.35 -3.1)"/><circle class="cls-5" cx="531.79" cy="492.53" r="4.7"/><path class="cls-5" d="M530.13,668.83a4.7,4.7,0,1,1-4.7-4.7A4.7,4.7,0,0,1,530.13,668.83Z" transform="translate(-185.35 -3.1)"/><path class="cls-5" d="M387.4,548a2.35,2.35,0,1,1-2.35-2.35A2.35,2.35,0,0,1,387.4,548Z" transform="translate(-185.35 -3.1)"/><path class="cls-5" d="M679.66,605a2.35,2.35,0,1,1-2.35-2.35A2.35,2.35,0,0,1,679.66,605Z" transform="translate(-185.35 -3.1)"/><path class="cls-5" d="M494.13,713.69a2.35,2.35,0,1,1-2.35-2.35A2.35,2.35,0,0,1,494.13,713.69Z" transform="translate(-185.35 -3.1)"/><circle class="cls-5" cx="186.11" cy="299.14" r="1.18"/><path class="cls-5" d="M583.35,483c-57.08,15.11-112.09,14-172.06,0l-7-109.61c62,12.07,124.17,10.54,179.06-2.59Z" transform="translate(-185.35 -3.1)"/><g class="cls-9"><path class="cls-10" d="M583.35,483c-57.08,15.11-112.09,14-172.06,0l-7-109.61c62,12.07,124.17,10.54,179.06-2.59Z" transform="translate(-185.35 -3.1)"/></g><path class="cls-5" d="M574.5,466.36s-.11.08-.35.18l-1.08.46c-1,.38-2.34,1-4.19,1.66a159.12,159.12,0,0,1-15.79,5c-13.51,3.6-32.79,6.47-54.15,6.17a315.5,315.5,0,0,1-54.27-5.8c-6.87-1.31-12.39-2.51-16.2-3.4-1.9-.43-3.37-.8-4.37-1l-1.13-.3a1.61,1.61,0,0,1-.38-.12s.13,0,.39,0l1.15.22,4.41.91c3.82.8,9.36,1.92,16.23,3.15A332.79,332.79,0,0,0,498.94,479c21.3.29,40.51-2.48,54-5.94,6.76-1.7,12.15-3.41,15.82-4.71,1.86-.62,3.26-1.19,4.23-1.52l1.11-.39Z" transform="translate(-185.35 -3.1)"/><path class="cls-5" d="M490.64,470.83c-7.16,2.12-14.5,1.56-22-.73v-39a54.91,54.91,0,0,1,22,0Z" transform="translate(-185.35 -3.1)"/><path class="cls-5" d="M526.12,468.51a1.25,1.25,0,0,1,0-.3c0-.23,0-.51,0-.85,0-.79,0-1.88-.09-3.25-.05-2.89-.14-7-.24-12.12-.15-10.35-.37-24.84-.62-41.64l.29.36a58.76,58.76,0,0,0-22.74,0l.31-.39v.78c.23,23.06.44,43.88.59,58.75l-.21-.26a51.37,51.37,0,0,0,9.58,1.17,35.67,35.67,0,0,0,7.23-.59A35,35,0,0,0,524.6,469l1.11-.39a3,3,0,0,1,.41-.12,1.51,1.51,0,0,1-.35.18l-1.12.47a31.31,31.31,0,0,1-4.43,1.32,34.58,34.58,0,0,1-7.3.72,50.85,50.85,0,0,1-9.68-1.07l-.21,0v-.21c-.21-14.87-.51-35.7-.83-58.75,0-.27,0-.53,0-.78V410l.31-.06a59.29,59.29,0,0,1,23,0l.29.06v.3c.13,16.87.24,31.43.31,41.83,0,5.1,0,9.18,0,12.05,0,1.36,0,2.42,0,3.2,0,.33,0,.6,0,.82A1.1,1.1,0,0,1,526.12,468.51Z" transform="translate(-185.35 -3.1)"/><path class="cls-5" d="M559.89,463.92c-5.88,3.18-13.62,3.61-22,3.13V402.61c7.48-1.59,14.83-1.89,22,0Z" transform="translate(-185.35 -3.1)"/><path class="cls-5" d="M455.75,467.64a16.29,16.29,0,0,1-.07-1.65c0-1.13-.06-2.64-.09-4.5,0-3.92-.1-9.35-.17-15.83l.21.31c-5.88-2.15-13.25-4.2-21.16-3.51h0l.34-.38c0,8,0,15.57,0,22l-.2-.3a41.39,41.39,0,0,0,8.48,2.42c2.6.47,4.89.73,6.78.92l4.4.37a15.53,15.53,0,0,1,1.56.17,10.17,10.17,0,0,1-1.57,0c-1,0-2.51-.06-4.42-.19s-4.21-.35-6.84-.78a40.73,40.73,0,0,1-8.65-2.34l-.2-.09v-.22c0-6.41,0-13.94-.05-22v-.35l.34,0h0c8.1-.71,15.56,1.42,21.47,3.65l.21.09v.22c-.07,6.57-.13,12.07-.17,16,0,1.84-.06,3.32-.08,4.43A10.19,10.19,0,0,1,455.75,467.64Z" transform="translate(-185.35 -3.1)"/><path class="cls-5" d="M466.09,410.63a22.54,22.54,0,0,1-4.3.27c-2.66,0-6.33,0-10.38-.25s-7.71-.62-10.35-1a22.66,22.66,0,0,1-4.24-.77,25.8,25.8,0,0,1,4.3.23c2.64.21,6.29.5,10.33.74s7.7.38,10.35.47A26.62,26.62,0,0,1,466.09,410.63Z" transform="translate(-185.35 -3.1)"/><path class="cls-5" d="M462.81,415.43a18.87,18.87,0,0,1-3.77,0c-2.32-.11-5.54-.31-9.08-.58s-6.75-.57-9.07-.81a19.11,19.11,0,0,1-3.73-.56,18.16,18.16,0,0,1,3.78,0c2.33.11,5.54.31,9.08.58s6.74.56,9.05.81A17.41,17.41,0,0,1,462.81,415.43Z" transform="translate(-185.35 -3.1)"/><path class="cls-5" d="M470.86,421.71a11,11,0,0,1,0-1.36c0-.94.09-2.21.15-3.8.16-3.33.38-8,.65-13.76l.28.3a316.63,316.63,0,0,1-40.67-2.26l.43-.36h0v.29l0,.31,0,.62-.07,1.24c-.05.82-.09,1.64-.14,2.46-.1,1.62-.19,3.23-.28,4.81-.19,3.16-.38,6.23-.55,9.16l-.32-.38c11.76,1.44,21.92,2.06,29.13,2.34l8.43.25,2.22.07c.51,0,.79,0,.81,0a4.4,4.4,0,0,1-.75.06c-.5,0-1.3.05-2.28.06-2,0-4.84,0-8.45,0-7.21-.15-17.4-.67-29.2-2.07l-.34,0,0-.34c.17-2.94.34-6,.52-9.16.09-1.59.18-3.19.28-4.82,0-.81.09-1.63.14-2.45l.07-1.24,0-.62,0-.31v-.3h0l.43-.36A346.35,346.35,0,0,0,472,402.53h.3l0,.29c-.4,5.81-.72,10.55-1,13.91-.12,1.56-.22,2.8-.29,3.73S470.87,421.73,470.86,421.71Z" transform="translate(-185.35 -3.1)"/><path class="cls-5" d="M475.87,430c-.19.1-1.41-1.68-2.83-3.93s-2.37-4.23-2.18-4.34,1.4,1.68,2.83,3.93S476.05,429.88,475.87,430Z" transform="translate(-185.35 -3.1)"/><path class="cls-5" d="M237.37,287.25,256,400.13s28.48,53.32,104.16,65.34L348,364.71S278,343.07,237.37,287.25Z" transform="translate(-185.35 -3.1)"/><g class="cls-9"><path class="cls-10" d="M237.37,287.25,256,400.13s28.48,53.32,104.16,65.34L348,364.71S278,343.07,237.37,287.25Z" transform="translate(-185.35 -3.1)"/></g><path class="cls-5" d="M350.43,457.43l-.48-.11-1.39-.41-5.34-1.62c-2.3-.74-5.18-1.5-8.36-2.8l-5.16-2c-1.82-.69-3.76-1.41-5.71-2.36-3.94-1.8-8.31-3.65-12.76-6.15-4.56-2.3-9.18-5.19-14-8.27a140.82,140.82,0,0,1-28.12-24.37A83.61,83.61,0,0,1,259,395.22l0,0v-.07c-3.41-22-6.4-41.32-8.55-55.2-1-6.89-1.86-12.42-2.44-16.29l-.63-4.38c-.05-.47-.1-.85-.14-1.14a1.92,1.92,0,0,1,0-.39,1.16,1.16,0,0,1,.1.38c.05.29.12.66.21,1.13l.75,4.36c.64,3.86,1.54,9.38,2.67,16.25,2.21,13.87,5.3,33.19,8.8,55.17l0-.11a84.68,84.68,0,0,0,10.05,14,142,142,0,0,0,27.93,24.28c4.8,3.08,9.39,6,13.92,8.29,4.42,2.52,8.77,4.4,12.68,6.23,1.94.95,3.86,1.69,5.68,2.39l5.11,2c3.17,1.33,6,2.13,8.31,2.92l5.29,1.76,1.37.47A2.43,2.43,0,0,1,350.43,457.43Z" transform="translate(-185.35 -3.1)"/><path class="cls-5" d="M343.78,424.66a1.67,1.67,0,0,1-.26.24l-.8.64L339.57,428l-11.89,9.11-.18.14-.14-.19-14.54-20.11.44.07L302.12,425l-.37.26-.16-.43-14.37-39-2.06-5.61.7,0c-3.13,6.21-6.16,12.24-9.08,18l-.39.78-.29-.82c-7.89-22.77-14.6-42.11-19-54.66l.4,0c-1.19,5-2.13,9-2.78,11.76-.33,1.32-.58,2.35-.77,3.1-.08.32-.15.58-.21.79s-.08.27-.09.26a1.41,1.41,0,0,1,0-.27l.15-.81.66-3.12,2.6-11.8.15-.71.25.69C262,356,268.78,375.25,276.8,398l-.68,0,9.06-18,.39-.79.31.83,2.06,5.61c5.12,13.95,10,27.19,14.3,39l-.53-.16,11.18-7.89.26-.18.19.25,14.39,20.22-.32,0,12-8.93,3.22-2.36.84-.59Z" transform="translate(-185.35 -3.1)"/><path class="cls-5" d="M341.17,370.53a6.65,6.65,0,0,1-1.59-.36c-1-.27-2.46-.71-4.23-1.3a145.19,145.19,0,0,1-26.58-12c-1.62-.95-2.91-1.74-3.78-2.32a6.78,6.78,0,0,1-1.31-.95,6.07,6.07,0,0,1,1.46.7l3.89,2.09c3.28,1.76,7.86,4.11,13,6.45s10,4.22,13.46,5.52l4.14,1.53A6.67,6.67,0,0,1,341.17,370.53Z" transform="translate(-185.35 -3.1)"/><path class="cls-5" d="M344.17,375.21a15.54,15.54,0,0,1-3.65-.65,83.51,83.51,0,0,1-8.58-2.56,85.64,85.64,0,0,1-8.26-3.46,15.52,15.52,0,0,1-3.24-1.82,20.24,20.24,0,0,1,3.46,1.33c2.11.87,5,2.05,8.3,3.22s6.27,2.11,8.46,2.77A20.36,20.36,0,0,1,344.17,375.21Z" transform="translate(-185.35 -3.1)"/><path class="cls-5" d="M314.35,417c0,.94-.57,1.7-1.27,1.7s-1.27-.76-1.27-1.7.57-1.69,1.27-1.69S314.35,416,314.35,417Z" transform="translate(-185.35 -3.1)"/><ellipse class="cls-5" cx="100.04" cy="378.18" rx="1.27" ry="1.69"/><path class="cls-5" d="M258.71,344c0,.94-.57,1.69-1.27,1.69s-1.27-.75-1.27-1.69.57-1.69,1.27-1.69S258.71,343.11,258.71,344Z" transform="translate(-185.35 -3.1)"/><path class="cls-5" d="M731.06,307.36,721.71,422s-27.3,49-102.46,50.91l9.28-115.47S694.11,354.82,731.06,307.36Z" transform="translate(-185.35 -3.1)"/><path class="cls-5" d="M729.67,301.38c-2.46-7.94-8.39-19.25-22.53-21.61L690.43,434s31.37-6.26,32.21-23.46c.07-1.48,6.35-78.15,7.92-97.13A31.17,31.17,0,0,0,729.67,301.38Z" transform="translate(-185.35 -3.1)"/><g class="cls-9"><path class="cls-10" d="M731.06,307.36,721.71,422s-27.3,49-102.46,50.91l9.28-115.47S694.11,354.82,731.06,307.36Z" transform="translate(-185.35 -3.1)"/></g><path class="cls-5" d="M728.82,336.59a68,68,0,0,0-12,37.09c-.08,3.81.14,7.75-1.3,11.27s-5.23,6.45-8.9,5.45c-3.83-1-5.54-5.59-8.91-7.71-3-1.89-7-1.57-10.08.21A16.94,16.94,0,0,0,681,391c-2.74,6.29-2.92,13.38-4.93,19.93s-7,13.16-13.8,13.46c-2.5.11-5-.65-7.48-.57-5.29.16-9.88,4.09-12.35,8.77s-3.2,10.06-3.9,15.3c0,0,40.07,3.82,85-49.29Z" transform="translate(-185.35 -3.1)"/><path class="cls-5" d="M665.11,406.16c0,1.42-.7,2.58-1.57,2.58s-1.57-1.16-1.57-2.58.7-2.58,1.57-2.58S665.11,404.74,665.11,406.16Z" transform="translate(-185.35 -3.1)"/><path class="cls-5" d="M684,358.48c0,1.42-.71,2.57-1.58,2.57s-1.57-1.15-1.57-2.57.71-2.58,1.57-2.58S684,357.06,684,358.48Z" transform="translate(-185.35 -3.1)"/><path class="cls-5" d="M727.92,342.13a5.19,5.19,0,0,1-.26.65c-.22.47-.5,1.09-.85,1.86l-3.3,7c-2.92,6.07-7,14.64-12,24.89l-.16.34-.32-.2-28.35-17.94.56-.17c-.37.91-.77,1.9-1.18,2.89-7,17.18-13.42,32.88-18.3,44.82l-.13.3-.28-.16c-7.07-4-12.84-7.17-16.84-9.34-2-1.09-3.57-1.92-4.65-2.47l-1.22-.6a1.63,1.63,0,0,1-.43-.19c0-.14,2.4.86,6.45,3s9.87,5.21,17,9.12l-.41.15c4.83-12,11.19-27.69,18.13-44.88l1.18-2.9.18-.43.38.25,28.3,18-.48.13,12.19-24.77c1.48-2.94,2.64-5.27,3.47-6.92l.94-1.81A3.09,3.09,0,0,1,727.92,342.13Z" transform="translate(-185.35 -3.1)"/></g></g></g></svg>