<svg xmlns="http://www.w3.org/2000/svg" xmlns:xlink="http://www.w3.org/1999/xlink" viewBox="0 0 40 31.36"><defs><style>.cls-1{fill:none;}.cls-2{clip-path:url(#clip-path);}.cls-3{fill:#5bb888;}</style><clipPath id="clip-path" transform="translate(0 -4.32)"><rect class="cls-1" width="40" height="40"/></clipPath></defs><g id="Layer_2" data-name="Layer 2"><g id="Layer_1-2" data-name="Layer 1"><g class="cls-2"><path class="cls-3" d="M32.24,17.6v4.75a3.29,3.29,0,0,1-2.63,3.45,7.22,7.22,0,0,1-1.54.11c-.35,0-.46.09-.45.44,0,1.66,0,3.32,0,5,0,.12,0,.24,0,.45l-2-1.26c-2.29-1.46-4.57-2.93-6.87-4.37a1.38,1.38,0,0,0-.74-.21c-4,0-8,0-12,0a4.36,4.36,0,0,1-2-.36A3.29,3.29,0,0,1,2.18,22.4c0-4.14,0-8.29,0-12.44a3.33,3.33,0,0,1,3.55-3.5H28.67A2.88,2.88,0,0,1,31.74,10l1.12-1.1,1.06-1A5.85,5.85,0,0,0,28.6,4.32H5.94A5.73,5.73,0,0,0,1,7a5.37,5.37,0,0,0-1,3.18c0,.87,0,1.74,0,2.66v8.26s-.43,4,1.25,5.62,5.44,1.15,5.44,1.15L18,28,21,30.12l8.72,5.56v-.55q0-3.39,0-6.76c0-.31.06-.46.4-.55a5.84,5.84,0,0,0,4.21-5.54V15.53Z" transform="translate(0 -4.32)"/><path class="cls-3" d="M13.59,21.57H8.15c-.35,0-.55-.27-.55-.74s.21-.74.56-.74H19c.27,0,.46.21.53.56a.87.87,0,0,1-.23.82.64.64,0,0,1-.38.1H13.59Z" transform="translate(0 -4.32)"/><path class="cls-3" d="M15.69,13H8.35a.68.68,0,0,1-.75-.74.69.69,0,0,1,.75-.74H23a.68.68,0,0,1,.71.55.75.75,0,0,1-.3.83,1.15,1.15,0,0,1-.52.1Z" transform="translate(0 -4.32)"/><path class="cls-3" d="M15.69,17.49H8.35a.68.68,0,0,1-.75-.74A.7.7,0,0,1,8.35,16H23a.69.69,0,0,1,.71.56.74.74,0,0,1-.3.82,1.15,1.15,0,0,1-.52.1H15.69Z" transform="translate(0 -4.32)"/><path class="cls-3" d="M32.86,8.9s2.85-2.63,2.87-2.57A3,3,0,0,1,39,6.42a2.88,2.88,0,0,1,.12,4.24c-.67.68-1.56,1.71-2.25,2.39l-4-4.15m0,0s4.1,4.07,4,4.15c-1.75,1.75-5.33,5.2-7.1,7a1.34,1.34,0,0,1-.61.35c-1.23.26-2.46.51-3.69.74a.76.76,0,0,1-1-1c.14-.77.31-1.53.46-2.29.09-.44.17-.89.26-1.38C25.05,16.45,32.86,8.9,32.86,8.9Zm3,3L33.76,9.82l-.24.23c-2.18,2.18-4.37,4.36-6.54,6.56a1.42,1.42,0,0,0-.32.62c-.1.3-.14.63-.21.94s-.14.77-.22,1.19l.26,0c.65-.13,1.3-.25,1.94-.39a1.18,1.18,0,0,0,.52-.27c1.73-1.71,3.44-3.44,5.16-5.15C34.68,13,35.26,12.42,35.81,11.89ZM37,10.7,38,9.6l.18-.19a1.56,1.56,0,0,0,0-1.82,1.37,1.37,0,0,0-1.68-.33,17.63,17.63,0,0,0-1.62,1.38Z" transform="translate(0 -4.32)"/></g></g></g></svg>