<svg xmlns="http://www.w3.org/2000/svg" xmlns:xlink="http://www.w3.org/1999/xlink" viewBox="0 0 389.15 238.35"><defs><style>.cls-1{fill:none;}.cls-2{clip-path:url(#clip-path);}.cls-3{fill:#e1e9f6;}.cls-10,.cls-11,.cls-12,.cls-13,.cls-14,.cls-15,.cls-16,.cls-17,.cls-18,.cls-19,.cls-20,.cls-21,.cls-22,.cls-23,.cls-24,.cls-25,.cls-26,.cls-3,.cls-30,.cls-31,.cls-32,.cls-36,.cls-37,.cls-38,.cls-39,.cls-4,.cls-40,.cls-41,.cls-42,.cls-43,.cls-44,.cls-8,.cls-9{fill-rule:evenodd;}.cls-4{fill:#bccdea;}.cls-5{fill:#85abd8;}.cls-6{fill:#b1c9e8;}.cls-7{fill:#e8e6ed;}.cls-12,.cls-8{fill:#14162b;}.cls-8{stroke:#14172c;stroke-miterlimit:22.93;stroke-width:0.22px;}.cls-9{fill:#d2cbd2;}.cls-10,.cls-28{fill:#fff;}.cls-11{fill:#ec675f;}.cls-13{fill:#393f55;}.cls-14{fill:#525a6e;}.cls-15{fill:#f6ab87;}.cls-16{fill:#f28e74;}.cls-17,.cls-35{fill:#14172c;}.cls-18{fill:#05060d;}.cls-19{fill:#0e2e46;}.cls-20{fill:#0077c0;}.cls-21{fill:#1a1c37;}.cls-22{fill:#ccc6d3;}.cls-23{fill:#1c2241;}.cls-24{fill:#161b32;}.cls-25,.cls-34{fill:#333b5e;}.cls-26{fill:#020204;}.cls-27,.cls-32{fill:#e3e1e7;}.cls-29,.cls-38{fill:#d82d70;}.cls-30{fill:#ea5192;}.cls-31,.cls-33{fill:#aeadbe;}.cls-36{fill:#daeef1;}.cls-37{fill:#004b7f;}.cls-39{fill:#aaa7b6;}.cls-40{fill:#9a94a1;}.cls-41{fill:#f2eff1;}.cls-42{fill:#d5d0d8;}.cls-43{fill:#444e6c;}.cls-44{fill:#12253a;}</style><clipPath id="clip-path" transform="translate(-0.43 -94.83)"><rect class="cls-1" width="390" height="428"/></clipPath></defs><g id="Layer_2" data-name="Layer 2"><g id="Layer_1-2" data-name="Layer 1"><g class="cls-2"><path class="cls-3" d="M89.05,251.64H56.8A31.65,31.65,0,0,0,25.24,283.2h0A31.65,31.65,0,0,0,56.8,314.76H329.52a51.26,51.26,0,0,0,51.11-51.11h0a51.25,51.25,0,0,0-51.11-51.1h0a21.68,21.68,0,0,1-21.61-21.61h0a21.67,21.67,0,0,1,21.61-21.61h26A22.53,22.53,0,0,0,378,146.86h0a22.53,22.53,0,0,0-22.47-22.47H322.64a8.76,8.76,0,0,1-8.74-8.74h0a8.77,8.77,0,0,1,8.74-8.75h5.8a6.06,6.06,0,0,0,6-6h0a6.05,6.05,0,0,0-6-6h-38c-8,0-8.9,9.46-29.14,9.46H203a7.91,7.91,0,0,0-7.88,7.88h0a7.91,7.91,0,0,0,7.88,7.88h7.57a11.44,11.44,0,0,1,11.41,11.41h0a11.44,11.44,0,0,1-11.41,11.41H199.13c-30.74,0-35.08,8-40.47,24s-33.34,17.27-33.34,17.27H87.08a17.25,17.25,0,0,0-17.2,17.2h0a17.25,17.25,0,0,0,17.2,17.2h2a16.58,16.58,0,0,1,16.54,16.54h0a16.59,16.59,0,0,1-16.54,16.55ZM345.38,106.9a6,6,0,1,1,6-6A6,6,0,0,1,345.38,106.9Z" transform="translate(-0.43 -94.83)"/><path class="cls-4" d="M91.77,314.76h2.76V298L105,308.45l-6.31,6.31h2.61l5-5,5,5h2.61l-6.31-6.31L118.09,298v16.78h2.76V184.15h-2.76v3.18l-3.19-3.18h-2.6l5.79,5.79v.16l-11.78,11.77L94.53,190.1v-.16l5.79-5.79H97.71l-3.18,3.18v-3.18H91.77v34.63a15.11,15.11,0,0,1,2.76.71V219l.76.76a16.67,16.67,0,0,1,9.07,9.07l.65.65-.29.29a17.15,17.15,0,0,1,.55,2.05l1-1,11.78,11.78v.15l-11.78,11.78-6.71-6.7a14.77,14.77,0,0,1-1.49,1.11l6.9,6.9L94.53,266.29V250.7a16.93,16.93,0,0,1-2.76.71v63.35Zm2.76-22.15V271.66L105,282.14,94.53,292.61Zm0-79v-21L105,203.18,94.53,213.65Zm23.56-21v21l-10.48-10.47,10.48-10.48Zm0,26.32V240L107.61,229.5,118.09,219Zm0,26.32v21l-10.48-10.47,10.48-10.48Zm0,26.32v20.95l-10.48-10.47,10.48-10.48Zm-23.56-55.4,11.78-11.78,11.78,11.78v.16l-11.78,11.77L94.53,216.42v-.16Zm0,52.64,11.78-11.78,11.78,11.78v.15l-11.78,11.78L94.53,269.05v-.15Zm0,26.32,11.78-11.78,11.78,11.78v.15l-11.78,11.78L94.53,295.37Z" transform="translate(-0.43 -94.83)"/><path class="cls-4" d="M285,314.76h2.76V298l10.47,10.47-6.3,6.31h2.6l5-5,5,5h2.6l-6.3-6.31L311.33,298v16.78h2.77V206a21.56,21.56,0,0,1-2.77-3.46v11.08l-10.47-10.47,7.57-7.57a20.76,20.76,0,0,1-.38-2.23l-8.49,8.49L287.78,190.1v-.16l11.78-11.78,8.74,8.74a18.89,18.89,0,0,1,.51-2.1l-7.95-7.94,10.47-10.48V179.3a22.48,22.48,0,0,1,2.77-3.46V117.51a8.76,8.76,0,0,1-.2-1.86h0a8.93,8.93,0,0,1,.2-1.87v-19h-2.77v13.54L300.86,97.9l3.07-3.07h-2.61l-1.76,1.77-1.77-1.77h-2.61l3.07,3.07-10.47,10.47V95.2A12.12,12.12,0,0,0,285,96.48V314.76Zm2.76-22.15V271.66l10.47,10.48-10.47,10.47Zm0-26.32v-21l10.47,10.48-10.47,10.47Zm0-26.32V219l10.47,10.48L287.78,240Zm0-26.32v-21l10.47,10.48-10.47,10.47Zm0-26.32v-21l10.47,10.48-10.47,10.47Zm0-26.32V140.06l10.47,10.48L287.78,161Zm0-26.32v-21l10.47,10.48-10.47,10.47Zm23.55-21v21l-10.47-10.47,10.47-10.48Zm0,26.32V161l-10.47-10.47,10.47-10.48Zm0,79V240L300.86,229.5,311.33,219Zm0,26.32v21l-10.47-10.47,10.47-10.48Zm0,26.32v20.95l-10.47-10.47,10.47-10.48ZM287.78,111,299.56,99.2,311.33,111v.16l-11.77,11.78-11.78-11.78V111Zm0,26.32,11.78-11.78,11.77,11.78v.16l-11.77,11.77-11.78-11.77v-.16Zm0,26.32,11.78-11.78,11.77,11.78v.16l-11.77,11.77-11.78-11.77v-.16Zm0,52.64,11.78-11.78,11.77,11.78v.16l-11.77,11.77-11.78-11.77v-.16Zm0,26.32,11.78-11.78,11.77,11.78v.15l-11.77,11.78-11.78-11.78v-.15Zm0,26.32,11.78-11.78,11.77,11.78v.15l-11.77,11.78-11.78-11.78v-.15Zm0,26.32,11.78-11.78,11.77,11.78v.15l-11.77,11.78-11.78-11.78Z" transform="translate(-0.43 -94.83)"/><path class="cls-4" d="M82,251.64H77.91v5l-5-5H69.08l8.83,8.83v.23L60.56,278.05,43.2,260.7v-.23l8.4-8.4a30.51,30.51,0,0,0-5.16,1.33l-3.24,3.23v-1.9a32.83,32.83,0,0,0-4.07,2.35v52.24a32.76,32.76,0,0,0,4.07,2.34v-8.34l11.36,11.36c.74.05,1.49.08,2.24.08h1.68L43.2,299.48v-.23l17.36-17.36,17.35,17.36v.23L62.63,314.76h3.84l11.44-11.44v11.44H82V251.64Zm0-66.71a17.3,17.3,0,0,0-9.69,7.66L77.91,187v28.91A17,17,0,0,0,82,217.77V184.93ZM43.2,295.41V264.54L58.64,280,43.2,295.41Zm34.71-30.87v30.87L62.48,280Z" transform="translate(-0.43 -94.83)"/><path class="cls-4" d="M323.88,314.76H328V303.32L338.58,314c1.07-.19,2.12-.42,3.16-.68L328,299.48v-.23l17.36-17.36,17.35,17.36v.23l-9.38,9.38a51.6,51.6,0,0,0,13.45-10.27V228.71a50.81,50.81,0,0,0-5.67-5.2l-15.75,15.76L328,221.92v-.24l8.64-8.64c-1.14-.16-2.3-.28-3.47-.37L328,217.85v-5.36a21,21,0,0,1-4.07-.7v103Zm0-144.68a21.78,21.78,0,0,1,4.07-.7V148.19l15.44,15.44-5.7,5.7h3.84l3.78-3.78,3.77,3.78h3.84l-5.69-5.7,15.43-15.44v20a21.7,21.7,0,0,0,4.07-1.85v-38.9a21.7,21.7,0,0,0-4.07-1.85v14.72l-15.43-15.43.45-.46h-4.75l.46.46L328,140.28V124.39h-4.07v45.69Zm0-63.18h4.56a6.84,6.84,0,0,0,.79-.05L328,105.57v-.23l6.26-6.26a6.1,6.1,0,0,0-1.43-2.4L328,101.5V94.83h-4.07V106.9ZM328,295.41V264.54L343.39,280,328,295.41Zm0-38.78V225.76l15.44,15.43L328,256.63Zm34.71-30.87v30.87l-15.43-15.44,15.43-15.43Zm0,38.78v30.87L347.23,280l15.43-15.43ZM328,144.12l17.36-17.35,17.35,17.35v.24l-17.35,17.35L328,144.36v-.24Zm0,116.35,17.36-17.36,17.35,17.36v.23l-17.35,17.35L328,260.7Z" transform="translate(-0.43 -94.83)"/><path class="cls-5" d="M75.59,169.7h27.76a2,2,0,0,1,2,2v19.58a2,2,0,0,1-2,2H75.59a2,2,0,0,1-2-2V171.74A2,2,0,0,1,75.59,169.7Z"/><path class="cls-6" d="M93.8,169.7h27.76a2,2,0,0,1,2,2v19.58a2,2,0,0,1-2,2H93.8a2,2,0,0,1-2-2V171.74A2,2,0,0,1,93.8,169.7Z"/><rect class="cls-5" x="96.23" y="177.51" width="22.89" height="8.03" rx="1.17"/><rect class="cls-7" x="98.62" y="178.88" width="10.62" height="1.75" rx="0.25"/><rect class="cls-7" x="98.62" y="181.65" width="5.5" height="1.75" rx="0.25"/><rect class="cls-5" x="91.31" y="193.36" width="38.17" height="28.36" rx="2.45"/><rect class="cls-6" x="69.48" y="193.36" width="38.16" height="28.36" rx="2.45"/><rect class="cls-5" x="74.85" y="202.73" width="27.43" height="9.63" rx="1.4"/><rect class="cls-7" x="86.7" y="204.36" width="12.72" height="2.1" rx="0.31"/><rect class="cls-7" x="92.83" y="207.69" width="6.59" height="2.1" rx="0.31"/><path class="cls-4" d="M246.38,160.92a8.76,8.76,0,0,1,2.91-1.95,9,9,0,0,1,9.78,14.63,9.07,9.07,0,0,1-2.92,2,9,9,0,0,1-9.77-14.63Zm3.23-1.19A8.22,8.22,0,0,0,247,161.5a8.13,8.13,0,0,0-1.77,8.87,8.21,8.21,0,0,0,4.41,4.41,8.16,8.16,0,0,0,10.64-4.41,8.12,8.12,0,0,0-1.77-8.87,8,8,0,0,0-5.76-2.38,8.21,8.21,0,0,0-3.11.61Zm-1-6.6a14.25,14.25,0,0,0-1.66.59,13.13,13.13,0,0,0-1.59.8,14.25,14.25,0,0,0-1.49,1,15.26,15.26,0,0,0-1.37,1.16,1,1,0,0,1-.53.26,1,1,0,0,1-.59-.12c-1.32-.76-2.7-1.51-4-2.31a.66.66,0,0,0-.2-.06.82.82,0,0,0-.22,0,.54.54,0,0,0-.2.1.43.43,0,0,0-.14.16c-1,1.46-1.93,3.33-2.82,4.88a.48.48,0,0,0-.07.2.6.6,0,0,0,0,.23.54.54,0,0,0,.1.2.57.57,0,0,0,.16.15c1.19.78,2.72,1.56,4,2.29a.94.94,0,0,1,.4.44l.06.2.08,0-.09.37c-.08.29-.14.58-.19.87s-.1.58-.14.88-.06.6-.08.9,0,.58,0,.9,0,.61,0,.9.05.59.08.89.09.61.14.89.12.58.19.87a1,1,0,0,1-.06.62,1,1,0,0,1-.43.44l-3.51,2h0l-.42.24a.57.57,0,0,0-.16.15.47.47,0,0,0-.1.2.55.55,0,0,0,0,.22.52.52,0,0,0,.07.21l2.6,4.51h0l.21.36a.46.46,0,0,0,.14.17.75.75,0,0,0,.2.1.6.6,0,0,0,.23,0,.58.58,0,0,0,.21-.07c1.25-.79,2.67-1.54,4-2.29a.95.95,0,0,1,1.12.13h0a13.87,13.87,0,0,0,1.37,1.17A14.58,14.58,0,0,0,247,180.8a14.07,14.07,0,0,0,1.69.59.95.95,0,0,1,.68.91v4.59a.71.71,0,0,0,0,.21.59.59,0,0,0,.13.19.57.57,0,0,0,.18.12.54.54,0,0,0,.22,0h5.63a.49.49,0,0,0,.21,0,.51.51,0,0,0,.31-.31.49.49,0,0,0,0-.21V182.3a1,1,0,0,1,.73-.92,14.1,14.1,0,0,0,1.65-.59,13.07,13.07,0,0,0,1.59-.79,13.75,13.75,0,0,0,1.49-1,12.81,12.81,0,0,0,1.37-1.17,1,1,0,0,1,.57-.25.92.92,0,0,1,.6.15L268,180a.48.48,0,0,0,.2.07.6.6,0,0,0,.23,0,.75.75,0,0,0,.2-.1.61.61,0,0,0,.15-.17c.93-1.62,1.88-3.24,2.81-4.87a.52.52,0,0,0,.07-.21.55.55,0,0,0,0-.22.53.53,0,0,0-.09-.2.61.61,0,0,0-.17-.15l-4-2.29a.94.94,0,0,1-.39-.45.88.88,0,0,1-.05-.15l-.11,0,.11-.42c.07-.29.13-.58.19-.87s.09-.58.13-.89.06-.6.08-.89,0-.59,0-.9,0-.62,0-.9,0-.59-.08-.89-.08-.61-.13-.89-.12-.58-.19-.87a.87.87,0,0,1,.06-.62.86.86,0,0,1,.42-.44l3.93-2.27a.61.61,0,0,0,.17-.15.72.72,0,0,0,.09-.2.6.6,0,0,0,0-.23.48.48,0,0,0-.07-.2c-1-1.43-1.92-3.34-2.81-4.88a.57.57,0,0,0-.15-.16.54.54,0,0,0-.2-.1.58.58,0,0,0-.23,0,.48.48,0,0,0-.2.07l-4,2.3a.94.94,0,0,1-.59.12,1,1,0,0,1-.54-.27,16.65,16.65,0,0,0-1.36-1.16,15.32,15.32,0,0,0-1.49-1,13.27,13.27,0,0,0-1.6-.8,15.18,15.18,0,0,0-1.68-.6.88.88,0,0,1-.49-.34.86.86,0,0,1-.19-.56v-4.59a.46.46,0,0,0,0-.21.62.62,0,0,0-.12-.19.55.55,0,0,0-.19-.12.5.5,0,0,0-.21-.05h-5.63a.54.54,0,0,0-.22.05.44.44,0,0,0-.18.12.54.54,0,0,0-.17.4v4.59a1,1,0,0,1-.2.58,1,1,0,0,1-.52.33Zm-2-.17a16.45,16.45,0,0,0-1.68.84,17.23,17.23,0,0,0-1.58,1,15.43,15.43,0,0,0-1.44,1.24l-.07,0a.07.07,0,0,1-.06,0l-4-2.31a1.33,1.33,0,0,0-.5-.16,1.35,1.35,0,0,0-.53,0,1.32,1.32,0,0,0-.49.24,1.42,1.42,0,0,0-.36.41c-1,1.57-1.89,3.27-2.81,4.87a1.24,1.24,0,0,0-.18.52,1.4,1.4,0,0,0,0,.54,1.25,1.25,0,0,0,.24.49,1.19,1.19,0,0,0,.41.36c1.28.79,2.66,1.54,4,2.3a.07.07,0,0,1,0,.05.09.09,0,0,1,0,.07l-.09.37h0c0,.18-.07.36-.11.55s-.1.63-.14.94-.07.61-.09.94,0,.64,0,.95,0,.62,0,1,0,.64.09.94.09.62.14.94.13.62.2.92a.09.09,0,0,1,0,.07.1.1,0,0,1,0,0c-1.46.78-3,1.7-4.39,2.53l.05.07,0,.05a1.4,1.4,0,0,0-.24.49,1.45,1.45,0,0,0,0,.55,1.29,1.29,0,0,0,.18.52l3,5.23.05,0,.1.08a1.49,1.49,0,0,0,.49.24,1.23,1.23,0,0,0,.54,0,1.32,1.32,0,0,0,.51-.16c1.32-.7,2.68-1.55,4-2.31h.06l.07,0a15.76,15.76,0,0,0,3,2.28,16.61,16.61,0,0,0,1.69.84,13.93,13.93,0,0,0,1.78.63l.06,0a.19.19,0,0,1,0,.07v4.59a1.4,1.4,0,0,0,.11.53,1.27,1.27,0,0,0,.3.45,1.31,1.31,0,0,0,1,.41h5.63a1.31,1.31,0,0,0,1-.41,1.29,1.29,0,0,0,.31-.45,1.39,1.39,0,0,0,.1-.53V182.3a.09.09,0,0,1,0-.07.09.09,0,0,1,.06,0h0a16.84,16.84,0,0,0,1.77-.63,17.38,17.38,0,0,0,1.67-.84,16.25,16.25,0,0,0,3-2.28.07.07,0,0,1,.06,0,.08.08,0,0,1,.07,0l4,2.29a1.27,1.27,0,0,0,.52.17,1.23,1.23,0,0,0,.54,0,1.54,1.54,0,0,0,.5-.24,1.71,1.71,0,0,0,.35-.4c1-1.68,2-3.52,3-5.24l-.05,0a.59.59,0,0,0,0-.13,1.45,1.45,0,0,0,0-.55,1.42,1.42,0,0,0-.25-.49,1.39,1.39,0,0,0-.4-.36l-4-2.29a.1.1,0,0,1,0,0,.17.17,0,0,1,0-.07l.11-.42h0c0-.17.07-.33.1-.5.06-.32.11-.63.14-.94s.07-.62.09-.94,0-.64,0-1,0-.63,0-.95-.05-.64-.09-.95-.08-.61-.14-.93-.12-.62-.2-.92a.22.22,0,0,1,0-.08.12.12,0,0,1,.05-.05l4-2.29a1.29,1.29,0,0,0,.41-.36,1.49,1.49,0,0,0,.24-.49,1.4,1.4,0,0,0,0-.54,1.59,1.59,0,0,0-.16-.51c-1-1.75-2-3.51-3-5.25l-.06,0-.09-.08a1.36,1.36,0,0,0-.5-.24,1.38,1.38,0,0,0-.54,0,1.45,1.45,0,0,0-.52.17l-.29.17h0l-3.68,2.12-.07,0-.07,0h0a16.72,16.72,0,0,0-1.43-1.22A16.6,16.6,0,0,0,258.8,153a18.81,18.81,0,0,0-1.78-.63.07.07,0,0,1-.06,0,.09.09,0,0,1,0-.06v-4.59a1.32,1.32,0,0,0-.1-.53,1.44,1.44,0,0,0-.31-.46,1.37,1.37,0,0,0-.45-.3,1.4,1.4,0,0,0-.53-.11h-5.63a1.41,1.41,0,0,0-.54.11,1.37,1.37,0,0,0-.45.3,1.43,1.43,0,0,0-.41,1v4.59a.19.19,0,0,1,0,.07.15.15,0,0,1-.07,0h0A16.07,16.07,0,0,0,246.64,153Z" transform="translate(-0.43 -94.83)"/><path class="cls-4" d="M13.88,205.89A9,9,0,0,1,16.8,204a9,9,0,0,1,9.77,1.94,9.07,9.07,0,0,1,1.95,2.92,9,9,0,0,1-1.95,9.77,9,9,0,0,1-9.77,1.95,9.23,9.23,0,0,1-2.92-1.95,9,9,0,0,1-2.62-6.34,8.89,8.89,0,0,1,.68-3.43,9,9,0,0,1,1.94-2.92Zm3.23-1.18a8.21,8.21,0,0,0-4.41,4.41,8.26,8.26,0,0,0,0,6.23,8.21,8.21,0,0,0,4.41,4.41,8.14,8.14,0,0,0,6.23,0A8.17,8.17,0,0,0,26,218a8.12,8.12,0,0,0,0-11.51,8.17,8.17,0,0,0-2.64-1.77,8.26,8.26,0,0,0-6.23,0Zm-1-6.6a14.1,14.1,0,0,0-1.65.59,14.7,14.7,0,0,0-1.59.79,14.94,14.94,0,0,0-1.5,1A17.06,17.06,0,0,0,10,201.65a1,1,0,0,1-.54.26,1,1,0,0,1-.58-.12c-1.32-.76-2.71-1.52-4-2.31a.6.6,0,0,0-.19-.06.55.55,0,0,0-.22,0,.54.54,0,0,0-.2.1.57.57,0,0,0-.15.16c-1,1.45-1.92,3.33-2.81,4.87a.58.58,0,0,0-.07.21.6.6,0,0,0,0,.23.75.75,0,0,0,.1.2.46.46,0,0,0,.17.14c1.18.79,2.71,1.57,4,2.3a.88.88,0,0,1,.39.44.66.66,0,0,1,.06.2l.08,0-.09.37c-.07.3-.13.59-.19.88s-.09.57-.13.88-.06.6-.08.89,0,.59,0,.91,0,.61,0,.9,0,.59.08.89.08.6.13.88.12.59.19.88a.88.88,0,0,1-.06.62.94.94,0,0,1-.42.44l-3.52,2H2l-.42.24a.79.79,0,0,0-.17.14.68.68,0,0,0-.1.21.55.55,0,0,0,0,.22.58.58,0,0,0,.07.21l2.6,4.51h0l.21.36a.61.61,0,0,0,.15.17.72.72,0,0,0,.2.09.55.55,0,0,0,.22,0,.52.52,0,0,0,.21-.07c1.26-.79,2.68-1.54,4-2.29a.87.87,0,0,1,.58-.12.93.93,0,0,1,.54.25h0A12.81,12.81,0,0,0,11.39,224a13.75,13.75,0,0,0,1.49,1,14.92,14.92,0,0,0,1.6.8,13.34,13.34,0,0,0,1.68.59.88.88,0,0,1,.49.34,1,1,0,0,1,.19.57v4.58a.54.54,0,0,0,0,.22.57.57,0,0,0,.12.18.59.59,0,0,0,.19.13.49.49,0,0,0,.21,0H23a.54.54,0,0,0,.22,0,.7.7,0,0,0,.31-.31.78.78,0,0,0,0-.22v-4.58a1,1,0,0,1,.2-.58,1,1,0,0,1,.52-.34,14.25,14.25,0,0,0,1.66-.59,15.52,15.52,0,0,0,1.58-.79,14.94,14.94,0,0,0,1.5-1,13.87,13.87,0,0,0,1.37-1.17,1,1,0,0,1,.56-.26,1.09,1.09,0,0,1,.61.15L35.53,225a.58.58,0,0,0,.21.07.62.62,0,0,0,.23,0,.72.72,0,0,0,.2-.09.79.79,0,0,0,.14-.17l2.82-4.87a.86.86,0,0,0,.07-.21.55.55,0,0,0,0-.22.51.51,0,0,0-.1-.21.54.54,0,0,0-.16-.14l-4-2.3a.9.9,0,0,1-.4-.44.88.88,0,0,1,0-.15l-.1,0,.1-.42c.07-.29.14-.58.19-.87s.1-.58.14-.89.06-.6.08-.89,0-.59,0-.9,0-.62,0-.91,0-.59-.08-.89-.09-.61-.14-.89-.12-.58-.19-.87a1,1,0,0,1,.06-.62,1,1,0,0,1,.42-.44l3.94-2.27a.43.43,0,0,0,.16-.14.54.54,0,0,0,.1-.2.62.62,0,0,0,0-.23.86.86,0,0,0-.07-.21c-1-1.42-1.93-3.33-2.82-4.87a.73.73,0,0,0-.14-.16.54.54,0,0,0-.2-.1.62.62,0,0,0-.23,0,.58.58,0,0,0-.21.07l-4,2.3a1,1,0,0,1-.6.11.84.84,0,0,1-.53-.26,15,15,0,0,0-1.37-1.16,13.75,13.75,0,0,0-1.49-1A14.7,14.7,0,0,0,26,198.7a14.12,14.12,0,0,0-1.69-.6.95.95,0,0,1-.68-.91v-4.58a.78.78,0,0,0,0-.22.55.55,0,0,0-.13-.18.46.46,0,0,0-.18-.13.78.78,0,0,0-.22,0H17.41a.71.71,0,0,0-.21,0,.59.59,0,0,0-.19.13.56.56,0,0,0-.16.4v4.58a.94.94,0,0,1-.21.59,1,1,0,0,1-.52.33Zm-2-.17a13,13,0,0,0-1.67.84,15,15,0,0,0-1.59,1,16.71,16.71,0,0,0-1.44,1.23.07.07,0,0,1-.06,0H9.31l-4-2.32a1.52,1.52,0,0,0-.5-.15,1.35,1.35,0,0,0-.53,0,1.24,1.24,0,0,0-.49.24,1.44,1.44,0,0,0-.36.41c-1,1.56-1.88,3.26-2.81,4.87a1.47,1.47,0,0,0-.14,1.06,1.49,1.49,0,0,0,.24.49,1.42,1.42,0,0,0,.41.36c1.28.79,2.67,1.54,4,2.29a.13.13,0,0,1,0,.06.15.15,0,0,1,0,.07l-.1.37h0c0,.18-.08.36-.11.55s-.11.63-.14.93-.07.62-.09.95,0,.64,0,1,0,.62,0,.95,0,.63.09.94.08.62.14.93.12.63.2.93a.17.17,0,0,1,0,.07.12.12,0,0,1,0,.05c-1.46.78-2.94,1.7-4.38,2.53l.05.07-.05,0a1.59,1.59,0,0,0-.24.49,1.45,1.45,0,0,0,0,.55,1.34,1.34,0,0,0,.17.51l3,5.24.06,0,.09.08a1.59,1.59,0,0,0,.49.24,1.45,1.45,0,0,0,.55,0,1.33,1.33,0,0,0,.5-.16c1.33-.71,2.69-1.55,4-2.31h.07a.11.11,0,0,1,.07,0,14.15,14.15,0,0,0,1.44,1.23,16.5,16.5,0,0,0,1.57,1,17.71,17.71,0,0,0,1.69.84,14.49,14.49,0,0,0,1.78.63.09.09,0,0,1,.06,0,.06.06,0,0,1,0,.07v4.58a1.41,1.41,0,0,0,.11.54,1.39,1.39,0,0,0,.31.45,1.57,1.57,0,0,0,.45.31,1.61,1.61,0,0,0,.53.1H23a1.51,1.51,0,0,0,.53-.1,1.49,1.49,0,0,0,.46-.31,1.37,1.37,0,0,0,.3-.45,1.41,1.41,0,0,0,.11-.54v-4.58a.14.14,0,0,1,0-.07l.06,0h0a14.8,14.8,0,0,0,1.77-.62A16.45,16.45,0,0,0,28,225.7a15.76,15.76,0,0,0,3-2.28.09.09,0,0,1,.07,0,.1.1,0,0,1,.07,0l4,2.29a1.47,1.47,0,0,0,1.06.14,1.49,1.49,0,0,0,.49-.24,1.35,1.35,0,0,0,.35-.4c1-1.68,2-3.52,3-5.24l-.06,0,0-.14a1.41,1.41,0,0,0,0-.54,1.59,1.59,0,0,0-.24-.49,1.42,1.42,0,0,0-.41-.36l-4-2.29a.07.07,0,0,1,0-.05.11.11,0,0,1,0-.08l.1-.42h0c0-.16.06-.33.1-.49.05-.32.1-.64.14-.94s.07-.62.08-.94,0-.65,0-.95,0-.63,0-1,0-.64-.08-.95-.09-.61-.14-.93-.13-.63-.2-.92a.11.11,0,0,1,0-.08.08.08,0,0,1,0,0l4-2.29a1.3,1.3,0,0,0,.41-.36,1.43,1.43,0,0,0,.28-1,1.34,1.34,0,0,0-.17-.51c-.94-1.75-2-3.52-3-5.25l-.06,0-.09-.08a1.18,1.18,0,0,0-.49-.24,1.4,1.4,0,0,0-1.06.13l-.29.17h0l-3.69,2.13a.08.08,0,0,1-.07,0l-.06,0h0a15.45,15.45,0,0,0-1.44-1.22,15.86,15.86,0,0,0-3.26-1.89,15.65,15.65,0,0,0-1.78-.63l-.06,0a.14.14,0,0,1,0-.07v-4.58a1.41,1.41,0,0,0-.11-.54,1.37,1.37,0,0,0-.3-.45,1.47,1.47,0,0,0-1-.41H17.41a1.4,1.4,0,0,0-.53.11,1.42,1.42,0,0,0-.87,1.29v4.58s0,.06,0,.07a.07.07,0,0,1-.06,0h0A14.84,14.84,0,0,0,14.14,197.94Z" transform="translate(-0.43 -94.83)"/><path class="cls-4" d="M50.78,224.86a3.79,3.79,0,1,1-1.12,2.69,3.79,3.79,0,0,1,1.12-2.69Zm.82-3.78a6.83,6.83,0,0,0-1.49.64,6.35,6.35,0,0,0-1.31,1,.24.24,0,0,1-.28,0l-1.77-1h0a.51.51,0,0,0-.32,0,.43.43,0,0,0-.27.21h0l-1.24,2.16a.42.42,0,0,0,0,.33.42.42,0,0,0,.2.27h0l1.76,1a.23.23,0,0,1,.11.25h0a5.5,5.5,0,0,0-.15.81,6.75,6.75,0,0,0,0,1.64,5.37,5.37,0,0,0,.15.8.25.25,0,0,1-.13.27l-1.75,1h0a.42.42,0,0,0-.2.27.42.42,0,0,0,0,.33l1.25,2.17h0a.45.45,0,0,0,.27.2.42.42,0,0,0,.33,0h0l1.76-1a.24.24,0,0,1,.28,0,6.35,6.35,0,0,0,1.31,1,6.46,6.46,0,0,0,1.5.64.23.23,0,0,1,.17.22v2a.44.44,0,0,0,.44.44h2.5a.44.44,0,0,0,.44-.44v-2a.23.23,0,0,1,.18-.22,6.83,6.83,0,0,0,1.49-.64,6.35,6.35,0,0,0,1.31-1,.24.24,0,0,1,.29,0l1.76,1a.42.42,0,0,0,.33,0,.45.45,0,0,0,.27-.2h0L62,231.05h0a.42.42,0,0,0,0-.33.45.45,0,0,0-.2-.27l-1.77-1a.24.24,0,0,1-.11-.26h0a5.37,5.37,0,0,0,.15-.8,6.75,6.75,0,0,0,0-1.64,5.5,5.5,0,0,0-.15-.81.23.23,0,0,1,.12-.26l1.76-1a.45.45,0,0,0,.2-.27.42.42,0,0,0,0-.33v0l-1.24-2.15h0a.43.43,0,0,0-.27-.21.48.48,0,0,0-.33.05h0l-1.77,1a.23.23,0,0,1-.28,0,6.85,6.85,0,0,0-2.81-1.62.23.23,0,0,1-.17-.22v-2.05a.4.4,0,0,0-.13-.3.44.44,0,0,0-.31-.13h-2.5a.44.44,0,0,0-.31.13.4.4,0,0,0-.13.3v2.05A.23.23,0,0,1,51.6,221.08Z" transform="translate(-0.43 -94.83)"/><path class="cls-4" d="M130.67,168.68a.65.65,0,0,0-1.3,0v1.53h-1.54a.66.66,0,0,0-.65.66.65.65,0,0,0,.65.65h1.54v1.54a.65.65,0,1,0,1.3,0v-1.54h1.54a.65.65,0,0,0,.65-.65.66.66,0,0,0-.65-.66h-1.54Z" transform="translate(-0.43 -94.83)"/><path class="cls-4" d="M172.74,118.69a3.83,3.83,0,1,1-1.11,2.69,3.79,3.79,0,0,1,1.11-2.69Zm.83-3.77a7.1,7.1,0,0,0-1.5.63,7.39,7.39,0,0,0-1.31,1,.21.21,0,0,1-.27,0l-1.77-1h0a.42.42,0,0,0-.33,0,.46.46,0,0,0-.26.2v0l-1.24,2.15a.44.44,0,0,0-.05.33.43.43,0,0,0,.21.27h0l1.75,1a.22.22,0,0,1,.11.26h0a7,7,0,0,0-.14.8,5.64,5.64,0,0,0,0,.82,5.47,5.47,0,0,0,0,.82,6.84,6.84,0,0,0,.14.81.21.21,0,0,1-.12.26l-1.75,1h0a.44.44,0,0,0-.21.26.46.46,0,0,0,.05.34l1.25,2.17h0a.46.46,0,0,0,.26.2.45.45,0,0,0,.34,0h0l1.76-1a.23.23,0,0,1,.27,0,7.39,7.39,0,0,0,1.31,1,6.51,6.51,0,0,0,1.51.63.25.25,0,0,1,.17.23v2a.48.48,0,0,0,.12.31.44.44,0,0,0,.31.13h2.51a.44.44,0,0,0,.44-.44v-2a.23.23,0,0,1,.18-.23,7.24,7.24,0,0,0,1.49-.63,7.39,7.39,0,0,0,1.31-1,.23.23,0,0,1,.29,0l1.76,1a.42.42,0,0,0,.33,0,.43.43,0,0,0,.26-.2v0l1.25-2.15h0a.45.45,0,0,0,0-.34.46.46,0,0,0-.2-.26l-1.77-1A.23.23,0,0,1,182,123h0q.09-.39.15-.81a7.22,7.22,0,0,0,0-.82,7.52,7.52,0,0,0,0-.82c0-.27-.09-.54-.15-.8a.24.24,0,0,1,.12-.27l1.76-1a.45.45,0,0,0,.2-.27.43.43,0,0,0,0-.33h0l-1.24-2.16h0a.43.43,0,0,0-.26-.2.42.42,0,0,0-.33,0h0l-1.77,1a.24.24,0,0,1-.29,0,7,7,0,0,0-1.3-1,7.13,7.13,0,0,0-1.5-.64.21.21,0,0,1-.17-.22v-2a.44.44,0,0,0-.44-.44h-2.51a.44.44,0,0,0-.31.13.48.48,0,0,0-.12.31v2A.25.25,0,0,1,173.57,114.92Z" transform="translate(-0.43 -94.83)"/><path class="cls-4" d="M384.93,109a.66.66,0,0,0-.66-.65.65.65,0,0,0-.65.65v1.54h-1.54a.65.65,0,1,0,0,1.3h1.54v1.54a.65.65,0,0,0,.65.65.66.66,0,0,0,.66-.65v-1.54h1.53a.65.65,0,0,0,0-1.3h-1.53Z" transform="translate(-0.43 -94.83)"/><path class="cls-4" d="M4.25,279.39a.65.65,0,0,0-1.3,0v1.54H1.41a.65.65,0,1,0,0,1.3H3v1.54a.65.65,0,1,0,1.3,0v-1.54H5.79a.65.65,0,0,0,0-1.3H4.25Z" transform="translate(-0.43 -94.83)"/><path class="cls-4" d="M214.43,153.23a3.81,3.81,0,1,1,5.38,5.39,3.81,3.81,0,1,1-5.38-5.39Zm.82-3.77a6.38,6.38,0,0,0-1.49.64,6.31,6.31,0,0,0-1.31,1,.23.23,0,0,1-.28,0l-1.77-1h0a.4.4,0,0,0-.32,0,.43.43,0,0,0-.27.21h0l-1.25,2.15a.45.45,0,0,0,0,.34.43.43,0,0,0,.2.26h0l1.76,1a.25.25,0,0,1,.11.26h0a6.83,6.83,0,0,0-.15.81,7.22,7.22,0,0,0-.05.82,7.37,7.37,0,0,0,.05.82,7.05,7.05,0,0,0,.15.8.24.24,0,0,1-.12.27l-1.76,1h0a.45.45,0,0,0-.2.27.42.42,0,0,0,0,.33l1.25,2.17h0a.45.45,0,0,0,.27.2.42.42,0,0,0,.33,0h0l1.75-1a.23.23,0,0,1,.28,0,6.73,6.73,0,0,0,1.31,1,7.13,7.13,0,0,0,1.5.64.23.23,0,0,1,.17.22v2a.44.44,0,0,0,.44.44h2.5a.44.44,0,0,0,.44-.44v-2a.25.25,0,0,1,.18-.23,6.36,6.36,0,0,0,1.49-.63,6.73,6.73,0,0,0,1.31-1,.24.24,0,0,1,.29,0l1.76,1a.43.43,0,0,0,.33,0,.45.45,0,0,0,.27-.2h0l1.24-2.16h0a.48.48,0,0,0,.05-.33.43.43,0,0,0-.21-.27l-1.77-1a.24.24,0,0,1-.11-.26h0a5.37,5.37,0,0,0,.15-.8,7.37,7.37,0,0,0,0-.82,7.22,7.22,0,0,0,0-.82,5.27,5.27,0,0,0-.15-.81.23.23,0,0,1,.13-.26l1.75-1a.41.41,0,0,0,.21-.26.48.48,0,0,0-.05-.33v0l-1.25-2.15h0a.43.43,0,0,0-.27-.21.48.48,0,0,0-.33,0h0l-1.77,1a.24.24,0,0,1-.28,0,6.31,6.31,0,0,0-1.31-1,6.46,6.46,0,0,0-1.5-.64.24.24,0,0,1-.17-.23v-2a.44.44,0,0,0-.44-.44h-2.5a.44.44,0,0,0-.44.44v2A.24.24,0,0,1,215.25,149.46Z" transform="translate(-0.43 -94.83)"/><path class="cls-4" d="M188.69,151a.66.66,0,0,0-.66-.65.65.65,0,0,0-.65.65v1.54h-1.54a.65.65,0,0,0,0,1.3h1.54v1.54a.65.65,0,0,0,.65.65.66.66,0,0,0,.66-.65v-1.54h1.53a.65.65,0,0,0,0-1.3h-1.53Z" transform="translate(-0.43 -94.83)"/><path class="cls-4" d="M191.35,223.36a.66.66,0,0,0-1.31,0v1.54h-1.53a.65.65,0,1,0,0,1.3H190v1.54a.66.66,0,0,0,1.31,0V226.2h1.53a.65.65,0,1,0,0-1.3h-1.53Z" transform="translate(-0.43 -94.83)"/><path class="cls-4" d="M134.11,191a.65.65,0,0,0-1.3,0v1.54h-1.54a.65.65,0,0,0,0,1.3h1.54v1.54a.65.65,0,0,0,1.3,0v-1.54h1.54a.65.65,0,0,0,0-1.3h-1.54Z" transform="translate(-0.43 -94.83)"/><path class="cls-4" d="M351.21,187.11a.67.67,0,0,0-.66-.66.66.66,0,0,0-.65.66v1.53h-1.54a.66.66,0,0,0-.65.66.65.65,0,0,0,.65.65h1.54v1.54a.65.65,0,0,0,.65.65.66.66,0,0,0,.66-.65V190h1.53a.66.66,0,0,0,.66-.65.67.67,0,0,0-.66-.66h-1.53Z" transform="translate(-0.43 -94.83)"/><path class="cls-8" d="M255.42,235.28a17,17,0,0,1,7,5c1.73,2.11,23,42.79,24.33,45.44s1.36,9.34-1.86,13.46c-1.25,1.6-4.84,6.08-8.76,11H263.37c4.62-6.93,10.65-16,11.08-16.73.71-1.19,1.06-2.34-.23-4.36s-18.29-22.74-18.29-22.74S247.58,243,255.42,235.28Z" transform="translate(-0.43 -94.83)"/><path class="cls-9" d="M233.08,232s21.41,3,22.34,3.27,2.48,2.38,3.32,3.83,1.84,22.35,2.32,28.21-1.41,31.36-.85,38.21c.09,1.14.27,2.74.49,4.62h-64c-.82-7.58-6.53-31.29-7-37-.48-5.86-2.91-26.64-2.31-28.21s1.78-4,2.66-4.32,21.75-6.89,21.75-6.89l10.7,1.18Z" transform="translate(-0.43 -94.83)"/><path class="cls-10" d="M233.08,232l3.54.5a3,3,0,0,1-.73,1.45c-8.32,9.54-16.82,10.23-26.58,2.18a3,3,0,0,1-1-1.32l3.41-1.07,10.7,1.18Z" transform="translate(-0.43 -94.83)"/><path class="cls-11" d="M229.34,211.38l.18,5.33s.89,10.88,1,12.53c.06.8,1,1.88,2.53,2.77-7,8-13.11,8.52-21.32,1.74,1.38-1.12,2.12-2.34,2.05-3.14-.13-1.65-1-12.53-1-12.53l-.68-5.28s4.3.33,8.75.93C225.15,212.41,229.34,211.38,229.34,211.38Z" transform="translate(-0.43 -94.83)"/><path class="cls-12" d="M234.85,232.26s-2.47,10.7-2.66,12.87-3.09,24.1-2.78,27.81c.13,1.68,3.48,18.81,7.13,37.21h29.17c-.72-4.49-1.33-8.35-1.66-10.54-1.19-7.85-2-24.16-1.72-34.24s-2.25-25.19-2.55-26.63-3.15-3.23-4-3.56Z" transform="translate(-0.43 -94.83)"/><path class="cls-13" d="M231.66,249.71c-.88,7.22-2.48,20.43-2.25,23.23,0,0,14.18-15.45,14-17s-6-12.88-6-12.88S234.91,245.93,231.66,249.71Z" transform="translate(-0.43 -94.83)"/><path class="cls-14" d="M234.14,232.16s.63-.57.85-.58,4.08,1.28,4.08,1.28,5.61,8.83,5.71,10S231,255.3,231,255.3l1.23-10.38s2-10.16,2.63-12.66Z" transform="translate(-0.43 -94.83)"/><path class="cls-12" d="M190.26,240.62a16.9,16.9,0,0,0-6,6.08c-1.37,2.36-15.7,45.95-16.61,48.79s.17,9.44,4,13l1.84,1.68h15.88c-4.2-4.51-8-8.61-8.4-9.06-.89-1.06-1.42-2.15-.48-4.34s14.34-25.42,14.34-25.42S199.24,246.92,190.26,240.62Z" transform="translate(-0.43 -94.83)"/><path class="cls-12" d="M210.05,234.29s4.19,10.15,4.72,12.27,7,23.27,7.28,27c.14,1.65-.35,18.35-.94,36.61H192.26c0-1.91,0-3.51,0-4.65-.1-7.94-2-24.16-3.87-34.06s-1.89-25.23-1.83-26.7,2.59-3.69,3.41-4.17Z" transform="translate(-0.43 -94.83)"/><path class="cls-13" d="M216.05,251c2,7,5.77,19.75,6,22.55,0,0-16.51-12.93-16.55-14.47s3.81-13.69,3.81-13.69S212.22,247.79,216.05,251Z" transform="translate(-0.43 -94.83)"/><path class="cls-14" d="M210.74,234.07a3.08,3.08,0,0,0-.94-.43c-.22,0-3.81,1.93-3.81,1.93s-4.1,9.63-4,10.75,15.64,10.08,15.64,10.08l-2.9-10s-3.64-9.69-4.67-12.06Z" transform="translate(-0.43 -94.83)"/><path class="cls-11" d="M202.87,214.63l-.31.08h0a4.39,4.39,0,1,0,3.75.54c.23,1.29.17,2.91-1.47,3.22l-.19-2.53A1.51,1.51,0,0,0,202.87,214.63Z" transform="translate(-0.43 -94.83)"/><path class="cls-11" d="M234.53,211.74l.33,0h0a4.4,4.4,0,1,1-3.58,1.21c0,1.31.36,2.89,2,2.9l-.28-2.52A1.52,1.52,0,0,1,234.53,211.74Z" transform="translate(-0.43 -94.83)"/><path class="cls-15" d="M216.7,191.28h0a15.11,15.11,0,0,0-13.64,16.38l1.24,13.66A15.13,15.13,0,0,0,220.69,235h0a15.13,15.13,0,0,0,13.65-16.39l-1.25-13.66A15.12,15.12,0,0,0,216.7,191.28Z" transform="translate(-0.43 -94.83)"/><path class="cls-16" d="M204,200.94a14.84,14.84,0,0,0-.93,6.72l1.24,13.66a15.13,15.13,0,0,0,15,13.71c-8.73-.67-10.35-11-11-16.42s1.37-6.65,2.18-6.92,13.49-2.37,16.29-2.7a5,5,0,0,1,4.22,1.24l1.18-1.72L231,204.84s1,0,2.11,0a14.71,14.71,0,0,0-.55-2.84,24.37,24.37,0,0,1-5-2.23c-3.34-2.16-19.31.54-21.9.54A4,4,0,0,0,204,200.94Z" transform="translate(-0.43 -94.83)"/><path class="cls-17" d="M232.16,212.17s.09,1,.17,1.94,1,1.89,1.76,1.82l-.19-2.11a2.11,2.11,0,0,1,2.09-1.76c5.29-7.34,3.53-18.05-3.29-23.07s-20.41-4.14-22.7-3.14-4.37,5.24-4.37,5.24-2.17-1.6-3.95-.5S194.74,204,195,207s6.49,8.24,6.49,8.24a2.12,2.12,0,0,1,2.37,1.36l.19,2.11a2.06,2.06,0,0,0,1.4-2.11c-.08-.93-.18-1.94-.18-1.94l.2-.11c1.82-1.19,1.46-4.8,1.46-4.8l-1.68-2.35,3.33-4.38,3.84-1.26,8.7.33s10.27,1.28,9.37,4.27S232.16,212.17,232.16,212.17Z" transform="translate(-0.43 -94.83)"/><path class="cls-18" d="M232.16,212.17c.1,1.15.87,6.29,2.21,6.17,4-8.42,7.68-17.2,1.73-25.82-.7,5.55-6.22,8.93-11.75,10.1,2.92.63,6.71,1.83,6.15,3.7-.9,3,1.66,5.85,1.66,5.85Zm-36.77-7.79A8.25,8.25,0,0,0,195,207c.2,2.26,7.75,13.2,9.42,15.69.87-.08,1-6.56.85-8l.2-.11c1.82-1.19,1.46-4.8,1.46-4.8l-1.68-2.35,3.33-4.38,3.66-1.2a5.28,5.28,0,0,1-2.37-1.53C202.32,207.9,197.94,207.48,195.39,204.38Z" transform="translate(-0.43 -94.83)"/><path class="cls-17" d="M201.62,212.41s-6.32-13.7,6.39-16c0,0,3.36-6.64,10.1-5s11,1.62,14-1.35a6.09,6.09,0,0,1-.37,6.11c6.38,4.95,4.16,11.29,1.55,14.72-1-7.1-19.74.8-22.19-6C210.84,211.37,204,209.75,201.62,212.41Z" transform="translate(-0.43 -94.83)"/><path class="cls-18" d="M201.62,212.41a19.84,19.84,0,0,1-1.52-6c2.45-.23,5.64-2,9.78-6.19,0,0,1.69,2.49,9.49,2.81,4.74.19,10.77-1.56,14.17-5.21,4.06,4.62,2.05,10-.27,13-1-7.1-19.74.8-22.19-6C210.84,211.37,204,209.75,201.62,212.41Z" transform="translate(-0.43 -94.83)"/><path class="cls-19" d="M385.26,213.88c-2.67-10-12-4.51-16,4.07s-13.15,42-21.06,50.69c-3.07,3.36-2.13,3.64.69,2C363,262.49,388.94,227.67,385.26,213.88Z" transform="translate(-0.43 -94.83)"/><path class="cls-20" d="M346.31,271.25c-.1.45.32.47,1.13.14,21.32-18,32.64-58.35,32.68-58.48a.43.43,0,0,0-.29-.52.42.42,0,0,0-.51.29C379.28,212.81,367.8,253.68,346.31,271.25Z" transform="translate(-0.43 -94.83)"/><path class="cls-20" d="M361.63,219.22c-4.66-7.3-10.7-.55-11.72,7.29s.15,36.8-4,45.7c-1.6,3.45-.78,3.43,1.05,1.42C356.15,263.58,368,229.28,361.63,219.22Z" transform="translate(-0.43 -94.83)"/><path class="cls-19" d="M345.1,274.76c0,.38.38.29.93-.17,12.43-19.76,11.26-54.73,11.26-54.84a.35.35,0,0,0-.36-.34.36.36,0,0,0-.34.36C356.6,219.88,357.78,255.33,345.1,274.76Z" transform="translate(-0.43 -94.83)"/><path class="cls-20" d="M384.73,244.08c8,.84,4.94,8.71-1.19,12.84S352.73,272.19,347,279.35c-2.22,2.77-2.55,2.08-1.63-.29C350,267.21,373.65,242.92,384.73,244.08Z" transform="translate(-0.43 -94.83)"/><path class="cls-19" d="M345.23,281.12c-.34.13-.4-.19-.25-.85,11.32-18.65,41-32.3,41.13-32.34a.32.32,0,0,1,.43.15.32.32,0,0,1-.16.44C386.29,248.56,356.16,262.4,345.23,281.12Z" transform="translate(-0.43 -94.83)"/><path class="cls-17" d="M269.72,234l-2,17.57s3,41.15,4.5,58.56h22.44l.5-70Z" transform="translate(-0.43 -94.83)"/><path class="cls-17" d="M281.63,249.26l-1,6.21,2,54.68H310c.46-3.79.87-7,1.2-9.36a356.38,356.38,0,0,0,2.75-39.1c0-4.73-5.49-11.75-7.37-12.26S281.63,249.26,281.63,249.26Z" transform="translate(-0.43 -94.83)"/><path class="cls-21" d="M272.47,164.83s-.93-1.74-1.67-1.41-25.5,36.77-26.34,39.91-.5,8.69,4.3,16.41,15.05,26.65,15.41,27.06,6-3.4,6.56-4.46c0,0,.25-.35-.11-1.06s-12.55-29.59-13.32-31.66,20.95-27.79,22-29.85S284.31,166.93,272.47,164.83Z" transform="translate(-0.43 -94.83)"/><path class="cls-22" d="M292.33,154.39l-10.79,7.7s-7.7,30.13-7.72,31.5-3,18-3,18,10.79,4.28,12.33.17,18.83-33.56,19.69-38.18-1.2-15.58-2.23-16.78S292.33,154.39,292.33,154.39Z" transform="translate(-0.43 -94.83)"/><path class="cls-21" d="M281.47,159.47s-9.77,3.43-10.67,3.95-6.17,19.74-6.6,21.54,2.4,34.75,2.4,37.67-3.68,39.29-3.77,39.89a1.07,1.07,0,0,0,1.11,1.28c.86,0,10.45-18.06,11.22-20.11s-1.73-33.05-1.73-33.05L280,166.29Z" transform="translate(-0.43 -94.83)"/><path class="cls-23" d="M310.47,164.34s14,14.11,14.52,15-14,49.05-14.21,51.28,7.19,35,7.44,35.87a1.59,1.59,0,0,1-.21.86,3.25,3.25,0,0,1-1.15,1c-.3.22-34.55-5.31-37.29-7s-8.65-28.33-8.65-31.93S273,212,273,212l16.85-28.53S302,165.25,310.47,164.34Z" transform="translate(-0.43 -94.83)"/><path class="cls-24" d="M308.25,162.12s16.22,16.33,16.74,17.19-14,49.05-14.21,51.28,7.19,35,7.44,35.87a1.59,1.59,0,0,1-.21.86,3.25,3.25,0,0,1-1.15,1c-.16.11-9.27-1.29-18.46-2.91,8-11.5,7.56-30.55,6.86-31.71-.81-1.35-5.07-4.26-4.42-4.47s5-.33,5.34-1.41,6.47-35.21,6.47-35.21l4.1-2.76s1.84-13.27.54-15.22-9.83-9.28-9.9-9.34C308.45,164.79,307.27,162.23,308.25,162.12Z" transform="translate(-0.43 -94.83)"/><path class="cls-25" d="M323,177.16a24.23,24.23,0,0,1,3.58,3.6c1.47,1.91,19.74,40.11,20.12,43.69s-1,9.6-7.54,17.23-21.09,26.59-21.56,27-5.95-4.74-6.42-6c0,0-.21-.42.31-1.14s18.86-30.24,20.06-32.38-18.15-34.06-18.93-36.49S309.7,177.41,323,177.16Z" transform="translate(-0.43 -94.83)"/><path class="cls-16" d="M302.58,141c.09,5.34-1.29,10.85-.94,16.19.07,1.1.59,1.46,1.94,2.33,1.86,2.77-3.23,11.54-6.58,12.06-.23,0-5.69-4.24-9.55-5.24-2-.51-3.62,2-3.77,1.92-.8-.58.93-5.12.36-6.84.68-.18,1.29-1.7,1.77-2.14,3.13-2.89,2.11-10.11-.46-12.83C283.44,144.4,302.58,141,302.58,141Z" transform="translate(-0.43 -94.83)"/><path class="cls-10" d="M306.11,161.6c-.43,1.2-10.78,15-10.78,15s-.37.49-.91-.14S287.5,167,287.5,167l14.16-10.55-.32-2.42C301.55,153.75,306.54,160.36,306.11,161.6Z" transform="translate(-0.43 -94.83)"/><path class="cls-10" d="M287.13,157.11s0,0-.06,0c-4.84-.34-5.57,13.38-4.72,16.06,0,0,2.94-4.48,5-6.28C288.23,166.05,285.37,159.85,287.13,157.11Z" transform="translate(-0.43 -94.83)"/><path class="cls-25" d="M304.89,157.65S286.78,180.1,285.49,182,274.37,207.07,273,212c0,0,15.15-18.92,17.29-20.63s10.06-8.3,10.06-8.3a1.19,1.19,0,0,0,.11-.73c-.11-.3-2.31-5.29-2.31-5.29s6.59,1,7.19.94,3.56-14.75,3.64-15.18S304.89,157.65,304.89,157.65Z" transform="translate(-0.43 -94.83)"/><path class="cls-25" d="M287.17,157.07a52.5,52.5,0,0,0-5.56,1.54c-.77.43-6.85,10.53-7,11.39a.52.52,0,0,0,.25.57,18.66,18.66,0,0,1,1.74,1.1,11,11,0,0,1-2.12.38.42.42,0,0,0-.21.49c0,.4-.82,38.1-.82,38.1S280.91,169,282,166.21a50.6,50.6,0,0,1,4.08-7.09Z" transform="translate(-0.43 -94.83)"/><path class="cls-11" d="M279,133.21a4.27,4.27,0,1,1-4.24,4.3A4.28,4.28,0,0,1,279,133.21Z" transform="translate(-0.43 -94.83)"/><path class="cls-11" d="M307.52,133.05a4.27,4.27,0,1,1-4.25,4.29A4.27,4.27,0,0,1,307.52,133.05Z" transform="translate(-0.43 -94.83)"/><path class="cls-15" d="M291.8,111.26h0c8,0,14.66,7.09,14.7,15.87l.08,14.49c0,8.77-6.5,16-14.55,16h0c-8,.05-14.66-7.09-14.7-15.86l-.08-14.5C277.21,118.53,283.75,111.31,291.8,111.26Z" transform="translate(-0.43 -94.83)"/><path class="cls-16" d="M305.93,122.82a16.46,16.46,0,0,1,.57,4.3l.08,14.5c0,8.07-5.49,14.82-12.64,15.89l-1.25.13h0c8-.79,9.68-11.29,9.68-14.45V135c0-7.76-4.3-8.57-7.24-8.57H280.54a2.85,2.85,0,0,0-2.56,1.73l-.73-.55v-.28A16.61,16.61,0,0,1,282,115.51c7.32,1.43,19.5,3.86,20.34,4.39C302.77,120.18,304.26,121.41,305.93,122.82Z" transform="translate(-0.43 -94.83)"/><path class="cls-26" d="M275.26,123l2.63,2.63s1.26-4.9,11.85-3.39-9.77-9.84-12.08-8.6S273.35,118.47,275.26,123Z" transform="translate(-0.43 -94.83)"/><path class="cls-17" d="M302.78,123.18s-10.43,1.15-15.73-2.22-9.8-4.93-11.16-3.1,3.9,6.42,1.81,14.39c-.11.44-.39,7.81-.55,8.26,0-2.88-1-10.25-1.93-12.1-2.85-5.51-7.31-9.65-1.52-17.91,3.56-5.07,9.61-7.45,12.41-4.88,9.15,8.36,21.75-2.5,21.83,11.35,0,0,6.78,2.28.48,16.17a1.81,1.81,0,0,0-1.87,2l.06,7.41C301.51,142.55,301.41,129.19,302.78,123.18Z" transform="translate(-0.43 -94.83)"/><rect class="cls-27" x="295.27" y="153.9" width="34.69" height="55.91" rx="2.59"/><rect class="cls-28" x="325.83" y="153.9" width="28.23" height="55.91" rx="2.18"/><path class="cls-10" d="M289.79,270h30.56c0-5.48,5.91-6.08,5.91-6.08H295.69S289.79,264.48,289.79,270Z" transform="translate(-0.43 -94.83)"/><rect class="cls-29" x="293.56" y="200.81" width="35.04" height="14.51" rx="1.71"/><path class="cls-30" d="M326.33,295.64h6.94a3.26,3.26,0,0,1,2.8,2.13c1,2.17.89,4.34,3.84,4.34h1.27c2.95,0,2.87-2.22,3.84-4.34a3.18,3.18,0,0,1,2.8-2.13h6.59a1.71,1.71,0,0,1,1.71,1.7v11.1a1.72,1.72,0,0,1-1.71,1.71H326.33a1.72,1.72,0,0,1-1.71-1.71v-11.1A1.71,1.71,0,0,1,326.33,295.64Z" transform="translate(-0.43 -94.83)"/><path class="cls-10" d="M289.79,289.11h30.56c0-5.47,5.91-6.08,5.91-6.08H295.69S289.79,283.64,289.79,289.11Z" transform="translate(-0.43 -94.83)"/><path class="cls-31" d="M359.45,280H331.66c0-5.47-5.4-6.08-5.4-6.08h27.79S359.45,274.51,359.45,280Z" transform="translate(-0.43 -94.83)"/><path class="cls-32" d="M330.68,254.8H352a.94.94,0,0,1,.94.94h0a.94.94,0,0,1-.94.94h-21.3a.94.94,0,0,1-.94-.94h0A.94.94,0,0,1,330.68,254.8Z" transform="translate(-0.43 -94.83)"/><path class="cls-32" d="M330.68,265.15H352a.94.94,0,0,1,.94.94h0a.94.94,0,0,1-.94.94h-21.3a.94.94,0,0,1-.94-.94h0A.94.94,0,0,1,330.68,265.15Z" transform="translate(-0.43 -94.83)"/><path class="cls-32" d="M330.68,286.76H352a.94.94,0,0,1,.94.94h0a.94.94,0,0,1-.94.94h-21.3a.94.94,0,0,1-.94-.94h0A.94.94,0,0,1,330.68,286.76Z" transform="translate(-0.43 -94.83)"/><path class="cls-31" d="M300.21,254h20.58a.94.94,0,0,1,.94.94h0a.94.94,0,0,1-.94.94H300.21a.94.94,0,0,1-.94-.94h0A.94.94,0,0,1,300.21,254Z" transform="translate(-0.43 -94.83)"/><rect class="cls-33" x="298.85" y="182.52" width="22.46" height="1.88" rx="0.94"/><path class="cls-31" d="M300.21,292.26h20.58a1,1,0,0,1,.94.94h0a.94.94,0,0,1-.94.94H300.21a.94.94,0,0,1-.94-.94h0A1,1,0,0,1,300.21,292.26Z" transform="translate(-0.43 -94.83)"/><rect class="cls-27" x="281.18" y="178.15" width="20.99" height="33.83" rx="1.57"/><rect class="cls-28" x="299.67" y="178.15" width="17.08" height="33.83" rx="1.32"/><path class="cls-10" d="M278,285.83h18.49c0-3.32,3.58-3.68,3.58-3.68H281.6S278,282.51,278,285.83Z" transform="translate(-0.43 -94.83)"/><rect class="cls-29" x="280.14" y="206.54" width="21.21" height="8.78" rx="1.03"/><path class="cls-30" d="M300.14,301.37h4.2a2,2,0,0,1,1.7,1.29c.6,1.31.53,2.62,2.32,2.62h.77c1.79,0,1.74-1.34,2.32-2.62a1.93,1.93,0,0,1,1.7-1.29h4a1,1,0,0,1,1,1v6.71a1,1,0,0,1-1,1h-17a1,1,0,0,1-1-1V302.4A1,1,0,0,1,300.14,301.37Z" transform="translate(-0.43 -94.83)"/><path class="cls-10" d="M278,297.42h18.49c0-3.32,3.58-3.68,3.58-3.68H281.6S278,294.1,278,297.42Z" transform="translate(-0.43 -94.83)"/><path class="cls-31" d="M320.19,291.89H303.37a3.68,3.68,0,0,0-3.27-3.68h16.82A3.68,3.68,0,0,1,320.19,291.89Z" transform="translate(-0.43 -94.83)"/><path class="cls-32" d="M302.77,276.65h12.89a.57.57,0,0,1,.57.57h0a.57.57,0,0,1-.57.57H302.77a.58.58,0,0,1-.57-.57h0A.58.58,0,0,1,302.77,276.65Z" transform="translate(-0.43 -94.83)"/><path class="cls-32" d="M302.77,282.92h12.89a.56.56,0,0,1,.57.56h0a.56.56,0,0,1-.57.57H302.77a.57.57,0,0,1-.57-.57h0A.57.57,0,0,1,302.77,282.92Z" transform="translate(-0.43 -94.83)"/><path class="cls-32" d="M302.77,296h12.89a.57.57,0,0,1,.57.57h0a.57.57,0,0,1-.57.57H302.77a.58.58,0,0,1-.57-.57h0A.58.58,0,0,1,302.77,296Z" transform="translate(-0.43 -94.83)"/><rect class="cls-33" x="283.34" y="181.37" width="13.59" height="1.14" rx="0.57"/><rect class="cls-33" x="283.34" y="195.47" width="13.59" height="1.14" rx="0.57"/><path class="cls-31" d="M284.33,299.32h12.46a.58.58,0,0,1,.57.57h0a.58.58,0,0,1-.57.57H284.33a.57.57,0,0,1-.56-.57h0A.57.57,0,0,1,284.33,299.32Z" transform="translate(-0.43 -94.83)"/><path class="cls-17" d="M83,227l24.42.11a.58.58,0,0,1,.58.58v2.56a.58.58,0,0,1-.58.58L83,230.73a.58.58,0,0,1-.58-.59v-2.55A.58.58,0,0,1,83,227Zm23.83,1.28-23.25-.12v1.39l23.25.11Z" transform="translate(-0.43 -94.83)"/><path class="cls-17" d="M50.9,263.49l32.26-36.76a.58.58,0,0,1,.82-.06l1.92,1.69a.58.58,0,0,1,.06.82L53.7,265.94a.58.58,0,0,1-.82.06L51,264.31a.58.58,0,0,1-.06-.82Zm32.75-35.56L52.16,263.82l1.05.92L84.7,228.85Z" transform="translate(-0.43 -94.83)"/><path class="cls-25" d="M83.31,225.69a3.25,3.25,0,1,1-2.82,3.63A3.24,3.24,0,0,1,83.31,225.69Z" transform="translate(-0.43 -94.83)"/><path class="cls-17" d="M50.88,263.66,73.56,307a.58.58,0,0,0,.79.25l2.26-1.18a.58.58,0,0,0,.25-.79L54.18,261.94a.58.58,0,0,0-.79-.25l-2.26,1.19a.57.57,0,0,0-.25.78Zm23.45,42.28-22.15-42.3,1.23-.64,22.15,42.29Z" transform="translate(-0.43 -94.83)"/><path class="cls-25" d="M73.46,308a3.25,3.25,0,1,0-1.88-4.2A3.25,3.25,0,0,0,73.46,308Z" transform="translate(-0.43 -94.83)"/><path class="cls-25" d="M52.73,260.53a3.25,3.25,0,1,1-2.81,3.63A3.25,3.25,0,0,1,52.73,260.53Z" transform="translate(-0.43 -94.83)"/><rect class="cls-34" x="40.88" y="210.46" width="53.53" height="8.21" rx="4.11"/><rect class="cls-35" x="57.02" y="210.46" width="53.53" height="8.21" rx="4.11"/><path class="cls-10" d="M102.14,235.34h12a6.32,6.32,0,0,0,6.3-6.3H95.84A6.32,6.32,0,0,0,102.14,235.34Z" transform="translate(-0.43 -94.83)"/><path class="cls-36" d="M102.37,234.08h7.18a3.79,3.79,0,0,0,3.78-3.78H98.58A3.8,3.8,0,0,0,102.37,234.08Z" transform="translate(-0.43 -94.83)"/><path class="cls-25" d="M98.13,226.15h20a4.83,4.83,0,0,1,4.82,4.82H93.31A4.84,4.84,0,0,1,98.13,226.15Z" transform="translate(-0.43 -94.83)"/><path class="cls-26" d="M98.13,226.15h9.13a4.84,4.84,0,0,1,4.82,4.82H93.31A4.84,4.84,0,0,1,98.13,226.15Z" transform="translate(-0.43 -94.83)"/><path class="cls-17" d="M339.26,136.52a.44.44,0,0,1-.61.1.44.44,0,0,1-.11-.61,18.66,18.66,0,1,1-2.93,15.35.44.44,0,0,1,.86-.21,17.81,17.81,0,1,0,2.79-14.63Z" transform="translate(-0.43 -94.83)"/><path class="cls-17" d="M362.32,138.66a9.8,9.8,0,0,0-2.68,4.72c.74.49,2.76,2,1.81,3.68l-3.94,6.82c-1,1.6-3.28.63-4.07.25a9.66,9.66,0,0,0-2.75,4.68,6.13,6.13,0,0,0,3.62.76,3.88,3.88,0,0,0,2.88-1.62l7.65-13.26a3.87,3.87,0,0,0,0-3.28,6.1,6.1,0,0,0-2.47-2.75Zm-3.48,4.79c1.05-3.89,3-5.4,3.22-5.55a.38.38,0,0,1,.43,0,7,7,0,0,1,3,3.24,4.65,4.65,0,0,1,0,4l-7.66,13.26a4.68,4.68,0,0,1-3.44,2,7.09,7.09,0,0,1-4.3-1,.36.36,0,0,1-.2-.36s.2-2.58,3.19-5.59a.38.38,0,0,1,.47-.07s2.53,1.46,3.3.16l3.93-6.81c.74-1.27-1.56-2.67-1.76-2.79A.37.37,0,0,1,358.84,143.45Z" transform="translate(-0.43 -94.83)"/><path class="cls-35" d="M345.63,145.3a.08.08,0,0,1,0,.07c0,.08,0,.12-.11.12a.07.07,0,0,1-.06,0,4.91,4.91,0,0,1-.31.44c-.1.14-.19.21-.25.21s-.06,0-.06,0,0,0-.09.13a3.47,3.47,0,0,1-.25.36l-.37.44a2.56,2.56,0,0,1-.42.39,1,1,0,0,1-.23.28l-.32.24c-.09.1-.19.19-.28.28a2.74,2.74,0,0,1-.34.25l.39,0,.25,0,.26,0h0v0l.06,0h.27l1,0h1.27a.12.12,0,0,1,.08.09h.11l.11,0a.09.09,0,0,1,.1-.07h.06s0,0,.05-.06l.06,0c.07,0,.11,0,.11.08a1.65,1.65,0,0,1,0,.22,1.87,1.87,0,0,0-.05.45c0,.16.06.31.08.47a3.4,3.4,0,0,1,0,.45,2.5,2.5,0,0,1,0,.42v.11l-.07,0h0v0a.15.15,0,0,1,0,.07,0,0,0,0,0,0,0h0l0,0a1,1,0,0,1-.34.36,3.12,3.12,0,0,0-.47.39.09.09,0,0,1,.05.09s0,0,0,0l0,0-.29,0-.31.34a.07.07,0,0,1,0,.05s-.05.08-.15.09l-.33,0c-.55,0-1.09,0-1.61-.08s-1.06-.09-1.6-.11h-1l-.06-.06a.09.09,0,0,1-.06,0,0,0,0,0,1,0,0s-.06.06-.13.06h-.43a.12.12,0,0,1-.09.13h-.38l0,0-.13,0a.27.27,0,0,0-.13,0h-.34a.28.28,0,0,1-.12,0,.14.14,0,0,1-.05-.1c0-.07,0-.1.12-.1l-.11-.11s-.08-.09-.08-.12,0-.06-.09-.13-.09-.11-.09-.14v0a3,3,0,0,1,0-.6c0-.2,0-.4,0-.61a.68.68,0,0,0,0-.21.75.75,0,0,1,0-.24q0-.15.09-.18a.24.24,0,0,1,.11,0,1.26,1.26,0,0,1,.29-.35c.12-.1.24-.2.37-.29l.07-.08c.08-.07.16-.17.26-.27a.62.62,0,0,1,.27-.21.11.11,0,0,1,.11.06l.08-.07.08-.08v-.15l.21-.14,0-.05.32-.29a0,0,0,0,1,0,0v0c.14-.16.3-.31.47-.47a5.81,5.81,0,0,1,.49-.42.12.12,0,0,1-.08-.1.49.49,0,0,0,0-.12s0,0,.11,0l.16-.16a3,3,0,0,1,.37-.58l.41-.54v0a1.58,1.58,0,0,1,.09-.31c.05-.1.1-.2.16-.3s.11-.19.16-.28a2.1,2.1,0,0,0,.15-.3l.11-.29c0-.12.05-.23.07-.34s.05-.23.08-.35a.54.54,0,0,0,0-.11v-.18c0-.06,0-.12,0-.18a.23.23,0,0,1,.07-.14l0-.17a.05.05,0,0,1,0,0l-.07-.29-.05,0a.08.08,0,0,1,0-.05l0-.08a1.21,1.21,0,0,1-.24-.21,1.38,1.38,0,0,1-.19-.25,1,1,0,0,1-.33-.07l-.26-.11h0a.32.32,0,0,1-.23.08.63.63,0,0,0-.24,0,3.7,3.7,0,0,1-.46.42,5.86,5.86,0,0,1-.5.37l-.17.15a2.69,2.69,0,0,1-.28.44,1.5,1.5,0,0,1-.34.33h0c-.08.08-.14.12-.2.12a.19.19,0,0,1-.13-.07.48.48,0,0,0-.16-.12l-.05,0h0c-.08,0-.17-.06-.29-.18s-.21-.25-.3-.38l0,0a.67.67,0,0,0-.13-.27.86.86,0,0,0-.22-.21l0,0,0,0h0c-.05,0-.07-.07-.07-.14l.06-.14a.12.12,0,0,1,.1-.06l.05-.09a.7.7,0,0,1,.12-.34,2.51,2.51,0,0,1,.3-.45v0l.17-.18s0,0,0,0a2.87,2.87,0,0,0,.41-.51,2.86,2.86,0,0,1,.42-.5,3.39,3.39,0,0,1,.58-.64,5.83,5.83,0,0,1,.74-.57,7.55,7.55,0,0,1,.76-.43,2.74,2.74,0,0,1,.66-.21,2.84,2.84,0,0,1,.64-.28,2.14,2.14,0,0,1,.54-.08,1.33,1.33,0,0,1,.5.11l.43.2h0a1.33,1.33,0,0,1,.19.14l.16.15a4.87,4.87,0,0,0,.45.27,1.44,1.44,0,0,1,.42.36l.18.22.18.18a2.11,2.11,0,0,1,.19.23,1.48,1.48,0,0,1,.16.25.4.4,0,0,1,.07.22.1.1,0,0,1,0,.07h0a1.4,1.4,0,0,1,.23.53.83.83,0,0,0,.08.12l.09.15.08.14a.24.24,0,0,1,0,.11c0,.08,0,.12-.1.12H347l0,0,0,.34h.06l.07,0s0,0,0,.1v.07a1.94,1.94,0,0,0,0,.22v.3c0,.15,0,.31,0,.46a.56.56,0,0,1-.12.32l0,.07a.1.1,0,0,1,0,0,1.81,1.81,0,0,1,0,.32q0,.2-.12.42a4.13,4.13,0,0,1-.17.45,2.49,2.49,0,0,1-.19.4l-.19.31-.05.09-.12.18a.94.94,0,0,0-.12.22.5.5,0,0,0,0,.23h0a.15.15,0,0,1-.11.07l-.06,0-.2.29Zm-6.76,4.27v-.22a1.78,1.78,0,0,1-.38.22v.08a.09.09,0,0,1,.08,0,.12.12,0,0,1,.12.08v.05Zm-.27-8.45h0l.05.07.06.07.11-.15,0-.07,0-.08Zm.1,9.08a.57.57,0,0,1,0,.13.53.53,0,0,0,0,.13l.18-.2v-.09a.38.38,0,0,1,0-.1l-.09.07A.24.24,0,0,1,338.7,150.2Zm.24.43v0a.25.25,0,0,1,0-.1.88.88,0,0,0-.19.24Zm-.06.55a.51.51,0,0,0,0-.17c0-.06,0-.12,0-.19l-.18.1,0,.35,0,0Zm.14-9.72-.11-.15-.09.12.12.12Zm.06-.66-.14-.07,0,0a.59.59,0,0,1,0,.08.36.36,0,0,0,0,.09Zm-.16,10.94h0S338.92,151.73,338.92,151.74Zm.31-.23a.16.16,0,0,1,0-.07l0-.07-.07,0a.09.09,0,0,1-.08,0,.08.08,0,0,1,0-.07l0,0,0,.09a.37.37,0,0,1,0,.09Zm.15-11.25.05,0,0,0,0,0-.32.43.13.09A1.4,1.4,0,0,0,339.38,140.26Zm0,.75-.1-.09-.17.2.09.14Zm-.26.67,0,0,0-.09Zm.41,7.37,0-.21-.22.19a1.84,1.84,0,0,1-.22.17s0,0,0,0v.09a.13.13,0,0,0,0,.06Zm-.41.65.17-.08.15-.07,0-.19-.35.31Zm.21.92-.05,0-.06,0-.1.21.19-.05Zm-.14-.59.22-.21v0l-.22.11Zm.17.34,0-.25v.15l-.19.21Zm0-8.59a.25.25,0,0,1,0,.07h0l0,0Zm.14.42-.07,0-.08,0h0l.14.13Zm0-1.36a1.13,1.13,0,0,1,.1-.13l.1-.12-.11-.21a1.74,1.74,0,0,1-.21.37Zm.27,10-.26.2a.89.89,0,0,1-.11.26,1.94,1.94,0,0,1,.31-.26l.36-.24s0,0,0-.06v-.09l-.1.06a.11.11,0,0,1,0,.08.11.11,0,0,1-.1,0s0,0,0,0Zm-.23-9.15a.86.86,0,0,0,.13-.14l.11-.15a.86.86,0,0,1-.18-.14,2,2,0,0,0-.19.33Zm0,.29,0,0v0l.09.05,0,0Zm.23,9.52-.07-.05s0,0,0,0,0,0,0,0l-.18.18h.22Zm-.12-.86c0-.05,0-.12,0-.2l0,0a.41.41,0,0,0,0,.11v.11Zm-.06-8.21.11.14a.69.69,0,0,0,.15-.13.49.49,0,0,0,.07-.11.41.41,0,0,0,0-.08.1.1,0,0,1,0-.05l.16-.2,0,0,.26-.29a1.53,1.53,0,0,0,.13-.16,1.77,1.77,0,0,1,.14-.17l.13-.14a2.11,2.11,0,0,1-.23.19,1.63,1.63,0,0,1-.22.17c-.08.12-.16.24-.25.35a2.85,2.85,0,0,1-.24.3l0,.06s-.06.05-.09.05l-.08.05h0v0h0Zm0,7.6a.28.28,0,0,0,0,.09V150Zm.3-8.4s0-.07.07-.1,0,0,0,0-.08.11-.12.15l-.14.16,0,0Zm0,7.11a.21.21,0,0,0,.05-.12c0-.05,0-.09,0-.13l-.26.25.05,0a.13.13,0,0,1,0,.07Zm-.18-7.68.13.1.13.11-.15-.37Zm5.22,1.41a2.74,2.74,0,0,0-.21.42c-.06.14-.12.28-.19.41l-.1.15a.64.64,0,0,1-.08.14.31.31,0,0,0-.05.11h0a.07.07,0,0,1-.06,0l-.07.1-.08.2a.11.11,0,0,1-.11.06l-.05.08s0,0,0,.08a.25.25,0,0,1,0,.07h0l0,0c-.2.25-.41.5-.63.73a1.35,1.35,0,0,1-.18.24,5.82,5.82,0,0,1-.52.56l-.12.17-.13.17-.18.18a2.66,2.66,0,0,1-.28.23.09.09,0,0,1,.07.09c0,.05-.05.11-.14.18a1.91,1.91,0,0,1-.22.17.13.13,0,0,1,0,.06.26.26,0,0,1-.11.18l-.3.21-.39.21-.39.22-.09.07v0h0v0h0c0,.05,0,.1,0,.15v.17c0,.21,0,.43,0,.69s0,.48-.06.71a.07.07,0,0,1,0,.05.11.11,0,0,1,0,0s0,0,0,0v.36l.31,0h.32l.41,0,.67,0,.74,0,.62,0a2.61,2.61,0,0,1,.53.11l.42,0,.42,0H345l.32,0h.11l.12,0h1l0,0q0-.21,0-.51c0-.2,0-.4,0-.6l-.07-.42a3,3,0,0,1-.46-.05,4.85,4.85,0,0,0-.58-.07l-.34,0,0,0a.77.77,0,0,1-.26.07h-.88l-.27,0h-.28l0,0h-1c-.07,0-.1-.05-.1-.1a.1.1,0,0,1,0-.06l0-.05h.05l0,0a.6.6,0,0,1,.21-.17l.53-.45.16-.16.16-.17a0,0,0,0,1,0-.06,1.37,1.37,0,0,1,.4-.51l.53-.44,0,0a4,4,0,0,0,.26-.32,3.72,3.72,0,0,0,.22-.3l.16-.23c0-.05.07-.08.08-.08h0c.14-.2.29-.39.44-.57a5,5,0,0,0,.44-.61.82.82,0,0,0,.24-.25c.06-.11.12-.22.18-.35s.1-.25.14-.37a3,3,0,0,1,.15-.31v0s0,0,0,0a1.19,1.19,0,0,1,.09-.44c.06-.15.1-.28.14-.4a.87.87,0,0,1,0-.3,1.59,1.59,0,0,1,.08-.5l0,0a4.26,4.26,0,0,1-.15-.69,5.73,5.73,0,0,0-.13-.7,3.37,3.37,0,0,1-.17-.42,2.37,2.37,0,0,0-.17-.41c-.19-.17-.37-.36-.55-.54s-.35-.38-.51-.57l-.47-.26a.89.89,0,0,1-.36-.36,1.82,1.82,0,0,0-.36-.08h-.29a.11.11,0,0,1-.1-.1.08.08,0,0,1,0-.08l.08,0h-.18a.28.28,0,0,1-.16.14,1.45,1.45,0,0,1-.25.1l-.25.06-.14,0-.34.09-.23.15a.27.27,0,0,1-.11.1l-.16.09h-.05s-.07,0-.08,0a2.38,2.38,0,0,1-.39.25,1.8,1.8,0,0,0-.4.25l-.18.23c-.06.09-.11.13-.15.13h0l-.06.07-.08.07c.05,0,.08.06.08.09s0,0,0,0,0,0,0,0h0l-.13.11a1.94,1.94,0,0,0-.29.26,1.32,1.32,0,0,0-.2.33l-.08.2-.07.07a1.12,1.12,0,0,0,.11.26c.06.08.11.17.18.25a2.48,2.48,0,0,0,.19.26l.19.24a.41.41,0,0,1,.1-.09.28.28,0,0,0,.1-.09,1.3,1.3,0,0,1,.19-.33c.1-.12.21-.23.32-.35s.21-.22.31-.31a2.13,2.13,0,0,1,.22-.19h0l.28-.19.22-.13a.4.4,0,0,1,.16-.06h.05a.61.61,0,0,1,.17-.07l.17,0c0-.07,0-.12.14-.14l.34,0,.05,0h.33l.09-.09a.11.11,0,0,1,.07,0l.07,0a.1.1,0,0,1,0,.09h0l0,0H344a.11.11,0,0,1,.09.11l.18.09c.12.07.25.16.39.26a2.65,2.65,0,0,1,.38.37.65.65,0,0,1,.18.43c0,.08-.05.11-.16.11l.1.34a5.4,5.4,0,0,1,.14.72c0,.07,0,.1-.06.1s-.06,0-.06,0v.08a.17.17,0,0,1,0,.07.91.91,0,0,1-.09.3c-.05.14-.11.3-.16.47Zm-4.85,8.78.05,0,.06,0-.11,0a.23.23,0,0,1-.11,0l-.19.16A1.53,1.53,0,0,1,340.06,151.22Zm-.15-1.32v-.23a1.85,1.85,0,0,1,0-.23.71.71,0,0,1-.14.25,1,1,0,0,0,0,.17V150Zm0,.43v-.08a.22.22,0,0,1,0-.08l-.07.06-.07.05,0,.21.08,0v-.12Zm0-1c0-.06,0-.11,0-.17a1,1,0,0,1,0-.17l-.12.11a1,1,0,0,0,0,.2.06.06,0,0,0,0,.06l0,0s0,0,.05.06S339.93,149.32,339.93,149.29Zm.42,2.24,0-.08h-.25l-.07.06ZM340.1,141l.09.26.05-.07h0v0Zm.44,10.21h-.07l-.37.1h.38Zm-.06-.39a.1.1,0,0,1-.06,0l-.23.17.22,0,.18-.15Zm-.23-.14a.34.34,0,0,0,.12-.09l-.12,0Zm.59-.12h-.1a.18.18,0,0,0-.09.07l.17,0,.09-.08s0,0,0,0Zm.05.65h-.1l-.06.12s0,0,0,0h0Zm.08.34h-.11l0,0Zm.14-.55,0,0,0,0-.2,0-.06.1ZM341,141l.11-.07.11-.06a.05.05,0,0,1,0,0h0Zm.18,10.39a.41.41,0,0,1,.05-.09l.05-.09h-.09l-.19.16h.18Zm.41-.83H341a.11.11,0,0,1,.06.11s0,0,0,0h.15l.16,0Zm-.42-3.5.14-.11.11-.08h0l-.12.09Zm.59-6.81a.11.11,0,0,1-.09,0l-.15.15-.15.14.23-.13h.05a.08.08,0,0,1,.07,0h0v0a.09.09,0,0,1,0-.05.11.11,0,0,1,.07-.06ZM341.48,151l0,0,0,0Zm.21.21h-.07a.28.28,0,0,0-.09.1l-.07.09h0Zm.37-10.6a.15.15,0,0,1,0-.06l0,0-.1,0-.1,0h.14Zm-.24,10.81h.2a.65.65,0,0,1,.06-.21h0Zm0-11.39a.29.29,0,0,0,.2-.08.76.76,0,0,0,.13-.18l-.15.07Zm.2,10.6-.11.19.21,0,.24-.18-.22,0Zm.66-.22h0Zm-.45-10.26-.06,0s0,0,0,0h0Zm-.06,11.54h.22a.62.62,0,0,1,.19,0v-.06h-.36l-.07,0Zm.23-.45h-.1l-.06.13Zm.12-11.53s-.06,0-.06,0l-.11.13-.07.12h0l.12,0,.12,0,.09-.1Zm-.18,5.94.29-.34.3-.33a.09.09,0,0,1,0-.07h0v0l0-.07h-.06l-.05,0a2.47,2.47,0,0,1-.27.42A2,2,0,0,0,342.38,145.6Zm.15-5.32h.14l.1-.2-.21,0-.16.16.11.06Zm.18,10.36h0a.41.41,0,0,0-.09.1l-.07.11.23,0,.24-.22Zm-.17.77h.13l0-.1a.63.63,0,0,1,0-.09Zm0-10.67,0,0,.07,0a0,0,0,0,0,0,0Zm.06-1.27.18.06.31-.27-.2,0a.1.1,0,0,1,0,.05Zm.2,1,.18-.12.21-.15a.79.79,0,0,0-.25,0,1.19,1.19,0,0,0-.08.16Zm.06,11h.16l-.11-.17.11,0Zm0,.25h.12l.08,0H343Zm.18-10.9.1-.17a1.1,1.1,0,0,1,.14-.18s0,0,0,0v-.06l-.21.16-.16.1Zm0,3.63.15-.16.12-.25-.14.17,0,0h0l-.05.07Zm.71,6.16a2,2,0,0,1-.34.07l-.12.11s-.07.06-.08.09l-.07.08h.23s0,0,0,0l0,0h0s0-.08,0-.07,0,0,.08-.05Zm-.49-10.85a.08.08,0,0,1,.09-.09c.07,0,.1,0,.1.09a.41.41,0,0,0,0,.16l0,0a.38.38,0,0,1,.09-.09.24.24,0,0,0,.08-.09l-.15-.17-.15-.17-.22.31.09.05Zm.13,1.58s0,0,0,0l0-.38-.07.09A.53.53,0,0,1,343.42,141.3Zm-.05,2.32.21-.27-.06,0a.13.13,0,0,1-.09,0Zm.27,7.77-.06,0h-.05l-.06.09h.08Zm.43-12-.18-.11-.18-.08a.41.41,0,0,1-.13.1l.13.13.16.19.11-.12Zm-.48,1.51a.38.38,0,0,1,0,.1.28.28,0,0,1,0,.09l0-.06Zm.08,3,.11-.14.12-.16.11-.15a.27.27,0,0,0,.05-.13l0-.21-.35.45-.06.2-.08.21Zm.07-2.49v0s0,0,0,0a.88.88,0,0,0-.07.14Zm.06.26-.13.1a.45.45,0,0,0,0,.13l.32-.18Zm.1-.94-.11-.16-.08.1.09.2Zm-.09,1.44V142a.56.56,0,0,0-.05.08l-.05.07Zm-.08.29s0,0,0,0v0h0l.06,0H344l.25,0-.41-.06Zm.17-1.21.08-.07a.6.6,0,0,1,.08-.08.64.64,0,0,0-.06-.18l-.13.19Zm0,9.74.11,0,.12,0,.08-.08Zm.05.54a.08.08,0,0,1,0,0h.29Zm.21-8.91a.71.71,0,0,0,0-.14v-.14l-.2.25,0,.29Zm-.07-2.42s0,.05-.06.07l-.06.08.1.09a.07.07,0,0,1,0-.07h.08l0,0Zm-.1,1.82.09,0a.27.27,0,0,1,.08-.07.81.81,0,0,0,0-.16v-.14l-.17.23a.28.28,0,0,1,0,.09Zm0,8.7,0,0,.22,0h.22l0,0Zm.2,1.06h-.09l0,0,0,0Zm0-11.77.14.16.18-.22a1.42,1.42,0,0,1-.05-.16.17.17,0,0,0-.06-.12h0l-.05.05,0,0-.06.07a.07.07,0,0,1,0,0Zm.07.57a.31.31,0,0,1,0,.09v.1l.06.07.16-.14-.16-.2Zm0,10.76h0Zm.21-8.59s0-.05,0-.11a1.22,1.22,0,0,0,.07-.17l-.15.2a.78.78,0,0,1-.05.14s0,.1,0,.15Zm.12,8.37.06-.08a.27.27,0,0,1,.07-.08h-.23l-.13.13Zm.46.81.19-.23a.22.22,0,0,0-.15.08.19.19,0,0,1-.13.08c-.07,0-.1,0-.1-.11l-.27,0a.28.28,0,0,0-.23.14h0a.11.11,0,0,1,.08,0h.57Zm-.27-11.6-.1-.08a.76.76,0,0,1-.08-.11l-.16.2a.64.64,0,0,1,.1.13l.09.11.06,0a.2.2,0,0,1,.15-.06A.73.73,0,0,1,344.8,140.23Zm-.34.81a2.22,2.22,0,0,1,.09.37l.12-.14c0-.09,0-.17,0-.25s0-.14,0-.19Zm.11,1a.06.06,0,0,1,.05,0l.05-.07a.45.45,0,0,0,0-.13v-.18l-.11.12v.14a1,1,0,0,1,0,.16Zm.13,8.61h.12l0-.06h-.05l0,0Zm.21-10.14v0l-.14.13.05.1a.34.34,0,0,1,0,.15v.15h0a.32.32,0,0,1,0-.12.36.36,0,0,1,0-.19.21.21,0,0,0,.05-.09Zm.13,10.38H345a.08.08,0,0,1,0,.05l-.1.11h0Zm-.13-9.55,0,.06v0h0A.31.31,0,0,1,344.91,141.34Zm0,10H345l0,0H345Zm.5-.8a2.07,2.07,0,0,1-.41.07l.07.07,0,.05h.12l.21-.33Zm.1.47h-.07l-.07.21.06-.1Zm.89-.49a1,1,0,0,1-.25,0h-.49l0,.06-.1.18.14,0h.06c.07,0,.1,0,.1.1l.25-.31a.09.09,0,0,1,.08,0,.1.1,0,0,1,.1.08A.34.34,0,0,0,346.42,150.48Z" transform="translate(-0.43 -94.83)"/><path class="cls-35" d="M346.27,146.16a.08.08,0,0,1,.05-.08s0,0,0,0h0v0l.15-.22.22-.3.26-.33.25-.29.09-.11.36-.68a3.46,3.46,0,0,1,.47-.64A13.77,13.77,0,0,1,349,142c.34-.49.68-1,1-1.38.08-.15.17-.29.25-.43l.25-.37,0,0a1.64,1.64,0,0,1,.25-.3s0,0,0-.07a.4.4,0,0,1,.1-.2,3.69,3.69,0,0,1,.28-.29l.37-.34.39-.34a3.36,3.36,0,0,1,.36-.27,1.94,1.94,0,0,1,.24-.16.27.27,0,0,0,.12-.09l.09-.13.09-.11a.2.2,0,0,1,.13,0s.08,0,.09,0h.2l.42-.05.5-.07.51,0,.47,0h.27q.15,0,.15.12a.06.06,0,0,1,0,0h.06a.09.09,0,0,1,.1-.1c.07,0,.1,0,.1.12s0,.26-.05.38a2.6,2.6,0,0,0-.05.39l0,.35a5.62,5.62,0,0,1,.09.57c0,.2,0,.39,0,.58s0,.37,0,.55,0,.36,0,.54a.11.11,0,0,1,.06.11c0,.65,0,1.31-.07,2s-.07,1.31-.07,1.94v.33c0,.12,0,.26,0,.42h.14c0-.06,0-.09.11-.09H357l0,1.83a2.85,2.85,0,0,1,0,.31c0,.1-.05.14-.13.14h-.05a.25.25,0,0,1,0,.07,2.05,2.05,0,0,1-.13.25c-.07.1-.13.2-.21.3l-.23.28a1.38,1.38,0,0,1-.21.21l-.12,0-.17,0h-.08c0,.25,0,.5-.05.75s0,.51,0,.76c0,0,0,0,.06,0a.16.16,0,0,1,0,.08.12.12,0,0,1-.06.09h0a0,0,0,0,1,0,0l-.17.28-.24.38a3,3,0,0,1-.25.32c-.09.1-.16.14-.23.14h0s0,0-.09,0l-.18,0-.17,0-.1,0-.06,0c-.07,0-.1-.05-.1-.14a4.8,4.8,0,0,1-.47.1,2.6,2.6,0,0,1-.46,0h-.22l-.19.05-.22,0h-.07l-.07,0q-.07,0-.09-.09v0a.13.13,0,0,0,0-.06v-.08a2.31,2.31,0,0,1,0-.37.08.08,0,0,1,0-.07v0s0,0,0,0l.13-2v-.23l0,0-.83-.14a.34.34,0,0,1-.13,0h-.23l-.4,0-.63,0-.95,0-1.12,0-1.44,0h0a.09.09,0,0,1-.1-.1s0,0,0,0v0a.18.18,0,0,1-.1,0,.14.14,0,0,1-.05-.1.09.09,0,0,1,0-.07.12.12,0,0,1-.06-.09v-.35a1.55,1.55,0,0,0,0-.15l0-.11a.26.26,0,0,1,0-.07.11.11,0,0,1,0-.09,1.21,1.21,0,0,1,0-.19v-.33a.71.71,0,0,1,0-.14Zm.54,2.13a.35.35,0,0,1,0-.06.41.41,0,0,1,0-.11c-.09.06-.14.11-.15.16s0,.1,0,.18l0,0Zm-.16-.87.1-.07,0-.38h0l0,.08s0,0,0,0v0a.08.08,0,0,1,0,.07Zm0,.55.13-.09a.2.2,0,0,1,0-.07s0,0,0-.07l-.06,0-.06,0Zm.36.63c-.05,0-.07,0-.08,0a1.36,1.36,0,0,1-.24.13h.39a.06.06,0,0,1,0-.06h0s0,0,0,0Zm-.3-2.59h0v.16L347,146l.16-.35-.15.16-.12.1h0Zm.19.74.18,0,.16-.07v-.18l-.19.08c-.07,0-.11.07-.11.14Zm0,.47.16-.13.16-.15v-.07l-.16,0-.17,0a.57.57,0,0,1,0,.13A.28.28,0,0,0,346.91,147.22Zm0,.53.14-.1.14-.11v-.07l-.15.09-.14.09h0a.06.06,0,0,0,0,0Zm.26.23s0-.07,0-.09v-.09a1.08,1.08,0,0,1-.24.18l0,.15Zm0-1.73v0l-.14.11Zm-.06,1,0,0h0Zm.06,1.12h.1l-.05,0Zm.62-3.34a1.57,1.57,0,0,0-.19.15l-.19.15-.13.27h.06l.13-.07Zm-.45,2.34h0Zm.16.38a.12.12,0,0,1,0-.09v-.18l-.21.19a.28.28,0,0,0,0,.09v.08Zm-.17-.68v.08l.2-.06v-.21Zm.2-.77-.13.07a.22.22,0,0,0,0,.15l.08,0,.09,0Zm-.14,1.92a.1.1,0,0,1,0,.06.09.09,0,0,1,0,.08l.25,0a.4.4,0,0,1,.13-.13.11.11,0,0,1-.07-.11c0-.07,0-.1.12-.1h0a.08.08,0,0,1,0-.07.07.07,0,0,1,0-.06l-.08,0a.18.18,0,0,1-.15.09l-.05,0a0,0,0,0,0,0,0,0,0,0,0,1,0,0,.09.09,0,0,1,0,.08Zm.13-2.18,0,0v-.12l0,.17Zm.54-1.43a1.71,1.71,0,0,1-.31.15l-.09.13Zm.15.15,0,.05a3.81,3.81,0,0,1-.22.34c-.09.12-.17.24-.25.37h0a.83.83,0,0,1,.13-.16,3.2,3.2,0,0,0,.23-.33l.22-.34Zm8.52,2.88q0-.21,0-.54c0-.22,0-.43,0-.65a4.51,4.51,0,0,1,0-.58h-.58l-.54,0-.22-.07c0-.25,0-.45,0-.61v-.5c0-.14,0-.3,0-.49s0-.38,0-.56h0v-.08c0-.25,0-.51,0-.76s0-.51,0-.76v-.42c0-.14,0-.28,0-.42l0-.75h0s0,0,0-.08v-.58c0-.2,0-.47,0-.8s.05-.75.11-1.24H354c-.26,0-.49,0-.7,0a1.75,1.75,0,0,0-.47.12v0l0,0a1,1,0,0,1-.07.17c0,.09-.09.21-.16.35l-.23.47c-.08.17-.17.34-.26.51l-.26.46c-.08.14-.14.26-.2.35h0s0,0,0,.07a.07.07,0,0,1,0,0h0c-.11.16-.25.36-.39.59s-.3.44-.46.64l-1.15,1.72a.11.11,0,0,1,0,.06s0,0,0,0a5.71,5.71,0,0,1-.45.68c-.16.22-.33.43-.5.63a1,1,0,0,1-.08.2l-.22.36-.28.41a2.67,2.67,0,0,1-.27.33c0,.08,0,.18,0,.31s0,.26,0,.41l0,.43c0,.14,0,.26,0,.36v.23l.34,0a2,2,0,0,1,.49-.06l.51,0,.45,0,.45,0,.43-.06.43,0,.32,0,.24.05.18,0,.19,0H352a.33.33,0,0,1,.13,0s.05,0,.06,0l.05,0h-.06l.36,0,.37,0h.59l.14,0v.06l0,0s0,.05,0,.1a.09.09,0,0,0,0,.06.09.09,0,0,1,0,.06l0,.41v2.15a.1.1,0,0,1,.05.1v0s0,0,0,0l.37,0,.44,0,.45,0,.37,0h.05v0l.07,0h0c0-.18,0-.36,0-.54s0-.36,0-.54c0,0,0,0,0,0a0,0,0,0,1,0,0h0a.53.53,0,0,1,0-.13v-.12a1,1,0,0,1,0-.29,2.83,2.83,0,0,0,0-.29l0-.85a.78.78,0,0,0,.22,0l.15,0a.24.24,0,0,0,.13-.07,3,3,0,0,0,.42,0A3.1,3.1,0,0,1,356.81,147.64Zm-8.62.63h-.08l-.1.07h0ZM348,148h0Zm.59-4.23v-.05a.7.7,0,0,1-.14.08l-.12.06-.1.14Zm-.19,4.2a.54.54,0,0,1,0,.08h.07l.09-.05-.11,0Zm.55-4.12-.14.08-.14.09-.06.12h.11l0,0,0,0Zm-.26,4.44h0Zm.12.23H349a0,0,0,0,1,0,0h-.13Zm.22-5.93,0,0,.09,0a.07.07,0,0,1,0,.07s0,0,0,.06l-.25.32.07,0,.08-.06.14-.22a.33.33,0,0,1,.05-.12l.06-.12Zm.15.79a.66.66,0,0,0-.19.09l0,.08.22-.15S349.2,143.41,349.21,143.41Zm.17,4.54-.18,0a.54.54,0,0,0-.16.09l-.06.05h.08l.16-.09Zm0-4.83,0,0-.16.12.16-.05Zm.16,5.49s0,0,0,0l0,0h-.08l-.07,0h.1Zm-.07-5.91a.1.1,0,0,1,0,0h0l.05,0,.18-.29-.1,0Zm.24,3.25a.11.11,0,0,1-.08-.1c0-.07,0-.1.11-.1h.08s0,0,0,0v0q.26-.26.42-.45l.29-.39.32-.46c.12-.17.28-.39.48-.65a.57.57,0,0,1,.08-.13l.09-.14c.11-.19.22-.37.31-.54l.3-.53a5.54,5.54,0,0,1,.3-.53,5.16,5.16,0,0,1,.35-.51l.16-.23c.05-.09.1-.19.16-.28a1.59,1.59,0,0,1,.18-.27.79.79,0,0,0,.1-.27.16.16,0,0,1,.16-.14c.07,0,.1,0,.1.11v.27l0,.06,0,.16V142a.83.83,0,0,0,0,.22,1.62,1.62,0,0,1,0,.22s0,.06,0,.08v.1l0,.94c0,.1,0,.19,0,.28a2.44,2.44,0,0,1,0,.27,2.75,2.75,0,0,1,0,.38c0,.15,0,.3,0,.45s0,.33-.05.49a3.83,3.83,0,0,0,0,.47l-.14,0h-.16v-.07l-.09,0,0,0,0,0-.05,0H353l-.08.06a.39.39,0,0,1-.15,0h-.16l-.27,0h-.13l-.19,0h-.36l-.29,0h-.2l-.17,0a1,1,0,0,1-.21,0l-.06,0h-.15l-.26.05a1.54,1.54,0,0,1-.3,0A.78.78,0,0,1,349.71,146Zm.06,2a.17.17,0,0,1,0,.05.16.16,0,0,1-.05.1l-.11.09h0l.14-.13.13-.11Zm.08-6a.19.19,0,0,0,.09,0l.1,0,.11-.19-.17.06Zm.34,6-.12.1-.14.12H350A2.11,2.11,0,0,0,350.19,148Zm-.19-6.78.08-.08.15-.23-.08.07Zm.09,7.48,0-.05-.07.05Zm.26-7.32.18-.3-.3.23-.09.14Zm1.92,4.22s0,0,0-.05a.14.14,0,0,1,0-.06l.05-.06v-.26h0c-.07,0-.11-.06-.11-.15a.61.61,0,0,1,.13-.34.08.08,0,0,1,0,0c0-.18,0-.36,0-.54s0-.37,0-.55c0,0,0,0-.06.11a.62.62,0,0,0,0,.1v0l.09-.16a1.24,1.24,0,0,1,0-.27V143a.12.12,0,0,1-.1-.13.52.52,0,0,1,.08-.24l-.11.39v0s0,0,0,0h0c-.08.11-.16.21-.23.32l-.25.3a0,0,0,0,0,0,0v0a.21.21,0,0,1,0,.06h0a3.09,3.09,0,0,0-.31.34l-.25.36c-.09.14-.2.3-.34.48s-.32.4-.55.67h0a.05.05,0,0,1,0,0s0,0,0,0h0s0,0,.05-.05Zm-1.83,2.38a.49.49,0,0,1-.08.12.27.27,0,0,0,.08-.07.31.31,0,0,1,.1,0Zm.12-7.17s0,0,0,0Zm.13-.25.09,0,.09,0,.13-.22-.18.09Zm.18,7.42s0,0,0,0a1.81,1.81,0,0,1-.18.27h.11l.25-.19.26-.17h-.16Zm.18-7.93.07,0,.08,0,.06-.11-.11.05Zm.23.19a.21.21,0,0,0,0-.06.59.59,0,0,1,0-.08l-.11.18Zm.36-1.05-.08.07-.08.09v0l.1,0,.12-.2Zm.14,9-.14.12-.14.12h.11a.54.54,0,0,1,.07-.13Zm-.17-.12s0,0,0,0l.07-.06h0A.08.08,0,0,1,351.61,148Zm.58-9.29-.14.13-.14.11a.1.1,0,0,1,.06.1Zm0,9.29-.09.1a.86.86,0,0,0-.07.1l.12-.08.14-.1Zm.05.32-.09.06-.07,0h0Zm.48-.12a.43.43,0,0,0-.21.11l-.17.17h.17l.1-.14Zm-.18,3.32s0,0,0,0v-.15Zm.33-6.16-.3.21h.19a.61.61,0,0,1,0-.12Zm-.2-2.44v.1a.43.43,0,0,0,0,.11l.07-.13,0-.16Zm.05,6.34,0-.15h-.07v.18Zm0-5.78,0,0v0a0,0,0,0,0,0,0l-.06.08Zm0,.27h0a.56.56,0,0,1,0,.07v-.06Zm0-1.12.12-.11a.08.08,0,0,1,0,0v0l-.13.16Zm.14-.57a.13.13,0,0,1,0-.06v-.07l-.12.22v0Zm-.09,2.82s0,0,0,0v0l.14-.17v0Zm0,4s0,0,0,.06a.1.1,0,0,1,.09-.06l.08,0,0,0h-.26Zm0,2.29a1.27,1.27,0,0,1,.22-.25l0,0a.08.08,0,0,1,0,0,.39.39,0,0,1,0-.13l-.1.11-.08.11Zm.23-1v0a0,0,0,0,0,0,0l-.1.08-.13.16h0Zm-.19-5.59.05,0,.05-.06v0l-.05,0-.05,0Zm0,5.22c0,.07,0,.12,0,.15l.23-.22v-.06Zm.18,1.86.09,0a.14.14,0,0,1,.08-.12h0a1.42,1.42,0,0,1,.14-.23.14.14,0,0,1-.08-.05l-.21.26a.29.29,0,0,1-.22.14Zm-.18-6.8.07,0v0Zm.09-.65a.57.57,0,0,0,0-.13v-.13l-.07.1s0,.07,0,.11a.45.45,0,0,0,0,.11Zm.14-2.44c0-.06,0-.1.09-.1s.08,0,.11-.17a1.6,1.6,0,0,1,.08-.3h.11l0-.39a4.43,4.43,0,0,1-.28.51,3.82,3.82,0,0,1-.33.47s0,0,0,.06a.11.11,0,0,1,.1,0,.11.11,0,0,1,.07,0h0v0A0,0,0,0,0,353,141.76Zm-.19,7.75.1,0,.09-.05,0-.3a1.12,1.12,0,0,0-.17.19Zm.2-1.57h-.19l.07.06a.08.08,0,0,1,0,.06,1.46,1.46,0,0,1-.07.19l.2-.22c.06-.08.13-.14.19-.21h-.13a.15.15,0,0,1-.06.09Zm-.17-4.33a.41.41,0,0,0,0-.12l.05.27v-.18Zm.09-.38v0Zm.47,1.72a.28.28,0,0,1,0-.08v-.05l-.19-.21a.31.31,0,0,1,0,.1v.09a.16.16,0,0,1,.09,0s0,0,0,.08a.54.54,0,0,1-.06.11l-.06.1h0a.83.83,0,0,1-.13.18.88.88,0,0,0-.12.17.11.11,0,0,1,.08,0h0l.1,0,.11,0a.14.14,0,0,1,.09.05,1.24,1.24,0,0,0,0-.27A2.45,2.45,0,0,0,353.42,145Zm0,5.64v-.42a.57.57,0,0,1-.12.15l-.14.13,0,.33.16-.1.13-.09h0Zm-.27-2.09h.23v0s0-.06,0-.1v-.1Zm.21,1.42s0,0,0,0h0v-.31l-.2.26a.41.41,0,0,0,0,.12l.07,0Zm0-.65c0-.06,0-.12,0-.17v-.19l-.08,0a1.2,1.2,0,0,0,0,.2c0,.06,0,.13,0,.19l.16,0v0l0,0Zm.05-5.09-.08.11-.09.11v.15l.17-.09Zm.1-1.11a1.88,1.88,0,0,1-.19.26l0,.29h.05c.06,0,.09,0,.09.1a.08.08,0,0,1,0,.07l-.12-.23c0,.06,0,.11,0,.17v.16l.14-.08h0v-.09a.3.3,0,0,1,0-.1v0s0-.06,0-.07h.08l0,.14v-.58Zm-.23,5.64h0Zm.13,2.2s0,.05,0,.08l-.06.07a.7.7,0,0,0,.29-.09l.17-.15s0,0,0,0l-.13,0-.11,0Zm0-8.09v-.18c0-.06,0-.12,0-.18l0,.06a1,1,0,0,1,0,.17c0,.06,0,.12,0,.18l.06-.05Zm0-1.16h0v0Zm.18,9.59a.94.94,0,0,1-.1.1.76.76,0,0,0-.08.11l.2-.09a.89.89,0,0,0,.18-.13h-.2Zm1.22-.48-.15,0h-.22l-.23,0h-.14l0,.07-.17.14h.2l.71-.22.07,0c.06,0,.09,0,.09.13l0,.1H355l.25-.29a.78.78,0,0,1-.21,0Zm-.58.67.08,0h.15l.16,0h.08l.13-.17h-.07a.33.33,0,0,1-.12.06l-.19.06-.21,0a.35.35,0,0,0-.12.05l.1,0Zm1.65-2.74a.09.09,0,0,1,0-.07h0a.11.11,0,0,1,0-.08.66.66,0,0,0-.06.2l0,.06h.08l.15,0Zm0-.8a.09.09,0,0,1,0-.07l0,0h-.15V148a1.48,1.48,0,0,1,0,.21.89.89,0,0,0,.09-.16A.75.75,0,0,0,355.91,147.9Zm.29,0,.06,0c.06,0,.08,0,.08.11a.19.19,0,0,1,0,.08.56.56,0,0,0-.11.13,2.09,2.09,0,0,1,.22-.2l.2-.12h-.53a0,0,0,0,0,0,0v.05s0,0,0,0Z" transform="translate(-0.43 -94.83)"/><path class="cls-4" d="M235.39,116.1h25.44a4,4,0,0,1,4,4v22.16a.44.44,0,0,1-.28.41.43.43,0,0,1-.48-.1l-6.76-6.75H235.39a4,4,0,0,1-4-4V120.07A4,4,0,0,1,235.39,116.1Z" transform="translate(-0.43 -94.83)"/><path class="cls-10" d="M232.38,113.52h25.44a4.49,4.49,0,0,1,4.49,4.49v22.17a.9.9,0,0,1-.16.53,1,1,0,0,1-.43.36h0a1.09,1.09,0,0,1-.56.06,1,1,0,0,1-.5-.27l-6.6-6.6H232.38a4.51,4.51,0,0,1-4.49-4.49V118a4.51,4.51,0,0,1,4.49-4.49Zm25.44,1H232.38a3.43,3.43,0,0,0-2.43,1,3.47,3.47,0,0,0-1,2.43v11.76a3.47,3.47,0,0,0,1,2.43,3.43,3.43,0,0,0,2.43,1h22.11l6.78,6.77V118a3.47,3.47,0,0,0-3.45-3.44Z" transform="translate(-0.43 -94.83)"/><path class="cls-10" d="M232.17,117.91a.29.29,0,1,1,0-.58H258a.29.29,0,0,1,0,.58Z" transform="translate(-0.43 -94.83)"/><path class="cls-10" d="M232.17,120.7a.29.29,0,1,1,0-.57h2.74a.29.29,0,1,1,0,.57Zm6.39,0a.29.29,0,1,1,0-.57H258a.29.29,0,0,1,0,.57Z" transform="translate(-0.43 -94.83)"/><path class="cls-10" d="M232.17,123.5a.29.29,0,0,1,0-.58H258a.29.29,0,0,1,0,.58Z" transform="translate(-0.43 -94.83)"/><path class="cls-10" d="M239.36,127.29a.29.29,0,0,1,0-.58H258a.29.29,0,0,1,0,.58Z" transform="translate(-0.43 -94.83)"/><path class="cls-10" d="M247.7,130.32a.29.29,0,0,1-.29-.29.28.28,0,0,1,.29-.28H258a.28.28,0,0,1,.28.28.29.29,0,0,1-.28.29Z" transform="translate(-0.43 -94.83)"/><path class="cls-10" d="M241.78,130.32a.29.29,0,0,1-.29-.29.28.28,0,0,1,.29-.28h3.69a.28.28,0,0,1,.29.28.29.29,0,0,1-.29.29Z" transform="translate(-0.43 -94.83)"/><path class="cls-4" d="M382.26,313.11a.65.65,0,0,0-1.3,0v1.54h-1.54a.65.65,0,1,0,0,1.3H381v1.54a.65.65,0,0,0,1.3,0V316h1.54a.65.65,0,1,0,0-1.3h-1.54Z" transform="translate(-0.43 -94.83)"/><path class="cls-20" d="M127.31,302.78H105.18a3.33,3.33,0,0,0-3.31,3.3,3.31,3.31,0,0,0,1,2.34,3.26,3.26,0,0,0,2.33,1h22.13a3.31,3.31,0,0,0,0-6.61Z" transform="translate(-0.43 -94.83)"/><path class="cls-10" d="M77.82,303.16h28.29a2.93,2.93,0,0,1,2.92,2.92h0a2.93,2.93,0,0,1-2.92,2.93H77.82Z" transform="translate(-0.43 -94.83)"/><path class="cls-37" d="M77.82,302.78a.39.39,0,1,0,0,.77h28.29a2.52,2.52,0,0,1,1.79.74,2.52,2.52,0,0,1,0,3.59,2.52,2.52,0,0,1-1.79.74H77.82a.39.39,0,1,0,0,.77h28.29a3.3,3.3,0,0,0,2.34-1,3.3,3.3,0,0,0,0-4.67,3.3,3.3,0,0,0-2.34-1Z" transform="translate(-0.43 -94.83)"/><path class="cls-37" d="M126.29,306.08a3.31,3.31,0,0,0-3.31-3.3h2.88a3.31,3.31,0,0,1,0,6.61H123a3.31,3.31,0,0,0,3.31-3.31Z" transform="translate(-0.43 -94.83)"/><path class="cls-37" d="M122.12,306.08a3.31,3.31,0,0,0-3.31-3.3h2.88a3.31,3.31,0,0,1,3.31,3.3,3.35,3.35,0,0,1-1,2.34,3.3,3.3,0,0,1-2.34,1h-2.88a3.31,3.31,0,0,0,3.31-3.31Z" transform="translate(-0.43 -94.83)"/><path class="cls-30" d="M83.63,297H103a2.89,2.89,0,0,1,2,4.94,2.9,2.9,0,0,1-2,.85H83.63a2.9,2.9,0,0,1-2.89-2.9A2.9,2.9,0,0,1,83.63,297Z" transform="translate(-0.43 -94.83)"/><path class="cls-10" d="M127,297.32H102.19a2.56,2.56,0,0,0-2.55,2.56h0a2.56,2.56,0,0,0,2.55,2.56H127Z" transform="translate(-0.43 -94.83)"/><path class="cls-38" d="M127,297a.34.34,0,1,1,0,.67H102.19a2.22,2.22,0,0,0,0,4.44H127a.34.34,0,1,1,0,.68H102.19a2.9,2.9,0,0,1-2.89-2.9,2.9,2.9,0,0,1,2.89-2.89Z" transform="translate(-0.43 -94.83)"/><path class="cls-38" d="M84.53,299.88A2.9,2.9,0,0,1,87.42,297H84.9a2.89,2.89,0,0,0-2,4.94,2.9,2.9,0,0,0,2,.85h2.52a2.9,2.9,0,0,1-2.89-2.9Z" transform="translate(-0.43 -94.83)"/><path class="cls-38" d="M88.17,299.88a2.92,2.92,0,0,1,2.9-2.89H88.55a2.89,2.89,0,0,0-2,4.94,2.9,2.9,0,0,0,2,.85h2.52a2.92,2.92,0,0,1-2.9-2.9Z" transform="translate(-0.43 -94.83)"/><path class="cls-39" d="M258.57,310.15H163.42a3.25,3.25,0,0,1-3.2-3h0a2.82,2.82,0,0,1,2.84-3h95.15a3.26,3.26,0,0,1,3.2,3h0A2.82,2.82,0,0,1,258.57,310.15Z" transform="translate(-0.43 -94.83)"/><path class="cls-40" d="M258.57,310.15H163.42a3.24,3.24,0,0,1-2.65-1.43,2.83,2.83,0,0,1,2.48-1.42H258.4a3.26,3.26,0,0,1,2.65,1.42A2.82,2.82,0,0,1,258.57,310.15Z" transform="translate(-0.43 -94.83)"/><path class="cls-40" d="M260.56,304.1H184.45a3.68,3.68,0,0,1-3.7-4l3.11-49.3a4.29,4.29,0,0,1,4.21-3.95h76.11a3.68,3.68,0,0,1,3.7,3.95l-3.12,49.3A4.27,4.27,0,0,1,260.56,304.1Z" transform="translate(-0.43 -94.83)"/><path class="cls-10" d="M260.56,304.1H186.7a3.68,3.68,0,0,1-3.71-4l3.12-49.3a4.29,4.29,0,0,1,4.2-3.95h73.87a3.68,3.68,0,0,1,3.7,3.95l-3.12,49.3A4.27,4.27,0,0,1,260.56,304.1Z" transform="translate(-0.43 -94.83)"/><path class="cls-41" d="M256.54,304.1h-7.61l-63-50.36.18-2.89a4.15,4.15,0,0,1,.9-2.31l69.53,55.56Zm-61-57.2,68.73,54.93a4,4,0,0,0,.48-1.68l.49-7.67-57-45.58Z" transform="translate(-0.43 -94.83)"/><path class="cls-10" d="M180.71,310.15H163.42a3.25,3.25,0,0,1-3.2-3h0a2.82,2.82,0,0,1,2.84-3h17.29a3.26,3.26,0,0,1,3.2,3h0A2.82,2.82,0,0,1,180.71,310.15Z" transform="translate(-0.43 -94.83)"/><path class="cls-42" d="M259.81,305.61H180.63a1.63,1.63,0,0,1-1.6-1.51h0a1.41,1.41,0,0,1,1.42-1.51h79.18a1.63,1.63,0,0,1,1.6,1.51h0A1.41,1.41,0,0,1,259.81,305.61Z" transform="translate(-0.43 -94.83)"/><path class="cls-17" d="M169.7,243a15.73,15.73,0,0,1,.12-7.29l-12.48-1,17.37-7.61a39.75,39.75,0,0,0,5.42-9c1.74-4.44-3-15.73-4.74-18.54s-5.45-2.38-7.87-.86c0,0-3.64-5.48-8-5.85s-18.15.9-22.16,11,2.44,20.26-4,30.68a2.61,2.61,0,0,0,.26,2.43c.84,1.11,11,13,34.23,8.19A2.35,2.35,0,0,0,169.7,243Z" transform="translate(-0.43 -94.83)"/><path class="cls-18" d="M153.35,246.13c1.28-14,2.18-26.09,2.18-26.09l-1.19-3.93s-10.68,8.64-18.27-.45c.36,6.24,1.25,12.51-2.7,18.9a2.61,2.61,0,0,0,.26,2.43l0,0v0l0,0,0,0,0,0,.05.06h0l.06.07,0,0,.06.06,0,.05,0,0,.08.09h0l.1.11,0,0,.08.09.06.07.06,0,0,0,.08.09.13.13.09.09.07.07c2.22,2.14,7.4,6.12,16.11,7.5h0c.76.12,1.54.22,2.35.29Z" transform="translate(-0.43 -94.83)"/><path class="cls-18" d="M169.7,243c-.79-4-.24-5.53.87-10.81l-19.86-3.12L142,230.77a58.18,58.18,0,0,1-3,10.74c5.28,3.27,14.61,6.61,28.85,3.67A2.35,2.35,0,0,0,169.7,243Z" transform="translate(-0.43 -94.83)"/><path class="cls-30" d="M143.36,243.88c5.49,1.72,13,3.78,19.48,7,.45.22-.47,1.94-.05,2.17a15.21,15.21,0,0,1,2.84,2.31c3,3,9.18,26.4,8.63,28.74-.88,3.75-8.66,14.06-8.66,14.06-1.54,3-3.46,7.32-5.34,12H121.64c2.69-8.75,3.69-14.67,3.76-20h0c2.06-18.15-7.7-22.1-7.7-22.1l10.11-23.79c3.93-1.39,11.78-.87,11.78-.87A8.11,8.11,0,0,1,143.36,243.88Z" transform="translate(-0.43 -94.83)"/><path class="cls-38" d="M160.26,310.15h-5.45c1-2.72,5.74-15.58,6.75-18.32-4.59-.8-10.91-1.9-12-2.16s-5.38,2.17-5.38,2.17l.47-2.77L140,293.68,147.87,279s12.79,2.89,15.51,3.39,1.06.12,1.57.08c1.51-4.25-1-5.44-.67-7.5s.38-22,.38-22c1.65.86,2.4,2.72,3.33,5.66.62,1.93,3.88,14.63,5.24,22.15.32,1.78.57,3.12.73,4.19C170.93,292.71,164.13,300.49,160.26,310.15Z" transform="translate(-0.43 -94.83)"/><path class="cls-11" d="M152.9,222,151,227.76s-2.92,13.71-3.6,15.49c-.23.61-1,.8-2.2.77,1.71,2.46,5,6.19,9.84,7.11a9.37,9.37,0,0,0,6.67-.85c-1-.55-2-1.19-2-1.72,0-4.68.84-12.91,3.38-14.43C166,232.38,152.9,222,152.9,222Z" transform="translate(-0.43 -94.83)"/><path class="cls-10" d="M146.13,244a12.53,12.53,0,0,1-2.77-.11,20.81,20.81,0,0,0,6.15,5.55c7.57,4.8,11.22,2.19,12.37,1A9,9,0,0,1,160,249.2h0C153,252.65,146.13,244,146.13,244Z" transform="translate(-0.43 -94.83)"/><path class="cls-23" d="M162.53,250.7s3,30.4,2.66,33-5.17,15.22-9.38,26.48h7.24c1.43-2.76,2.52-4.91,2.72-5.43.13-.33.63-1.31,1.31-2.58,1.24-2.29,3.09-5.56,4.48-7.84,4.44-7.29,4.43-5.59,2.89-14.12-1.35-7.51-5.5-21.41-6.11-23.35C167.4,253.9,163.32,250.48,162.53,250.7Z" transform="translate(-0.43 -94.83)"/><path class="cls-17" d="M162.11,293c-1,2.79-2.16,5.95-3.36,9.21a24.81,24.81,0,0,1,4.59.65c2.2.87,2.43,1.85,2.43,1.85.13-.33.63-1.31,1.31-2.58,1.24-2.29,3.09-5.56,4.48-7.84s2.27-3.57,2.88-4.66a12.73,12.73,0,0,1-2.88,2.08C170.76,292,164.59,292.72,162.11,293Z" transform="translate(-0.43 -94.83)"/><path class="cls-23" d="M142.22,243.23s5.54,26.86,6.3,34.66-1.68,13.39-4.43,19.26c-.92,2-3.89,7-7.55,13H119.48L121.3,268l-4.89-1.13c.29-2.12.53-3.88.69-5.1l9.64-17S130.37,241.74,142.22,243.23Z" transform="translate(-0.43 -94.83)"/><path class="cls-17" d="M131.84,256.16c-2.72,10.93-.83,15.47-.83,15.47l1.46-6.81s1.38,10.05,2.91,11.33c.77.63,9.84,2.37,13.24,3A28.74,28.74,0,0,1,147,290.41c-2.44.25-17.12-1.82-17.82,2.92-.35,2.37-.28-5.24-.28-5.24L128,310.15h-8.51L121.3,268l-4.89-1.13v-.2l0-.1v-.09h0v-.1l0-.1v-.19l0-.09v-.19h0v-.09l0-.1v-.09h0v-.18h0l0-.09h0v-.09h0V265h0V265h0l0-.08h0v-.09h0v-.09h0v-.08h0v-.09h0v-.08h0l0-.09h0v-.08h0v-.08h0v-.08h0V264h0v-.08h0v-.08h0v-.08h0v-.07h0v-.08h0v-.08h0v-.08h0v-.07h0v-.08h0v-.07h0v-.08h0v-.07h0V263h0V263h0v-.07h0v-.07h0v-.07h0v-.07h0v-.06h0v-.07h0v-.07h0v-.07h0v-.06h0v-.07h0v-.06h0v-.06h0v-.07h0V262h0V262h0v-.06h0v-.06h0v-.06h0v0l5.22-9.23Z" transform="translate(-0.43 -94.83)"/><path class="cls-25" d="M118.35,256.6c-3.13,8.54-4,37.83-1.4,53.55h13.71c-5.61-31.21,6.17-53.53,3.58-61.44C130.1,236.05,120.4,251,118.35,256.6Z" transform="translate(-0.43 -94.83)"/><path class="cls-18" d="M173.18,227.74l1.53-.67a43.59,43.59,0,0,0,4.45-6.82c-.37.7-2.77,4.91-6.3,2.33-3.83-2.79-4,1.64-4,1.64s2.32,2.63,3.67,3.25l.64.27Zm6-7.58Z" transform="translate(-0.43 -94.83)"/><path class="cls-11" d="M171.56,225.19a4.37,4.37,0,1,0,3.89,4.8A4.38,4.38,0,0,0,171.56,225.19Z" transform="translate(-0.43 -94.83)"/><path class="cls-11" d="M141.12,222.09c-.11,0-.22,0-.33,0h0a4.36,4.36,0,1,0,3.56,1.18c0,1.3-.34,2.87-2,2.89l.26-2.51A1.5,1.5,0,0,0,141.12,222.09Z" transform="translate(-0.43 -94.83)"/><path class="cls-15" d="M159.94,201.77h0a15,15,0,0,0-16.43,13.35l-1.41,13.53a15,15,0,0,0,13.35,16.43h0a15,15,0,0,0,16.43-13.35l1.41-13.53A15,15,0,0,0,159.94,201.77Z" transform="translate(-0.43 -94.83)"/><path class="cls-16" d="M143.26,217.49l-1.16,11.16a15,15,0,0,0,9.55,15.52c-8.72-3.61-4.25-18.75-4.25-18.75,1.76-.3,4.55-3.59,6.16-5.5s2.87-3.85,5.67-3.79a56.91,56.91,0,0,1,8.69,1.52,16.41,16.41,0,0,0,4.79,6.08l.58-5.53a14.76,14.76,0,0,0-.29-4.8c-.36-.22-.73-.43-1.12-.65C159.89,206,149.71,211.46,143.26,217.49Z" transform="translate(-0.43 -94.83)"/><path class="cls-18" d="M171.06,214l-2.42,1a7.18,7.18,0,0,0-4.89-.79s-5.31-2-8.13-.86-1.16-2.83-.64-3a34.37,34.37,0,0,1,8.18-.06c2.33.45,5.83,1,5.83,1Z" transform="translate(-0.43 -94.83)"/><path class="cls-18" d="M142.74,221.37l1.44.25s1,4.53-1.82,4.57l.26-2.51a1.52,1.52,0,0,0,0-.48Z" transform="translate(-0.43 -94.83)"/><path class="cls-17" d="M163.75,214.21c-2.18-3-5.76-3.56-8.54.59-2.54,3.79-6.31,10.35-12.66,9.81l0-.12h0l.36-4.23-1.18.29a27.09,27.09,0,0,1-.22-7.58c.73-5.32,8.13-13.08,16.47-13.38s14.38,4.65,15.57,7.48a62.48,62.48,0,0,1,2.38,9.23l-1.47,2.1-1.58,4.17c-3.84-3.73-3.44-7.26-5.11-9C166.85,212.58,165.5,212.58,163.75,214.21Z" transform="translate(-0.43 -94.83)"/><path class="cls-18" d="M154.34,216.11c-2.52,3.81-6.13,9-11.79,8.5l0-.12h0l.36-4.23-1.18.29c-.06-.37-.11-.75-.16-1.15C147.94,221.27,154.32,216.13,154.34,216.11Z" transform="translate(-0.43 -94.83)"/><path class="cls-43" d="M160.92,249.85s3.9,32,3.82,33-1.11,6-1.11,6a21,21,0,0,0,2.34-5.77c.46-2.61,1.69-20.29,1.69-20.29l-2.07-1.11,1.92-.12-3.17-9.92a2.87,2.87,0,0,0-.87-1c-.5-.29-2.32-1.2-2.35-1.22a1.24,1.24,0,0,0-.71.09Z" transform="translate(-0.43 -94.83)"/><path class="cls-43" d="M142.22,243.23s5.54,26.86,6.3,34.66a27.58,27.58,0,0,1-.48,8.65c1-8-10.21-26.77-10.21-26.77l2.92-1.38-3.92-1.77s1.8-10.11,1.92-11.8-.76-1.95-.81-2C139.23,242.91,140.65,243,142.22,243.23Z" transform="translate(-0.43 -94.83)"/><path class="cls-26" d="M31.31,322h4.86a3.52,3.52,0,0,0,3.51-3.52h0A3.53,3.53,0,0,0,36.17,315H23.35a2.79,2.79,0,0,1-2.79-2.79h0a2.8,2.8,0,0,1,2.79-2.79h338.7a2.8,2.8,0,0,1,2.79,2.79h0a2.8,2.8,0,0,1-2.79,2.79H344.46a3.53,3.53,0,0,0-3.51,3.52h0a3.52,3.52,0,0,0,3.51,3.52h4.12a5.6,5.6,0,0,1,5.59,5.58h0a5.6,5.6,0,0,1-5.59,5.58H31.31a5.6,5.6,0,0,1-5.58-5.58h0A5.6,5.6,0,0,1,31.31,322ZM15.8,309.39A2.79,2.79,0,1,1,13,312.18,2.79,2.79,0,0,1,15.8,309.39Z" transform="translate(-0.43 -94.83)"/><path class="cls-44" d="M204.68,163.07H179.23a4.49,4.49,0,0,0-4.48,4.49v22.17a.9.9,0,0,0,.16.53,1,1,0,0,0,.43.36h0a1.09,1.09,0,0,0,.56.06,1,1,0,0,0,.5-.27l6.6-6.6h21.68a4.51,4.51,0,0,0,4.49-4.49V167.56a4.51,4.51,0,0,0-4.49-4.49Zm-25.45,1.05h25.45a3.45,3.45,0,0,1,3.44,3.44v11.76a3.45,3.45,0,0,1-3.44,3.44H182.56l-6.77,6.77v-22a3.47,3.47,0,0,1,3.44-3.44Z" transform="translate(-0.43 -94.83)"/><path class="cls-44" d="M204.89,167.46a.29.29,0,0,0,0-.58H179a.29.29,0,0,0,0,.58Z" transform="translate(-0.43 -94.83)"/><path class="cls-44" d="M204.89,170.25a.29.29,0,1,0,0-.57h-2.74a.29.29,0,1,0,0,.57Zm-6.39,0a.29.29,0,1,0,0-.57H179a.29.29,0,0,0,0,.57Z" transform="translate(-0.43 -94.83)"/><path class="cls-44" d="M204.89,173.05a.29.29,0,0,0,0-.58H179a.29.29,0,0,0,0,.58Z" transform="translate(-0.43 -94.83)"/><path class="cls-44" d="M197.7,176.84a.29.29,0,0,0,0-.58H179a.29.29,0,0,0,0,.58Z" transform="translate(-0.43 -94.83)"/><path class="cls-44" d="M189.36,179.87a.29.29,0,0,0,.29-.29.28.28,0,0,0-.29-.28H179a.27.27,0,0,0-.28.28.28.28,0,0,0,.28.29Z" transform="translate(-0.43 -94.83)"/><path class="cls-44" d="M195.28,179.87a.29.29,0,0,0,.29-.29.28.28,0,0,0-.29-.28h-3.69a.28.28,0,0,0-.29.28.29.29,0,0,0,.29.29Z" transform="translate(-0.43 -94.83)"/></g></g></g></svg>