<svg xmlns="http://www.w3.org/2000/svg" xmlns:xlink="http://www.w3.org/1999/xlink" viewBox="0 0 34.64 40"><defs><style>.cls-1{fill:none;}.cls-2{clip-path:url(#clip-path);}.cls-3{fill:#3ecf8e;}</style><clipPath id="clip-path" transform="translate(-2.68 0)"><rect class="cls-1" width="40" height="40"/></clipPath></defs><g id="Layer_2" data-name="Layer 2"><g id="Layer_1-2" data-name="Layer 1"><g class="cls-2"><path class="cls-3" d="M12.15,18.61H27.82A9.58,9.58,0,0,0,33,17.1a9.37,9.37,0,0,0,3.57-4.23,9,9,0,0,0,.56-5.43A9.51,9.51,0,0,0,27.89,0H12.15A8.91,8.91,0,0,0,6.29,2.05a8.87,8.87,0,0,0-3.4,9.11A9.46,9.46,0,0,0,12.15,18.61Zm7.29-16h.14v0H20l2.62,0c1.95,0,4,0,5.93,0A6.26,6.26,0,0,1,34.4,7.07a7.07,7.07,0,0,1-.56,5.74,6.58,6.58,0,0,1-4.43,3.1,7.8,7.8,0,0,1-1.53.13H12.22a6.51,6.51,0,0,1-5.36-2.3,6.58,6.58,0,0,1-1.11-7,6.05,6.05,0,0,1,5.51-4.06c1.09-.07,2.2-.09,3.3-.09h4.88Z" transform="translate(-2.68 0)"/><path class="cls-3" d="M37.11,28.84a9.46,9.46,0,0,0-9.27-7.45H12.29a9,9,0,0,0-6,2.05,9.91,9.91,0,0,0-3,4,8.83,8.83,0,0,0-.34,5.07A9.43,9.43,0,0,0,12.16,40H27.81a9,9,0,0,0,5.91-2A8.87,8.87,0,0,0,37.11,28.84ZM20,37.4l-2.61,0c-1.94,0-3.94,0-5.89-.05A6.09,6.09,0,0,1,5.64,33a7,7,0,0,1,.47-5.74,6.57,6.57,0,0,1,4.51-3.18A7.46,7.46,0,0,1,12.15,24H27.76a6.71,6.71,0,0,1,6.49,9.34,6,6,0,0,1-5.53,4.07c-1.6.11-3.25.1-4.84.08H20.4v0Z" transform="translate(-2.68 0)"/><path class="cls-3" d="M11.88,5.72A3.75,3.75,0,0,0,8.36,9.3a3.59,3.59,0,0,0,1.1,2.51,3.55,3.55,0,0,0,2.48,1.08h0a3.75,3.75,0,0,0,3.58-3.62,3.75,3.75,0,0,0-3.65-3.55ZM13,9.3a.9.9,0,0,1-1,1,1.08,1.08,0,0,1-.78-.25,1.05,1.05,0,0,1-.25-.76c0-.71.32-1,1-1h0a1,1,0,0,1,.76.25A1.05,1.05,0,0,1,13,9.3Z" transform="translate(-2.68 0)"/><path class="cls-3" d="M27.84,34.15h0a3.77,3.77,0,0,0,3.58-3.6A3.75,3.75,0,0,0,27.88,27a3.77,3.77,0,0,0-3.61,3.6A3.79,3.79,0,0,0,27.84,34.15Zm-.75-4.37a1.12,1.12,0,0,1,.77-.26h0a1.07,1.07,0,0,1,.77.26,1.14,1.14,0,0,1,.25.78.92.92,0,0,1-1,1h0a.93.93,0,0,1-1-1A1.08,1.08,0,0,1,27.09,29.78Z" transform="translate(-2.68 0)"/></g></g></g></svg>