<svg xmlns="http://www.w3.org/2000/svg" xmlns:xlink="http://www.w3.org/1999/xlink" viewBox="0 0 38.07 40"><defs><style>.cls-1{fill:none;}.cls-2{clip-path:url(#clip-path);}.cls-3{fill:#3ecf8e;}</style><clipPath id="clip-path" transform="translate(-0.97 0)"><rect class="cls-1" width="40" height="40"/></clipPath></defs><g id="Layer_2" data-name="Layer 2"><g id="Layer_1-2" data-name="Layer 1"><g class="cls-2"><path class="cls-3" d="M26.21,6.78A12.58,12.58,0,0,1,27.82,7a3.61,3.61,0,0,1,2.71,3.48c0,3.16,0,6.31,0,9.47a6,6,0,0,0,.07.94.39.39,0,0,0,.22.25c.51.22,1,.42,1.54.61a.53.53,0,0,0,.35,0c.22-.13.43-.29.65-.43a1.26,1.26,0,0,1,1.66.21c.4.41.81.81,1.21,1.23a1.31,1.31,0,0,1,.18,1.8A1,1,0,0,0,36.35,26a2.57,2.57,0,0,1,.35.91.42.42,0,0,0,.41.37,4.86,4.86,0,0,1,.55.1A1.68,1.68,0,0,1,39,29c0,.42,0,.83,0,1.24a1.33,1.33,0,0,1-1.18,1.4c-.81.16-.81.16-1.11.93a8.12,8.12,0,0,1-.43,1,.38.38,0,0,0,0,.44,4.87,4.87,0,0,1,.52,1,1.11,1.11,0,0,1-.29,1.17c-.47.5-1,1-1.45,1.45a1.23,1.23,0,0,1-1.74.07.84.84,0,0,0-1.22-.1,3.56,3.56,0,0,1-1,.4.4.4,0,0,0-.34.36,4.14,4.14,0,0,1-.19.79,1.33,1.33,0,0,1-1.34.94H27.62a1.26,1.26,0,0,1-1.42-1.17,1.06,1.06,0,0,0-.89-1,3.6,3.6,0,0,1-.92-.41.47.47,0,0,0-.55,0,4,4,0,0,1-.88.48,1.18,1.18,0,0,1-1.29-.28c-.5-.48-1-1-1.47-1.47a1.19,1.19,0,0,1-.09-1.61,1,1,0,0,0,.16-1.44,1.81,1.81,0,0,1-.29-.75c-.06-.31-.22-.36-.5-.36H4.25A3.13,3.13,0,0,1,1,28.72c0-5.13,0-10.26,0-15.39,0-.91,0-1.82,0-2.73A3.68,3.68,0,0,1,4.74,6.84c.48,0,.48,0,.48-.47,0-1.36,0-2.73,0-4.09A2.14,2.14,0,0,1,7.5,0C11.27,0,15,0,18.79,0h.56a1.14,1.14,0,0,1,1,.41c.68.77,1.44,1.47,2.17,2.2L25.64,5.7C26,6,26.29,6.3,26.21,6.78ZM15.82,30.33H26.75a2,2,0,0,0,2.12-2.11V17.73A1.52,1.52,0,0,0,27.15,16H14.76a3.19,3.19,0,0,1-3.12-2.25,1.45,1.45,0,0,0-1.51-1.08H4.34a1.52,1.52,0,0,0-1.71,1.7V28.13a2.08,2.08,0,0,0,2.2,2.21ZM19,1.69H7.44c-.1,0-.22,0-.28,0A.53.53,0,0,0,6.93,2c0,.29,0,.58,0,.88v7.61c0,.43,0,.43.42.43h2.86a3.22,3.22,0,0,1,3,2.23,1.4,1.4,0,0,0,1.49,1.1h9.56c.28,0,.37-.08.37-.37q0-3,0-6.08c0-.32-.11-.4-.41-.39-1.05,0-2.11,0-3.16,0a2.2,2.2,0,0,1-2-1.46,2.87,2.87,0,0,1-.19-1C19,3.87,19,2.81,19,1.69Zm2.48,30.23L22,33a1.47,1.47,0,0,1,0,1.63c-.42.61-.41.62.14,1.16s.32.42.83.09a1.7,1.7,0,0,1,1.87,0,8.55,8.55,0,0,0,1.47.6,1.62,1.62,0,0,1,1.25,1.33c.14.7,0,.55.7.56s.82,0,1-.76a1.46,1.46,0,0,1,1-1.07c.61-.22,1.21-.48,1.8-.74a1.43,1.43,0,0,1,1.54.09,2.83,2.83,0,0,0,.47.29.32.32,0,0,0,.27,0c.29-.25.55-.52.83-.78-.16-.21-.28-.38-.41-.54a1.52,1.52,0,0,1-.13-1.76,15.26,15.26,0,0,0,.66-1.62,1.51,1.51,0,0,1,1.19-1.11l.43-.11v-1c0-.66.12-.56-.58-.68A1.56,1.56,0,0,1,35,27.33a12.44,12.44,0,0,0-.75-1.72,1.19,1.19,0,0,1,.08-1.39l.42-.58-.89-.94a3,3,0,0,0-.34.25,1.58,1.58,0,0,1-2.06.17,7.64,7.64,0,0,0-1.07-.46c0,.38,0,.68,0,1a.37.37,0,0,0,.26.39A5.65,5.65,0,0,1,34,28.37a5.86,5.86,0,0,1-5.63,7,5.62,5.62,0,0,1-5.47-3.25c-.05-.09-.17-.21-.27-.21C22.26,31.9,21.9,31.92,21.44,31.92Zm9.18-5.85c0,.92,0,1.81,0,2.69A3.13,3.13,0,0,1,27.4,32H25.28l-.35,0a4.09,4.09,0,0,0,4.29,1.79A4.24,4.24,0,0,0,32.63,30C32.73,28.35,31.78,26.47,30.62,26.07Zm-1.7-11.33c0-1.56.08-3.05,0-4.52a2,2,0,0,0-2.5-1.65v5.76A4.57,4.57,0,0,1,28.92,14.74ZM2.66,11.39a3.84,3.84,0,0,1,2-.39A1.09,1.09,0,0,0,5,11c.07,0,.17-.11.17-.17,0-.75,0-1.51,0-2.25C3.84,8.31,2.33,9.05,2.66,11.39ZM20.63,3c0,.72,0,1.43,0,2.14a.62.62,0,0,0,.58.61c.73,0,1.48,0,2.18,0Z" transform="translate(-0.97 0)"/><path class="cls-3" d="M13.33,2.68h4.1a.81.81,0,0,1,.83,1.07.76.76,0,0,1-.83.59H9.33a.84.84,0,0,1-.92-.61.8.8,0,0,1,.82-1Z" transform="translate(-0.97 0)"/><path class="cls-3" d="M11.35,6.18c.7,0,1.41,0,2.11,0a.81.81,0,0,1,.78,1.13.75.75,0,0,1-.74.53H9.2A.8.8,0,0,1,8.39,7a.77.77,0,0,1,.84-.79Z" transform="translate(-0.97 0)"/></g></g></g></svg>