<svg xmlns="http://www.w3.org/2000/svg" xmlns:xlink="http://www.w3.org/1999/xlink" viewBox="0 0 33.17 39.73"><defs><style>.cls-1{fill:none;}.cls-2{clip-path:url(#clip-path);}.cls-3{fill:#3ecf8e;}</style><clipPath id="clip-path" transform="translate(-3.42 -0.14)"><rect class="cls-1" width="40" height="40"/></clipPath></defs><g id="Layer_2" data-name="Layer 2"><g id="Layer_1-2" data-name="Layer 1"><g class="cls-2"><path class="cls-3" d="M32.56,15a12,12,0,0,0-4.2-7.82A12.2,12.2,0,0,0,16,4.7a12.14,12.14,0,0,0-7.8,7.42,12.34,12.34,0,0,0,.4,10.1,12.58,12.58,0,0,0,3.52,4.42,3,3,0,0,1,1.09,2.17c0,.2,0,.24-.19.31A2.82,2.82,0,0,0,11.25,32a2.88,2.88,0,0,0,2.25,2.54l.35.06c0,.15,0,.28,0,.42a2.15,2.15,0,0,0,1.23,2,.39.39,0,0,1,.21.26,3.52,3.52,0,0,0,3.44,2.61h2.52a3.51,3.51,0,0,0,3.44-2.61.3.3,0,0,1,.21-.25,2.11,2.11,0,0,0,1.21-1.71,3.24,3.24,0,0,0,0-.62v-.05a2.87,2.87,0,0,0,.72-5.57.18.18,0,0,1-.05-.07,3,3,0,0,1,1.06-2.33l.31-.29a15.5,15.5,0,0,0,1.61-1.63A12.3,12.3,0,0,0,32.56,15ZM14.29,30.71H25.88a1,1,0,0,1,.25,2.06,1.17,1.17,0,0,1-.29,0H14.15a1,1,0,0,1-1.07-.92,1,1,0,0,1,.79-1.14A1.76,1.76,0,0,1,14.29,30.71ZM26,26a4.47,4.47,0,0,0-1,2.85H15v0c0-.19,0-.39-.06-.58a4.67,4.67,0,0,0-1.66-3,11.32,11.32,0,0,1-3-3.71,10.4,10.4,0,0,1-.88-7.19,10.57,10.57,0,0,1,8.06-8.2,10.84,10.84,0,0,1,10,18.38L27,25A9.53,9.53,0,0,0,26,26ZM22.71,37.27a1.59,1.59,0,0,1-1.27.75c-1,0-2,0-2.89,0a1.58,1.58,0,0,1-1.26-.75Zm1.6-2.19a.39.39,0,0,1-.43.33H16.34c-.57,0-.65-.08-.65-.65v-.12h8.62A3.08,3.08,0,0,1,24.31,35.08Z" transform="translate(-3.42 -0.14)"/><polygon class="cls-3" points="31.42 9.07 30.5 7.49 27.79 9.06 28.71 10.64 31.42 9.07"/><path class="cls-3" d="M31.9,23.05l-.17.28c-.23.39-.35.61-.29.85s.28.37.68.6l1.8,1,.91-1.58-2.7-1.56Z" transform="translate(-3.42 -0.14)"/><polygon class="cls-3" points="10.64 4.46 9.07 1.74 7.49 2.66 9.06 5.38 10.64 4.46"/><rect class="cls-3" x="30.06" y="15.69" width="3.11" height="1.78"/><rect class="cls-3" y="15.69" width="3.11" height="1.78"/><rect class="cls-3" x="15.68" width="1.79" height="3.09"/><path class="cls-3" d="M8.79,9.19l-.66-.38-1.68-1A.48.48,0,0,0,5.87,8c-.15.23-.28.47-.43.73-.05.08-.09.17-.14.26l-.14.22,2.72,1.56Z" transform="translate(-3.42 -0.14)"/><rect class="cls-3" x="5.41" y="23.32" width="3.13" height="1.83" transform="translate(-14.63 6.63) rotate(-30.09)"/><polygon class="cls-3" points="25.68 2.66 24.09 1.75 22.53 4.46 24.11 5.38 25.68 2.66"/><path class="cls-3" d="M27.86,19l.21-.07a.93.93,0,0,0,.69-1V15.48a1,1,0,0,0-.56-.91l-.19-.1a2.71,2.71,0,0,1-.45-.23.31.31,0,0,1-.1-.14c0-.26,0-.53,0-.8v-.43a.91.91,0,0,0-.79-1l-.45-.12c-.4-.1-.8-.21-1.21-.29-.19,0-.19-.05-.17-.17a1.44,1.44,0,0,0-.59-1.45l-.08-.09a.82.82,0,0,0-.24-.2l-.07,0a1.69,1.69,0,0,0-.67-.25c-.31,0-.63,0-.93,0h-.71a1.28,1.28,0,0,0-1,.43c-.15.16-.3.31-.47.47l0,.05,0-.06a5.5,5.5,0,0,0-.54-.54,1.54,1.54,0,0,0-.81-.33c-.57,0-1.14,0-1.7,0h-.08a1,1,0,0,0-.62.19l-.09.08a1.89,1.89,0,0,0-.93,1.89h0l-1,.26-.36.09c-1.08.28-1.25.4-1.16,1.55,0,.73-.14,1.05-.71,1.21a.89.89,0,0,0-.62.95V18a.91.91,0,0,0,.71,1l.22.08,1,.32.06,0a.35.35,0,0,1,0,.06,12,12,0,0,0,0,1.2,1.07,1.07,0,0,0,.2.6,2,2,0,0,0,2,1l.08,0a.71.71,0,0,1,.15.07c.29.41.57.84.85,1.25l.07.12a1,1,0,0,0,.91.48h.42c.24,0,.49,0,.74,0a1.34,1.34,0,0,0,.72-.3,6.29,6.29,0,0,0,.57-.58l.07-.09.05.06.42.47a1.23,1.23,0,0,0,1,.46h.1a9,9,0,0,1,.92,0,1,1,0,0,0,1-.53l.36-.54c.17-.24.33-.49.49-.74s.16-.17.26-.15a1.75,1.75,0,0,0,1.78-.74l0,0a.73.73,0,0,0,.16-.18.61.61,0,0,1,.05-.12,1.73,1.73,0,0,0,.2-.55,7.35,7.35,0,0,0,0-1.15.28.28,0,0,1,0-.1h0a.15.15,0,0,1,.08,0C27.21,19.22,27.54,19.1,27.86,19ZM26.1,17.58c-.12,0-.28-.22-.56-.54a1.11,1.11,0,0,1-.07-.2,1.8,1.8,0,0,0,0-.19l-.07-.17H23.72l0,.24a1.46,1.46,0,0,0,.43,1.5l.09.08s0,0,.05.05a2.88,2.88,0,0,1,.66.78,2.87,2.87,0,0,1,0,1c0,.15-.07.21-.22.22h-.41c-.86,0-.94,0-1.41.75l-.18.27-.26.4c-.07.09-.13.19-.19.28s-.22.26-.34.27a.7.7,0,0,1-.48-.19,1.59,1.59,0,0,1-.58-1.44c0-2.43,0-4.9,0-7.29v-1.3a.7.7,0,0,1,.2-.47,1.33,1.33,0,0,1,1.09-.59l.3,0a1.25,1.25,0,0,0,.19,0,.8.8,0,0,1,.26.05.42.42,0,0,1,.08.24.65.65,0,0,1-.09.42l-.06.06c-.23.24-.48.5-.74.73a1.29,1.29,0,0,0-.45,1.08,5.37,5.37,0,0,1,0,.7V15h1.83v-.47a2.6,2.6,0,0,0,0-.48c0-.15.05-.25.2-.45l0,0a.79.79,0,0,1,1.09-.3,4.18,4.18,0,0,0,.69.2l.09,0v.32l-.64,0v1.8h.82a1.4,1.4,0,0,1,1,.26.27.27,0,0,1,.11.14c0,.38,0,.79,0,1.22l-.06.07,0,0A1.77,1.77,0,0,1,26.1,17.58Zm-7,2.1c0,.55,0,1.1,0,1.65a.44.44,0,0,1-.16.4,3,3,0,0,0-.44.44c-.12.19-.27.2-.6.17l-.05-.07q-.48-.68-.9-1.35a1.07,1.07,0,0,0-1-.54,5,5,0,0,1-.55,0h-.11c-.18,0-.21-.08-.22-.2v-.06c0-.32,0-.65,0-1a.29.29,0,0,1,.08-.17l0,0a4.4,4.4,0,0,1,.61-.61,1.56,1.56,0,0,0,.55-1.64l0-.22H14.52v.27c0,.27-.14.41-.41.63a2.91,2.91,0,0,0-.27.24h0a2,2,0,0,1-.68-.24,1.88,1.88,0,0,1-.06-.72v-.11a1.22,1.22,0,0,0,0-.27,2.1,2.1,0,0,1,0-.27,1.22,1.22,0,0,1,.83-.33,5.42,5.42,0,0,0,.57,0H15v-1.8l-.63,0a1.71,1.71,0,0,1,0-.32h0l1.09-.29.31-.07a2.81,2.81,0,0,1,.68.79V15h1.82v-.26c0-.13,0-.26,0-.39,0-.33,0-.67,0-1a1,1,0,0,0-.32-.6c-.19-.21-.4-.41-.59-.61l-.29-.28a1.08,1.08,0,0,1-.08-.64.59.59,0,0,1,.08-.08,3.11,3.11,0,0,1,1.32.06l.05,0a1.65,1.65,0,0,1,.65,1.58C19.06,15.09,19.07,17.43,19.08,19.68Z" transform="translate(-3.42 -0.14)"/><path class="cls-3" d="M23.52,17.39v-.26H21.7v.65c0,.31,0,.59,0,.89s0,.36-.16.45a.46.46,0,0,0,0,.78q.15.13.3.3l.28.27a.67.67,0,0,0,.38.17h0a.34.34,0,0,0,.19-.09l.24-.25a1.65,1.65,0,0,0,.58-.84A6,6,0,0,0,23.54,18C23.53,17.79,23.52,17.59,23.52,17.39Z" transform="translate(-3.42 -0.14)"/><path class="cls-3" d="M18.42,19.08c-.09-.06-.13-.14-.12-.37s0-.61,0-.93v-.65H16.47v.8c0,.5,0,1,0,1.45a1.07,1.07,0,0,0,.25.58,2.87,2.87,0,0,0,.29.31l.18.18a.48.48,0,0,0,.37.19h0a.55.55,0,0,0,.39-.2,5.43,5.43,0,0,1,.48-.48.58.58,0,0,0,.25-.46A.56.56,0,0,0,18.42,19.08Z" transform="translate(-3.42 -0.14)"/></g></g></g></svg>