<svg xmlns="http://www.w3.org/2000/svg" xmlns:xlink="http://www.w3.org/1999/xlink" viewBox="0 0 39.94 31.32"><defs><style>.cls-1{fill:none;}.cls-2{clip-path:url(#clip-path);}.cls-3{fill:#3ecf8e;}</style><clipPath id="clip-path" transform="translate(-0.03 -4.34)"><rect class="cls-1" width="40" height="40"/></clipPath></defs><g id="Layer_2" data-name="Layer 2"><g id="Layer_1-2" data-name="Layer 1"><g class="cls-2"><path class="cls-3" d="M40,10.61c0-.71-.3-1-1-1H33.18V9.18c0-.46,0-.89,0-1.32a3.63,3.63,0,0,0-3.13-3.48A3.58,3.58,0,0,0,26.2,6.71,5.53,5.53,0,0,0,26,8.09c0,.4,0,.79,0,1.2,0,.1,0,.21,0,.31H13.36a.85.85,0,0,0-1,1v.76c0,.41,0,.83,0,1.25a1.94,1.94,0,0,1-1.94,1.95h0a2,2,0,0,1-1.94-1.95c0-.42,0-.85,0-1.26v-.71c0-.72-.31-1-1-1H1.06c-.73,0-1,.3-1,1V29.39c0,.71.3,1,1,1H6.82v.42c0,.46,0,.89,0,1.33A3.62,3.62,0,0,0,10,35.62a2.92,2.92,0,0,0,.51,0,3.61,3.61,0,0,0,3.34-2.37A5.46,5.46,0,0,0,14,31.91c0-.4,0-.79,0-1.2,0-.1,0-.2,0-.31h12.6a.85.85,0,0,0,1-1v-.76c0-.41,0-.83,0-1.25a1.93,1.93,0,0,1,1.94-1.94h0a2,2,0,0,1,1.94,1.94c0,.42,0,.85,0,1.26v.71c0,.72.31,1,1,1h6.42c.73,0,1-.29,1-1ZM26,28.52v.2H20.83V23c0-.76-.29-1.05-1-1.05H17.85a1.94,1.94,0,1,1,0-3.88h2a.85.85,0,0,0,1-1V11.27h5.8c.69,0,1-.31,1-1v-.9c0-.46,0-.93,0-1.39a1.93,1.93,0,0,1,1.94-2h0a2,2,0,0,1,1.93,2c0,.51,0,1,0,1.53v.72c0,.74.3,1,1.05,1h5.73V28.71H33.18V27.29a3.61,3.61,0,0,0-6.91-1.35A3.86,3.86,0,0,0,26,27.63Zm-13.58,2c0,.48,0,1,0,1.47a1.94,1.94,0,1,1-3.88,0c0-.47,0-.95,0-1.41v-.88c0-.67-.32-1-1-1H1.71V11.29H6.82v.26c0,.35,0,.71,0,1.06a3.62,3.62,0,0,0,5.34,3.15,3.57,3.57,0,0,0,1.88-3c0-.38,0-.74,0-1.13v-.31h5.1v5.1H17.81a3.61,3.61,0,0,0-.13,7.22c.38,0,.77,0,1.15,0h.32v5.13H13.39c-.71,0-1,.3-1,1Z" transform="translate(-0.03 -4.34)"/></g></g></g></svg>