<svg xmlns="http://www.w3.org/2000/svg" xmlns:xlink="http://www.w3.org/1999/xlink" viewBox="0 0 39.93 29.97"><defs><style>.cls-1{fill:none;}.cls-2{clip-path:url(#clip-path);}.cls-3{fill:#3ecf8e;}</style><clipPath id="clip-path" transform="translate(-0.02 -5.02)"><rect class="cls-1" width="39.98" height="40"/></clipPath></defs><g id="Layer_2" data-name="Layer 2"><g id="Layer_1-2" data-name="Layer 1"><g class="cls-2"><path class="cls-3" d="M20,5H36.07a3.72,3.72,0,0,1,3.84,3.22,3.49,3.49,0,0,1,0,.65V31.11A3.74,3.74,0,0,1,36.1,35H3.91A3.73,3.73,0,0,1,.06,31.76a4.63,4.63,0,0,1,0-.65V8.89A3.75,3.75,0,0,1,3.91,5ZM2.52,21.24l.28-.18c1.23-.91,2.45-1.83,3.69-2.73a.82.82,0,0,0,.41-.84,2.6,2.6,0,0,1,0-.68,4.36,4.36,0,1,1,8.51,1.85.31.31,0,0,0,.13.41c1.14.77,2.27,1.55,3.39,2.33a.32.32,0,0,0,.42,0,4.22,4.22,0,0,1,4-.49.32.32,0,0,0,.43-.1c.77-.95,1.54-1.88,2.33-2.81a.38.38,0,0,0,.05-.52,4.28,4.28,0,0,1-.53-2.85,4.37,4.37,0,1,1,2.87,4.8.34.34,0,0,0-.45.12c-.74.91-1.48,1.81-2.24,2.69a.6.6,0,0,0-.09.8,4.36,4.36,0,1,1-8.09.79.31.31,0,0,0-.14-.41L14.15,21.1a.32.32,0,0,0-.44,0,4.3,4.3,0,0,1-5.58-.56c-.15-.16-.24-.15-.41,0l-5,3.7a.49.49,0,0,0-.23.44q0,3.24,0,6.49a1.58,1.58,0,0,0,0,.43,1.27,1.27,0,0,0,1.33.91h32a2,2,0,0,0,.76-.11,1.26,1.26,0,0,0,.77-1.3V8.94A1.28,1.28,0,0,0,36,7.52H3.88A1.27,1.27,0,0,0,2.52,8.88V21.24Zm29.32-5.9A1.87,1.87,0,1,0,30,17.19,1.88,1.88,0,0,0,31.84,15.34ZM13.12,17.49a1.87,1.87,0,1,0-1.85,1.88A1.89,1.89,0,0,0,13.12,17.49Zm8.73,9.38A1.88,1.88,0,1,0,20,25,1.9,1.9,0,0,0,21.85,26.87Z" transform="translate(-0.02 -5.02)"/></g></g></g></svg>