<svg xmlns="http://www.w3.org/2000/svg" xmlns:xlink="http://www.w3.org/1999/xlink" viewBox="0 0 40.25 40"><defs><style>.cls-1{fill:none;}.cls-2{clip-path:url(#clip-path);}.cls-3{fill:#3ecf8e;}</style><clipPath id="clip-path" transform="translate(0 0)"><rect class="cls-1" width="40" height="40"/></clipPath></defs><g id="Layer_2" data-name="Layer 2"><g id="Layer_1-2" data-name="Layer 1"><g class="cls-2"><path class="cls-3" d="M25.74,35.1a.38.38,0,0,0,0-.1l0-.18a2.64,2.64,0,0,0-1-2l-4.11-4a3,3,0,0,0-3.22-.69l-.58.19-1.71.57c-.11,0-.14.05-.24-.08A53.39,53.39,0,0,1,9,20.07C9,20,9,20,9,19.89c.51-.6,1-1.23,1.51-1.83l.11-.14a2.88,2.88,0,0,0,.44-3.18c-.34-.81-.7-1.63-1-2.43-.4-1-.82-1.92-1.23-2.89a2.34,2.34,0,0,0-2-1.65,3.34,3.34,0,0,0-1.64.31A35.21,35.21,0,0,0,2,9.78a3.79,3.79,0,0,0-2,3.53,19.76,19.76,0,0,0,1.68,7.34,48.47,48.47,0,0,0,8.66,13.28,20.47,20.47,0,0,0,8,5.83A3.35,3.35,0,0,0,19.6,40a3,3,0,0,0,1.34-.32,14,14,0,0,0,4.18-3.38,2.79,2.79,0,0,0,.36-.51l.14-.22.21-.3-.11-.06ZM9,16.55c-.6.74-1.21,1.48-1.88,2.28s-.66,1-.19,1.89a55.67,55.67,0,0,0,6.84,10,1.17,1.17,0,0,0,1.55.44l.72-.24,2.13-.72a1,1,0,0,1,1.13.24c.86.87,1.75,1.74,2.61,2.58l1.46,1.42a.72.72,0,0,1,.26.41.69.69,0,0,1-.24.34c-.89.78-1.86,1.57-3,2.43a1.27,1.27,0,0,1-1.33.12,18.19,18.19,0,0,1-6.45-4.53,47.15,47.15,0,0,1-5.46-7,34.14,34.14,0,0,1-3.81-7.24,16.58,16.58,0,0,1-1.12-5.45v-.07c-.18-.73.18-1.33,1.1-1.84l1.46-.82.93-.53A2.39,2.39,0,0,1,6,10a1.59,1.59,0,0,1,.43-.12c.16,0,.22.13.37.47.23.55.47,1.11.71,1.66L9.13,15.7A.73.73,0,0,1,9,16.55Z" transform="translate(0 0)"/><path class="cls-3" d="M21.73,19.76a1.21,1.21,0,0,0,1.1.56h2a3.24,3.24,0,0,1,.77.05,2.7,2.7,0,0,1,.06.72v.06c0,.22,0,.4,0,.54,0,.33,0,.55.15.72s.39.17.76.17h.62a.66.66,0,0,0,.46-.17.68.68,0,0,0,.18-.52c0-.31,0-.64,0-1v-.32a2.53,2.53,0,0,1,0-.29h.3c.66,0,1,0,1.22-.25s.21-.57.18-1.24h0a.63.63,0,0,0-.16-.5.68.68,0,0,0-.5-.18H27.77a.26.26,0,0,1,0-.09c0-.61,0-1.23,0-1.82v-.4h0V13A1.18,1.18,0,0,0,27,11.77a1.07,1.07,0,0,0-1.29.52l-.64,1-3.27,5.27A1.18,1.18,0,0,0,21.73,19.76Zm2.92-1.61,1-1.55c0,.51,0,1,0,1.54Z" transform="translate(0 0)"/><path class="cls-3" d="M17.19,12a3.37,3.37,0,0,0-1.92,3.5l0,.28h.58a3.45,3.45,0,0,1,.56,0,.75.75,0,0,0,.94-.88A.89.89,0,0,1,18,14a1.19,1.19,0,0,1,1.31.19,1.06,1.06,0,0,1,.25,1.18,2.62,2.62,0,0,1-.48.77,3.56,3.56,0,0,1-.56.53l-.16.14a10.79,10.79,0,0,0-2.48,2.88,4.62,4.62,0,0,0-.62,2.51l0,.32h5.11c.56,0,.85,0,1.06-.22s.23-.55.23-1.13v0a.77.77,0,0,0-.2-.58.81.81,0,0,0-.61-.19H18l.18-.23a13.18,13.18,0,0,1,.91-1.05,9.09,9.09,0,0,1,.72-.66,11.76,11.76,0,0,0,.95-.92,3.28,3.28,0,0,0,.12-4.65A3.11,3.11,0,0,0,17.19,12Z" transform="translate(0 0)"/><path class="cls-3" d="M35.3,29.1a1.77,1.77,0,0,0-.3-.45c-.83-.85-1.75-1.77-2.88-2.89a1.1,1.1,0,0,0-1.88.73,1.07,1.07,0,0,0,.31.77c.87.88,1.8,1.81,3,3a1,1,0,0,0,.72.31,1,1,0,0,0,.54-.17,1.57,1.57,0,0,0,.44-.49l.15-.2.14-.18-.12-.2Z" transform="translate(0 0)"/><path class="cls-3" d="M30.62,9.72a1,1,0,0,0,.7.28,1.13,1.13,0,0,0,.8-.34c1.11-1.1,2-2,2.88-2.89a1.54,1.54,0,0,0,.3-.45l.14-.23.12-.2-.15-.19a1.73,1.73,0,0,1-.15-.2A1.81,1.81,0,0,0,34.82,5a1,1,0,0,0-1.27.15c-.91.9-2,2-3,3a1.07,1.07,0,0,0-.32.77A1.09,1.09,0,0,0,30.62,9.72Z" transform="translate(0 0)"/><path class="cls-3" d="M11.58,8.29l.33.34.3.3a6.41,6.41,0,0,0,.85.79,1.21,1.21,0,0,0,.73.22,1.1,1.1,0,0,0,.37-.06,1.16,1.16,0,0,0,.54-.51c.05-.08.11-.15.16-.22L15,9l-.14-.2-.16-.26A2.25,2.25,0,0,0,14.38,8c-.74-.76-1.51-1.52-2.24-2.26l-.49-.48A1.1,1.1,0,0,0,10,5.19a1.12,1.12,0,0,0,.08,1.61Z" transform="translate(0 0)"/><path class="cls-3" d="M33,13.29a1.06,1.06,0,0,0,1.11.81h.1l.08,0,.32-.11,3.58-1.45A1.11,1.11,0,0,0,39,11.05a1,1,0,0,0-.53-.58,1.3,1.3,0,0,0-1,0l-.86.34-.26.11-.7.28-1.91.8A1,1,0,0,0,33,13.29Z" transform="translate(0 0)"/><path class="cls-3" d="M38.85,23.76l-.07-.09a1.47,1.47,0,0,0-.54-.5c-1.17-.52-2.38-1-3.55-1.5l-.24-.1a1.06,1.06,0,0,0-1.44.55,1.1,1.1,0,0,0,.58,1.43c.22.1.44.2.66.28l.27.12.83.34,2,.85a1.31,1.31,0,0,0,.5.1,1.06,1.06,0,0,0,.6-.18A1.23,1.23,0,0,0,38.94,24v-.13Z" transform="translate(0 0)"/><path class="cls-3" d="M28.2,28.81a1.24,1.24,0,0,0-.52-.52l-.09-.06-.09-.08h-.13a1.25,1.25,0,0,0-1.05.51,1,1,0,0,0-.09,1c.46,1.2,1,2.47,1.57,3.9a1.08,1.08,0,0,0,.59.58,1,1,0,0,0,.41.09,1.22,1.22,0,0,0,.45-.1,1.07,1.07,0,0,0,.56-1.37C29.23,31.27,28.73,30,28.2,28.81Z" transform="translate(0 0)"/><path class="cls-3" d="M16.82,6.52a1.1,1.1,0,0,0,1,.75,1.13,1.13,0,0,0,.36-.06,1.06,1.06,0,0,0,.66-1.44c-.6-1.54-1.11-2.77-1.6-3.9a1.29,1.29,0,0,0-.5-.51,1.41,1.41,0,0,1-.18-.14l-.12-.1-.15,0a1.33,1.33,0,0,0-1,.61,1.18,1.18,0,0,0,0,1C15.81,4.06,16.32,5.31,16.82,6.52Z" transform="translate(0 0)"/><path class="cls-3" d="M29.27,1.34A1.06,1.06,0,0,0,28,2c-.55,1.27-1.08,2.52-1.58,3.72a1.25,1.25,0,0,0,0,1,1,1,0,0,0,.58.56,1.06,1.06,0,0,0,.42.09,1.14,1.14,0,0,0,1-.78C29,5.34,29.46,4.13,30,3a3,3,0,0,0,.1-.33.38.38,0,0,0,0-.1l0-.06V2.4A1.09,1.09,0,0,0,29.27,1.34Z" transform="translate(0 0)"/><path class="cls-3" d="M39.13,16.64H35.05a1.08,1.08,0,0,0-1.16,1.07A1.11,1.11,0,0,0,35,18.8h4.08a1.2,1.2,0,0,0,.84-.33,1.08,1.08,0,0,0,.29-.78A1.06,1.06,0,0,0,39.13,16.64Z" transform="translate(0 0)"/><path class="cls-3" d="M21.47,5.2a1,1,0,0,0,1.06,1.15h0a1.05,1.05,0,0,0,1.08-1.1c0-1.34,0-2.74,0-4.16a1.16,1.16,0,0,0-.32-.8A1.08,1.08,0,0,0,22.52,0a1.06,1.06,0,0,0-1.05,1.12c0,.47,0,.95,0,1.41V3.75C21.46,4.22,21.46,4.71,21.47,5.2Z" transform="translate(0 0)"/></g></g></g></svg>