<svg width="210" height="48" viewBox="0 0 210 48" fill="none" xmlns="http://www.w3.org/2000/svg">
<path d="M203.125 0H200.625C200.28 0 200 0.28002 200 0.62502V3.12504C200 3.47004 200.28 3.75006 200.625 3.75006H203.125C203.471 3.75006 203.75 3.47004 203.75 3.12504V0.62502C203.75 0.28002 203.471 0 203.125 0Z" fill="#21CF8E"/>
<path d="M3.12528 0H0.625263C0.280263 0 0.000244141 0.28002 0.000244141 0.62502V3.12504C0.000244141 3.46998 0.280263 3.75 0.625263 3.75H3.12528C3.47151 3.75 3.7503 3.46998 3.7503 3.12498V0.62502C3.75024 0.28002 3.47151 0 3.12528 0Z" fill="#21CF8E"/>
<path d="M3.12504 37.375H0.625019C0.280019 37.375 0 37.655 0 38V40.5C0 40.845 0.280019 41.125 0.625019 41.125H3.12504C3.47127 41.125 3.75006 40.845 3.75006 40.5V38C3.75 37.655 3.47127 37.375 3.12504 37.375Z" fill="#21CF8E"/>
<path d="M209.679 40.5788L198.429 34.3288C198.196 34.2001 197.909 34.2313 197.712 34.4063C197.514 34.5813 197.446 34.8613 197.545 35.1076L202.545 47.6075C202.639 47.8426 202.865 47.9975 203.117 48.0001C203.12 48.0001 203.122 48.0001 203.125 48.0001C203.375 48.0001 203.601 47.8513 203.7 47.6213L205.476 43.4763L209.621 41.7001C209.84 41.6063 209.986 41.3951 209.999 41.1575C210.011 40.9201 209.886 40.6951 209.679 40.5788Z" fill="#21CF8E"/>
<line x1="196" y1="1.5" x2="5.99976" y2="1.49998" stroke="#21CF8E" stroke-miterlimit="16" stroke-linejoin="round" stroke-dasharray="5 5"/>
<line x1="201.5" y1="32" x2="201.5" y2="6" stroke="#21CF8E" stroke-miterlimit="16" stroke-linejoin="round" stroke-dasharray="4 4"/>
<line x1="1.49976" y1="34" x2="1.49976" y2="6" stroke="#21CF8E" stroke-miterlimit="16" stroke-linejoin="round" stroke-dasharray="4 4"/>
<line x1="196" y1="39.5" x2="5.99976" y2="39.5" stroke="#21CF8E" stroke-miterlimit="16" stroke-linejoin="round" stroke-dasharray="5 5"/>
</svg>
