<svg width="24" height="24" viewBox="0 0 24 24" fill="none" xmlns="http://www.w3.org/2000/svg">
<path d="M0 4C0 1.79086 1.79086 0 4 0H20C22.2091 0 24 1.79086 24 4V20C24 22.2091 22.2091 24 20 24H4C1.79086 24 0 22.2091 0 20V4Z" fill="#1BAC76"/>
<path d="M11.9857 13.861C10.4001 15.4776 8.95861 16.9448 7.52228 18.4171C6.82213 19.1327 6.0499 19.6012 5.21076 18.7209C4.42824 17.9023 4.88642 17.1559 5.56083 16.4969C7.0332 15.0606 8.50043 13.6191 10.1067 12.0386C8.68576 10.6177 7.33694 9.26888 5.98813 7.92006C4.70109 6.63302 4.50546 5.95346 5.2159 5.23272C5.93665 4.49654 6.62135 4.67672 7.90324 5.96376C9.23147 7.29713 10.5442 8.6408 12.0269 10.1441C13.5971 8.53269 15.0489 6.9728 16.5985 5.51072C16.9949 5.13491 17.762 4.84661 18.2665 4.94957C19.327 5.17094 19.4917 6.39621 18.6114 7.29713C17.1184 8.83128 15.5637 10.3088 13.8957 11.9511C15.3114 13.3668 16.6603 14.7156 18.0091 16.0644C19.2961 17.3566 19.4917 18.031 18.7864 18.7518C18.0708 19.4828 17.3655 19.2975 16.0991 18.0259C14.7709 16.6925 13.453 15.3488 11.9857 13.861Z" fill="white"/>
</svg>
