<svg width="52" height="53" viewBox="0 0 52 53" fill="none" xmlns="http://www.w3.org/2000/svg">
<path d="M26 52.36C40.3594 52.36 52 40.7194 52 26.36C52 12.0006 40.3594 0.359985 26 0.359985C11.6406 0.359985 0 12.0006 0 26.36C0 40.7194 11.6406 52.36 26 52.36Z" fill="#FFD400"/>
<path d="M36.6231 40.582C36.6231 38.5124 31.9639 32.8444 26.2179 32.8444C20.4719 32.8444 15.8127 38.5176 15.8127 40.582C15.8127 42.6464 20.4719 34.8568 26.2179 34.8568C31.9639 34.8568 36.6231 42.6516 36.6231 40.582Z" fill="black"/>
<path d="M34.9494 24.5192C37.0028 24.5192 38.6674 22.8546 38.6674 20.8012C38.6674 18.7478 37.0028 17.0832 34.9494 17.0832C32.896 17.0832 31.2314 18.7478 31.2314 20.8012C31.2314 22.8546 32.896 24.5192 34.9494 24.5192Z" fill="black"/>
<path d="M17.051 24.5192C19.1044 24.5192 20.769 22.8546 20.769 20.8012C20.769 18.7478 19.1044 17.0832 17.051 17.0832C14.9976 17.0832 13.333 18.7478 13.333 20.8012C13.333 22.8546 14.9976 24.5192 17.051 24.5192Z" fill="black"/>
</svg>
