<svg width="30" height="30" viewBox="0 0 30 30" fill="none" xmlns="http://www.w3.org/2000/svg">
<path d="M17.5475 30H16.875C15.8412 30 15 29.1588 15 28.125V21.0601C15 20.0263 15.8412 19.1851 16.875 19.1851H17.5475C18.5812 19.1851 19.4225 20.0263 19.4225 21.0601V28.125C19.4225 29.1588 18.5812 30 17.5475 30ZM16.875 20.4351C16.5312 20.4351 16.25 20.7163 16.25 21.0601V28.125C16.25 28.4688 16.5312 28.75 16.875 28.75H17.5475C17.8912 28.75 18.1725 28.4688 18.1725 28.125V21.0601C18.1725 20.7163 17.8912 20.4351 17.5475 20.4351H16.875Z" fill="white"/>
<path d="M26.285 30H25.19C20.5437 30 18.4975 28.44 18.4112 28.3725C18.14 28.16 18.0925 27.7675 18.305 27.495C18.5175 27.2225 18.9087 27.1737 19.1825 27.3887C19.1962 27.4 21.0225 28.75 25.19 28.75H26.285C27.1512 28.75 27.885 28.13 28.0275 27.2738L28.7262 23.0888C28.8112 22.575 28.6675 22.0538 28.3325 21.6563C27.995 21.2588 27.505 21.0313 26.985 21.0313H23.3987C23.1675 21.0313 22.9562 20.9038 22.8487 20.7013C22.74 20.4975 22.7512 20.2525 22.8787 20.0588C22.8812 20.055 23.3712 19.28 23.3712 18.0138C23.3687 16.73 22.8362 16.25 22.5 16.25C22.4 16.25 22.37 16.2637 22.3687 16.2637C22.3662 16.2712 22.2287 16.45 22.2287 17.4188C22.2287 19.8575 19.2212 21.49 19.0925 21.5587C18.7862 21.7212 18.41 21.6063 18.2475 21.3013C18.085 20.9975 18.2 20.6187 18.5037 20.4562C19.1912 20.0862 20.9775 18.82 20.9775 17.4188C20.9775 16.5738 20.9775 15 22.5 15C23.52 15 24.6187 15.9438 24.6187 18.0163C24.6187 18.7313 24.4937 19.33 24.35 19.7825H26.9825C27.8712 19.7825 28.71 20.1713 29.2837 20.85C29.8575 21.5275 30.1037 22.4187 29.9575 23.295L29.2587 27.48C29.0175 28.94 27.7662 30 26.285 30Z" fill="white"/>
<path d="M11.875 26.25H3.125C1.40125 26.25 0 24.8487 0 23.125V6.875C0 5.15125 1.40125 3.75 3.125 3.75H5.625C5.97 3.75 6.25 4.03 6.25 4.375C6.25 4.72 5.97 5 5.625 5H3.125C2.09125 5 1.25 5.84125 1.25 6.875V23.125C1.25 24.1588 2.09125 25 3.125 25H11.875C12.22 25 12.5 25.28 12.5 25.625C12.5 25.97 12.22 26.25 11.875 26.25Z" fill="white"/>
<path d="M14.375 7.5H6.875C5.84125 7.5 5 6.65875 5 5.625V3.125C5 2.78 5.28 2.5 5.625 2.5H7.5625C7.8525 1.075 9.11625 0 10.625 0C12.1338 0 13.3975 1.075 13.6875 2.5H15.625C15.97 2.5 16.25 2.78 16.25 3.125V5.625C16.25 6.65875 15.4088 7.5 14.375 7.5ZM6.25 3.75V5.625C6.25 5.96875 6.53125 6.25 6.875 6.25H14.375C14.7188 6.25 15 5.96875 15 5.625V3.75H13.125C12.78 3.75 12.5 3.47 12.5 3.125C12.5 2.09125 11.6588 1.25 10.625 1.25C9.59125 1.25 8.75 2.09125 8.75 3.125C8.75 3.47 8.47 3.75 8.125 3.75H6.25Z" fill="white"/>
<path d="M16.875 11.25H4.375C4.03 11.25 3.75 10.97 3.75 10.625C3.75 10.28 4.03 10 4.375 10H16.875C17.22 10 17.5 10.28 17.5 10.625C17.5 10.97 17.22 11.25 16.875 11.25Z" fill="white"/>
<path d="M16.875 15H4.375C4.03 15 3.75 14.72 3.75 14.375C3.75 14.03 4.03 13.75 4.375 13.75H16.875C17.22 13.75 17.5 14.03 17.5 14.375C17.5 14.72 17.22 15 16.875 15Z" fill="white"/>
<path d="M11.875 18.75H4.375C4.03 18.75 3.75 18.47 3.75 18.125C3.75 17.78 4.03 17.5 4.375 17.5H11.875C12.22 17.5 12.5 17.78 12.5 18.125C12.5 18.47 12.22 18.75 11.875 18.75Z" fill="white"/>
<path d="M20.625 12.5C20.28 12.5 20 12.22 20 11.875V6.875C20 5.84125 19.1587 5 18.125 5H15.625C15.28 5 15 4.72 15 4.375C15 4.03 15.28 3.75 15.625 3.75H18.125C19.8487 3.75 21.25 5.15125 21.25 6.875V11.875C21.25 12.22 20.97 12.5 20.625 12.5Z" fill="white"/>
</svg>
