<svg width="52" height="53" viewBox="0 0 52 53" fill="none" xmlns="http://www.w3.org/2000/svg">
<path d="M26 52.36C40.3594 52.36 52 40.7194 52 26.36C52 12.0006 40.3594 0.359989 26 0.359989C11.6406 0.359989 0 12.0006 0 26.36C0 40.7194 11.6406 52.36 26 52.36Z" fill="#FFD400"/>
<path d="M15.5432 33.1928C15.5432 35.2624 20.2024 40.9304 25.9484 40.9304C31.6944 40.9304 36.3536 35.2572 36.3536 33.1928C36.3536 31.1284 31.6944 38.918 25.9484 38.918C20.2024 38.918 15.5432 31.1232 15.5432 33.1928Z" fill="black"/>
<path d="M34.9548 22.4392C37.0082 22.4392 38.6728 20.7746 38.6728 18.7212C38.6728 16.6678 37.0082 15.0032 34.9548 15.0032C32.9014 15.0032 31.2368 16.6678 31.2368 18.7212C31.2368 20.7746 32.9014 22.4392 34.9548 22.4392Z" fill="black"/>
<path d="M17.051 22.4392C19.1044 22.4392 20.769 20.7746 20.769 18.7212C20.769 16.6678 19.1044 15.0032 17.051 15.0032C14.9976 15.0032 13.333 16.6678 13.333 18.7212C13.333 20.7746 14.9976 22.4392 17.051 22.4392Z" fill="black"/>
</svg>
