<svg width="52" height="53" viewBox="0 0 52 53" fill="none" xmlns="http://www.w3.org/2000/svg">
<path d="M26 52.36C40.3594 52.36 52 40.7194 52 26.36C52 12.0006 40.3594 0.359989 26 0.359989C11.6406 0.359989 0 12.0006 0 26.36C0 40.7194 11.6406 52.36 26 52.36Z" fill="#FFD400"/>
<path d="M37.6173 16.168C37.8253 16.0276 38.0437 15.856 38.2829 15.7208C39.4113 15.0864 40.5397 15.102 41.6109 15.8196C42.7133 16.558 43.1501 17.6292 42.9629 18.9396C42.8225 19.9328 42.2765 20.6764 41.4757 21.2536C40.7945 21.7424 40.0405 22.096 39.2657 22.3976C38.0437 22.8656 36.8113 23.318 35.5841 23.7756C35.4229 23.8328 35.2669 23.8952 35.1057 23.9576C35.0329 23.9888 34.9913 23.9836 34.9445 23.9108C34.0969 22.5796 33.2337 21.2588 32.3965 19.9224C31.9545 19.2152 31.5749 18.4716 31.3825 17.6552C31.0601 16.3084 31.3773 15.1384 32.4225 14.218C33.9097 12.9076 36.3329 13.4016 37.2117 15.1748C37.3781 15.4868 37.4873 15.8352 37.6173 16.168Z" fill="black"/>
<path d="M16.0469 16.0588C16.1561 15.83 16.2601 15.5752 16.4005 15.336C17.0661 14.2232 18.0541 13.6772 19.3437 13.7708C20.6697 13.8644 21.5745 14.582 22.0633 15.8144C22.4325 16.7452 22.3285 17.6656 21.9177 18.56C21.5693 19.3244 21.0909 20.0004 20.5657 20.6452C19.7389 21.6592 18.8913 22.6576 18.0489 23.6612C17.9397 23.7912 17.8305 23.9212 17.7265 24.0564C17.6797 24.1188 17.6381 24.1396 17.5601 24.0928C16.1665 23.3596 14.7625 22.6368 13.3689 21.888C12.6357 21.4928 11.9389 21.0352 11.3617 20.4216C10.4153 19.4128 10.1085 18.2376 10.5609 16.9168C11.2057 15.0448 13.5509 14.27 15.1941 15.3724C15.5009 15.5856 15.7661 15.8352 16.0469 16.0588Z" fill="black"/>
<path d="M15.5952 33.1928C15.5952 35.2624 20.2544 40.9304 26.0004 40.9304C31.7464 40.9304 36.4056 35.2572 36.4056 33.1928C36.4056 31.1284 31.7464 33.1928 26.0004 33.1928C20.2544 33.1928 15.5952 31.1232 15.5952 33.1928Z" fill="black"/>
</svg>
