<svg width="52" height="53" viewBox="0 0 52 53" fill="none" xmlns="http://www.w3.org/2000/svg">
<path d="M26 52.36C40.3594 52.36 52 40.7194 52 26.36C52 12.0006 40.3594 0.359985 26 0.359985C11.6406 0.359985 0 12.0006 0 26.36C0 40.7194 11.6406 52.36 26 52.36Z" fill="#FFD400"/>
<path d="M34.9495 24.5193C37.0029 24.5193 38.6675 22.8547 38.6675 20.8013C38.6675 18.7479 37.0029 17.0833 34.9495 17.0833C32.8961 17.0833 31.2314 18.7479 31.2314 20.8013C31.2314 22.8547 32.8961 24.5193 34.9495 24.5193Z" fill="black"/>
<path d="M17.051 24.5193C19.1044 24.5193 20.769 22.8547 20.769 20.8013C20.769 18.7479 19.1044 17.0833 17.051 17.0833C14.9976 17.0833 13.333 18.7479 13.333 20.8013C13.333 22.8547 14.9976 24.5193 17.051 24.5193Z" fill="black"/>
<path d="M17.4983 35.9957H34.5127C35.0795 35.9957 35.5423 35.5329 35.5423 34.9661C35.5423 34.3993 35.0795 33.9365 34.5127 33.9365H17.4983C16.9315 33.9365 16.4688 34.3993 16.4688 34.9661C16.4739 35.5329 16.9367 35.9957 17.4983 35.9957Z" fill="black"/>
</svg>
