<svg xmlns="http://www.w3.org/2000/svg" xmlns:xlink="http://www.w3.org/1999/xlink" viewBox="0 0 40 38.64"><defs><style>.cls-1{fill:none;}.cls-2{clip-path:url(#clip-path);}.cls-3{fill:#5bb888;}</style><clipPath id="clip-path" transform="translate(0 -0.68)"><rect class="cls-1" width="40" height="40"/></clipPath></defs><g id="Layer_2" data-name="Layer 2"><g id="Layer_1-2" data-name="Layer 1"><g class="cls-2"><path class="cls-3" d="M5.72,12.49v3.86l.34,0H16.54c.23,0,.32-.07.38-.3a3.11,3.11,0,0,1,2.32-2.3c.22-.06.3-.13.28-.35s0-.42,0-.63-.07-.32-.31-.35A16.73,16.73,0,0,1,17,12a5.68,5.68,0,0,1-1.52-.8,1.81,1.81,0,0,1-.76-1.58c0-2,0-4,0-6a2.17,2.17,0,0,1,1.11-2,6.44,6.44,0,0,1,2.7-.89,9.42,9.42,0,0,1,4.9.53,3.92,3.92,0,0,1,.95.55,2,2,0,0,1,.85,1.7q0,3,0,6a2.06,2.06,0,0,1-1,1.81,6.59,6.59,0,0,1-3.15,1c-.69.07-.69.05-.69.75a2.81,2.81,0,0,1,0,.29c0,.18,0,.27.24.32A3.09,3.09,0,0,1,23,16.14c.07.26.22.24.39.24h10.9V12.51c-.56-.08-1.12-.14-1.66-.25a5.25,5.25,0,0,1-2.35-1,2,2,0,0,1-.78-1.62c0-2,0-4.08,0-6.12A2.08,2.08,0,0,1,30.57,1.7,6.49,6.49,0,0,1,33.43.77a9.48,9.48,0,0,1,4.33.38,6.48,6.48,0,0,1,1.49.8A1.77,1.77,0,0,1,40,3.48V9.7a2,2,0,0,1-1,1.72,6.57,6.57,0,0,1-3.09,1c-.72.07-.72.05-.72.76,0,1.12,0,2.24,0,3.35,0,.65-.09.74-.75.74-3.66,0-7.31,0-11,0-.31,0-.44.06-.54.39a3.06,3.06,0,0,1-2.26,2.2c-.21.06-.29.14-.28.36,0,.55,0,1.1,0,1.64,0,.28.09.36.35.34a2.29,2.29,0,0,1,.37,0c.66,0,.83.29.51.85l-1,1.67a2.75,2.75,0,0,0-.18.35h8.18a.91.91,0,0,1,1,1c0,2.51,0,5,0,7.54a1.87,1.87,0,0,0,.15.7c.51,1.2,1,2.39,1.55,3.59a.91.91,0,0,1-.92,1.39H9.45c-.89,0-1.29-.59-.93-1.41l1.59-3.67a1.55,1.55,0,0,0,.1-.52V26.11c0-.73.33-1.05,1.06-1.05h8.17c-.07-.14-.11-.24-.16-.33l-1-1.75c-.27-.47-.09-.78.44-.79.81,0,.81,0,.81-.84,0-.38,0-.77,0-1.16a.25.25,0,0,0-.22-.31,3.11,3.11,0,0,1-2.4-2.38c-.06-.25-.22-.23-.4-.23H5.42c-.48,0-.62-.14-.62-.63V12.92c0-.43,0-.44-.44-.47a8.1,8.1,0,0,1-2.74-.67A5.38,5.38,0,0,1,1,11.4,2.1,2.1,0,0,1,0,9.59q0-3,0-6A2.1,2.1,0,0,1,1.06,1.71,6.47,6.47,0,0,1,3.82.78a9.64,9.64,0,0,1,4.43.37,6.27,6.27,0,0,1,1.49.79,1.83,1.83,0,0,1,.77,1.58V9.61a2.08,2.08,0,0,1-1.06,1.86,7,7,0,0,1-3,.95ZM27.93,26.88H12c0,.11,0,.22,0,.32,0,2.08,0,4.17,0,6.25,0,.28.13.3.34.3H27.62c.26,0,.32-.09.32-.33q0-3.08,0-6.15ZM10.66,37.5H29.24c0-.06,0-.1,0-.12-.37-.85-.73-1.7-1.11-2.55a.45.45,0,0,0-.32-.18c-.49,0-1,0-1.48,0H12.21a.42.42,0,0,0-.46.31c-.23.59-.5,1.16-.75,1.74Zm-5.58-35A7.31,7.31,0,0,0,4,2.58a11.34,11.34,0,0,0-1.82.58c-.48.21-.47.56,0,.84a2.77,2.77,0,0,0,.6.29,7.92,7.92,0,0,0,4.47.19A5.93,5.93,0,0,0,8.5,3.93a.4.4,0,0,0,0-.73A2.73,2.73,0,0,0,8,3,8,8,0,0,0,5.08,2.48Zm14.74,0a6.21,6.21,0,0,0-1.18.11,10.59,10.59,0,0,0-1.81.58c-.46.2-.45.56,0,.82a2.49,2.49,0,0,0,.59.29,7.83,7.83,0,0,0,4.47.2A5.86,5.86,0,0,0,23.18,4c.36-.19.35-.55,0-.77A2.6,2.6,0,0,0,22.71,3,7.73,7.73,0,0,0,19.82,2.48ZM34.76,4.74a15,15,0,0,0,1.77-.23A6.72,6.72,0,0,0,38,3.92c.31-.16.29-.49,0-.69A2.43,2.43,0,0,0,37.48,3a8.08,8.08,0,0,0-4.22-.34,4,4,0,0,0-1.76.62.38.38,0,0,0,0,.69,3.52,3.52,0,0,0,.69.37A8.63,8.63,0,0,0,34.76,4.74Zm3.45.17a9,9,0,0,1-6.91,0,6.82,6.82,0,0,1,0,.79.53.53,0,0,0,.41.64,1.57,1.57,0,0,1,.23.09,8.29,8.29,0,0,0,3.76.42,6,6,0,0,0,2.24-.59c.11,0,.26-.17.27-.27C38.23,5.65,38.21,5.3,38.21,4.91ZM1.8,4.91v.6c0,.68,0,.68.66.93a8.31,8.31,0,0,0,3.7.41,5.94,5.94,0,0,0,2.3-.6c.1,0,.23-.16.24-.25,0-.36,0-.71,0-1.09A9,9,0,0,1,1.8,4.91Zm21.61,0a9,9,0,0,1-6.89,0v.65c0,.61,0,.61.56.85l.27.09a8.52,8.52,0,0,0,3.55.35,6,6,0,0,0,2.24-.58c.11-.06.25-.16.26-.24C23.43,5.67,23.41,5.3,23.41,4.91ZM1.85,7.18c-.2.91-.1,1.11.7,1.41l.18.06a8.35,8.35,0,0,0,3.78.26,12.35,12.35,0,0,0,2-.56.4.4,0,0,0,.24-.28,8.94,8.94,0,0,0,0-.9A9.76,9.76,0,0,1,1.85,7.18Zm29.45,0a5,5,0,0,1,0,.68.5.5,0,0,0,.36.58,7.22,7.22,0,0,0,3,.58,7.15,7.15,0,0,0,3.26-.6c.12-.06.29-.15.3-.24a8.05,8.05,0,0,0,0-1A9.71,9.71,0,0,1,31.3,7.16Zm-14.74,0c-.19.92-.08,1.14.75,1.42a8.2,8.2,0,0,0,4,.3,12,12,0,0,0,1.84-.53.4.4,0,0,0,.26-.26,7.22,7.22,0,0,0,0-.94A9.71,9.71,0,0,1,16.56,7.18ZM8.67,9.26a8.67,8.67,0,0,1-3.43.64,9,9,0,0,1-3.4-.62.56.56,0,0,0,.32.78l.37.17a8,8,0,0,0,3.66.41,5.72,5.72,0,0,0,2.14-.57A.61.61,0,0,0,8.67,9.26Zm14.7,0A9.07,9.07,0,0,1,20,9.9a9,9,0,0,1-3.41-.63c-.07.54,0,.6.4.83.08.05.17.08.25.12a8.16,8.16,0,0,0,3.73.42,5.52,5.52,0,0,0,2.14-.59C23.44,9.84,23.47,9.75,23.37,9.28Zm14.8,0a9.68,9.68,0,0,1-6.83,0c-.1.45-.07.54.3.75a2.42,2.42,0,0,0,.36.18,8,8,0,0,0,3.7.42,5.5,5.5,0,0,0,2.17-.6A.55.55,0,0,0,38.17,9.29Zm-20,6.29a2,2,0,0,0-.05,2.4l1.21-1.21-.22-.22C18.78,16.23,18.47,15.91,18.14,15.58Zm.7,3.14a2,2,0,0,0,2.28-.06L20,17.55ZM21.15,15a2,2,0,0,0-2.29-.06L20,16.11Zm.68,3a2,2,0,0,0,0-2.24l-1.13,1.13ZM19.37,23.1l.6,1,.59-1Z" transform="translate(0 -0.68)"/><path class="cls-3" d="M24.69,30.16,26.19,29c.08-.05.15-.14.23-.16a.83.83,0,0,1,.31,0c0,.1,0,.23-.06.3a1,1,0,0,1-.29.24c-.47.37-1,.72-1.42,1.1a.39.39,0,0,1-.6,0c-.43-.44-.89-.86-1.34-1.29l-.3-.27-1.35,1.3c-.38.36-.38.36-.83.12s-.86-.45-1.28-.69a.36.36,0,0,0-.45,0c-.53.38-1.08.73-1.61,1.11a.36.36,0,0,1-.57-.08c-.43-.52-.88-1-1.36-1.6-.07.14-.11.23-.15.33-.41,1-.8,2-1.21,3a1.06,1.06,0,0,1-.16.34c0,.06-.18.12-.23.09a.35.35,0,0,1-.14-.23c0-.08,0-.16.07-.24l1.44-3.64c.17-.43.31-.45.6-.1s.87,1,1.29,1.51c.14.17.25.17.42.05.5-.36,1-.69,1.53-1.05a.47.47,0,0,1,.55,0c.45.25.92.48,1.36.74a.34.34,0,0,0,.49-.06c.41-.43.85-.84,1.29-1.25.28-.27.33-.27.62,0l1.39,1.33Z" transform="translate(0 -0.68)"/></g></g></g></svg>