<svg xmlns="http://www.w3.org/2000/svg" xmlns:xlink="http://www.w3.org/1999/xlink" viewBox="0 0 40 36.1"><defs><style>.cls-1{fill:none;}.cls-2{clip-path:url(#clip-path);}.cls-3{fill:#5bb888;}</style><clipPath id="clip-path" transform="translate(0 -1.95)"><rect class="cls-1" width="40" height="40"/></clipPath></defs><g id="Layer_2" data-name="Layer 2"><g id="Layer_1-2" data-name="Layer 1"><g class="cls-2"><path class="cls-3" d="M7.78,9.92c0-.86,0-1.68,0-2.49a5,5,0,0,1,.91-3A5.4,5.4,0,0,1,13.31,2H34.59A5.48,5.48,0,0,1,40,7.35q0,5.73,0,11.46A5.5,5.5,0,0,1,36,24c-.31.08-.38.22-.37.51,0,2.11,0,4.23,0,6.34v.52l-8.18-5.22a14.2,14.2,0,0,1-.75,1.46,5.35,5.35,0,0,1-4.69,2.56H14.66a1.22,1.22,0,0,0-.82.28c-3,2.41-6,4.81-9,7.21l-.48.37v-.5c0-2.36,0-4.72,0-7.09,0-.29-.08-.39-.37-.47A5.49,5.49,0,0,1,0,24.82q0-4.77,0-9.52A5.46,5.46,0,0,1,5.4,9.93Zm25.86,17.8c0-.2,0-.31,0-.42,0-1.55,0-3.11,0-4.66,0-.33.09-.42.42-.42a7,7,0,0,0,1.45-.1A3.07,3.07,0,0,0,38,18.88c0-3.86,0-7.71,0-11.57A3.13,3.13,0,0,0,34.65,4H13.12A3.12,3.12,0,0,0,9.79,7.25c0,3.89,0,7.78,0,11.68a3.06,3.06,0,0,0,1.77,3,4.11,4.11,0,0,0,1.86.34c3.74,0,7.48,0,11.23,0a1.4,1.4,0,0,1,.69.19l6.45,4.11ZM6.33,33.89l.44-.34c2.14-1.7,4.28-3.41,6.43-5.1a1.16,1.16,0,0,1,.67-.24c2.76,0,5.52,0,8.28,0a3.16,3.16,0,0,0,3.41-2.81c0-.15,0-.41,0-.45-.48-.29-.86-.73-1.51-.73-3.58,0-7.17,0-10.75,0a5.49,5.49,0,0,1-5.48-5.48V12a24.87,24.87,0,0,0-3.12,0A3,3,0,0,0,2,15c0,3.34,0,6.69,0,10A3,3,0,0,0,4.15,28a7.11,7.11,0,0,0,1.73.19c.35,0,.47.1.46.46,0,1.58,0,3.16,0,4.74Z" transform="translate(0 -1.95)"/><path class="cls-3" d="M28.37,19.51c0,.48-.13.59-.46.41-.77-.42-1.52-.88-2.28-1.33-.42-.25-.83-.51-1.24-.77a.72.72,0,0,0-.86,0c-1,.63-2,1.27-3,1.87a4.52,4.52,0,0,1-.92.31,4.92,4.92,0,0,1,0-.94c.23-1.18.49-2.36.76-3.54a.86.86,0,0,0-.3-.92c-.86-.75-1.71-1.52-2.56-2.29a6.52,6.52,0,0,1-.5-.55c-.19-.22-.14-.4.14-.46.49-.09,1-.18,1.47-.23.88-.1,1.76-.17,2.64-.24a.77.77,0,0,0,.71-.56c.41-1.06.84-2.12,1.27-3.18a4.17,4.17,0,0,1,.33-.67c.22-.38.36-.39.55,0,.32.63.61,1.28.89,1.93s.52,1.24.75,1.86a.86.86,0,0,0,.84.61c1,.07,2.08.16,3.12.25a5.47,5.47,0,0,1,.81.13c.39.1.44.24.18.54s-.66.71-1,1c-.63.59-1.26,1.17-1.91,1.73a1,1,0,0,0-.32,1.13c.23.93.44,1.86.65,2.79C28.25,18.82,28.32,19.23,28.37,19.51Z" transform="translate(0 -1.95)"/></g></g></g></svg>