<svg xmlns="http://www.w3.org/2000/svg" viewBox="0 0 607.58 606.8"><g id="Layer_2" data-name="Layer 2"><g id="Layer_1-2" data-name="Layer 1"><path d="M572.86,606.8H34.74c-1.17-.71-2.26-1.73-3.54-2.07C11.66,599.38,0,580.37,0,561.23q.18-256.51.11-513a75.6,75.6,0,0,1,1-13.28C4.56,15.9,21.79.09,42,.09Q304,0,566,0c20.74,0,41.61,19.67,41.6,41.33q-.14,261.75-.08,523.51c0,14.47-6.77,25.65-18.36,33.72C584.2,602,578.32,604.09,572.86,606.8ZM327.5,516.92v-7.11c0-46.42-.11-92.84.09-139.26a170.52,170.52,0,0,1,2.11-27.67c2.35-13.82,7.53-26.5,19.74-34.9,10.11-7,21.56-8.6,33.57-8.46,19.88.22,34.32,9.89,39.66,29a130.2,130.2,0,0,1,4.93,33.15c.51,49.57.22,99.15.22,148.73v6.37H518c.1-1.45.23-2.44.22-3.43q-.45-88.79-1-177.57a181.35,181.35,0,0,0-7.14-48.83c-8-28-24-49.3-52.31-59.4-20.1-7.19-40.92-8.91-62.12-6.42-21.57,2.54-40.5,10.82-56,26.12-5.7,5.63-10.44,12.23-16.28,19.18V227.56h-86V516.92Zm-147.11,0V227.61H90.73V516.93ZM83,135.58a52.39,52.39,0,0,0,104.77.21c0-29.25-23.07-52.14-52.28-52.52A52.27,52.27,0,0,0,83,135.58Z"/></g></g></svg>